Roboto_Serif_Text-Regular.ufo
<glyph name="ampersand" format="2">
  <advance width="743"/>
  <unicode hex="0026"/>
  <outline>
    <contour>
      <point x="623" y="311" type="curve" smooth="yes"/>
      <point x="630" y="344"/>
      <point x="657" y="349"/>
      <point x="702" y="349" type="curve" smooth="yes"/>
      <point x="704" y="349" type="line"/>
      <point x="704" y="394" type="line"/>
      <point x="490" y="394" type="line"/>
      <point x="490" y="349" type="line"/>
      <point x="492" y="349" type="line" smooth="yes"/>
      <point x="520" y="349"/>
      <point x="565" y="346"/>
      <point x="565" y="339" type="curve" smooth="yes"/>
      <point x="565" y="219"/>
      <point x="475" y="45"/>
      <point x="313" y="45" type="curve" smooth="yes"/>
      <point x="206" y="45"/>
      <point x="153" y="108"/>
      <point x="153" y="206" type="curve" smooth="yes"/>
      <point x="153" y="296"/>
      <point x="210" y="350"/>
      <point x="293" y="381" type="curve"/>
      <point x="271" y="422" type="line"/>
      <point x="147" y="388"/>
      <point x="55" y="314"/>
      <point x="55" y="200" type="curve" smooth="yes"/>
      <point x="55" y="74"/>
      <point x="150" y="-10"/>
      <point x="304" y="-10" type="curve" smooth="yes"/>
      <point x="515" y="-10"/>
      <point x="604" y="220"/>
    </contour>
    <contour>
      <point x="696" y="0" type="line"/>
      <point x="696" y="58" type="line"/>
      <point x="670" y="58" type="line" smooth="yes"/>
      <point x="626" y="58"/>
      <point x="607" y="73"/>
      <point x="576" y="102" type="curve" smooth="yes"/>
      <point x="369" y="300"/>
      <point x="282" y="430"/>
      <point x="282" y="549" type="curve" smooth="yes"/>
      <point x="282" y="630"/>
      <point x="322" y="663"/>
      <point x="376" y="663" type="curve" smooth="yes"/>
      <point x="426" y="663"/>
      <point x="454" y="630"/>
      <point x="454" y="577" type="curve" smooth="yes"/>
      <point x="454" y="506"/>
      <point x="398" y="474"/>
      <point x="293" y="430" type="curve"/>
      <point x="315" y="387" type="line"/>
      <point x="433" y="429"/>
      <point x="532" y="488"/>
      <point x="532" y="585" type="curve" smooth="yes"/>
      <point x="532" y="665"/>
      <point x="476" y="718"/>
      <point x="376" y="718" type="curve" smooth="yes"/>
      <point x="270" y="718"/>
      <point x="194" y="653"/>
      <point x="194" y="552" type="curve" smooth="yes"/>
      <point x="194" y="388"/>
      <point x="360" y="192"/>
      <point x="561" y="0" type="curve"/>
    </contour>
  </outline>
</glyph>
<glyph name="parenleft" format="2">
  <advance width="327"/>
  <unicode hex="0028"/>
  <outline>
    <contour>
      <point x="140" y="310" type="curve" smooth="yes"/>
      <point x="140" y="111"/>
      <point x="237" y="-48"/>
      <point x="322" y="-127" type="curve"/>
      <point x="322" y="-130" type="line"/>
      <point x="254" y="-130" type="line"/>
      <point x="146" y="-50"/>
      <point x="50" y="118"/>
      <point x="50" y="310" type="curve" smooth="yes"/>
      <point x="50" y="502"/>
      <point x="146" y="670"/>
      <point x="254" y="750" type="curve"/>
      <point x="322" y="750" type="line"/>
      <point x="322" y="747" type="line"/>
      <point x="237" y="668"/>
      <point x="140" y="509"/>
    </contour>
  </outline>
</glyph>
<glyph name="comma" format="2">
  <advance width="277"/>
  <unicode hex="002C"/>
  <outline>
    <contour>
      <point x="112" y="-164" type="line"/>
      <point x="182" y="-105"/>
      <point x="217.0" y="-39.0"/>
      <point x="217.0" y="36.0" type="curve" smooth="yes"/>
      <point x="217.0" y="92.0"/>
      <point x="185.0" y="119.0"/>
      <point x="141.0" y="119.0" type="curve" smooth="yes"/>
      <point x="101.0" y="119.0"/>
      <point x="73.0" y="93.0"/>
      <point x="73.0" y="56.0" type="curve" smooth="yes"/>
      <point x="73.0" y="19.0"/>
      <point x="105" y="-7"/>
      <point x="149.0" y="-7.0" type="curve" smooth="yes"/>
      <point x="168" y="-7"/>
      <point x="180" y="-4"/>
      <point x="190" y="8" type="curve"/>
      <point x="178" y="18"/>
      <point x="171" y="17"/>
      <point x="165" y="8" type="curve"/>
      <point x="163" y="-36"/>
      <point x="108.0" y="-88.0"/>
      <point x="45.0" y="-133.0" type="curve"/>
    </contour>
  </outline>
</glyph>
<glyph name="slash" format="2">
  <advance width="420"/>
  <unicode hex="002F"/>
  <outline>
    <contour>
      <point x="439.0" y="750.0" type="line"/>
      <point x="61.0" y="-128.0" type="line"/>
      <point x="-19.0" y="-128.0" type="line"/>
      <point x="359.0" y="750.0" type="line"/>
    </contour>
  </outline>
</glyph>
<glyph name="zero" format="2">
  <advance width="560"/>
  <unicode hex="0030"/>
  <outline>
    <contour>
      <point x="280" y="-11" type="curve" smooth="yes"/>
      <point x="423.282868526" y="-11.0"/>
      <point x="523.0" y="117.0"/>
      <point x="523" y="304" type="curve" smooth="yes"/>
      <point x="523.0" y="491.0"/>
      <point x="423" y="619"/>
      <point x="280" y="619" type="curve" smooth="yes"/>
      <point x="137" y="619"/>
      <point x="37.0" y="491.0"/>
      <point x="37" y="304" type="curve" smooth="yes"/>
      <point x="37.0" y="117.0"/>
      <point x="136.717131474" y="-11.0"/>
    </contour>
    <contour>
      <point x="280" y="48" type="curve" smooth="yes"/>
      <point x="187.058064516" y="48.0"/>
      <point x="133.0" y="148.0"/>
      <point x="133" y="304" type="curve" smooth="yes"/>
      <point x="133.0" y="460.0"/>
      <point x="187" y="561"/>
      <point x="280" y="561" type="curve" smooth="yes"/>
      <point x="373" y="561"/>
      <point x="427.0" y="460.0"/>
      <point x="427" y="304" type="curve" smooth="yes"/>
      <point x="427.0" y="147.0"/>
      <point x="372.941935484" y="48.0"/>
    </contour>
  </outline>
</glyph>
<glyph name="one" format="2">
  <advance width="560"/>
  <unicode hex="0031"/>
  <outline>
    <contour>
      <point x="350" y="83" type="curve" smooth="yes"/>
      <point x="350" y="609" type="line"/>
      <point x="287" y="609" type="line"/>
      <point x="251" y="558"/>
      <point x="179" y="535"/>
      <point x="83" y="533" type="curve"/>
      <point x="83" y="473" type="line"/>
      <point x="172" y="471"/>
      <point x="255" y="502"/>
      <point x="274" y="548" type="curve"/>
      <point x="257" y="537" type="line"/>
      <point x="257" y="83" type="line" smooth="yes"/>
      <point x="257" y="54"/>
      <point x="217" y="47"/>
      <point x="152" y="47" type="curve" smooth="yes"/>
      <point x="100" y="47" type="line"/>
      <point x="100" y="0" type="line"/>
      <point x="507" y="0" type="line"/>
      <point x="507" y="47" type="line"/>
      <point x="465" y="47" type="line" smooth="yes"/>
      <point x="394" y="47"/>
      <point x="350" y="54"/>
    </contour>
  </outline>
</glyph>
<glyph name="three" format="2">
  <advance width="560"/>
  <unicode hex="0033"/>
  <outline>
    <contour>
      <point x="266" y="291" type="line"/>
      <point x="456" y="291"/>
      <point x="519" y="211"/>
      <point x="519" y="112" type="curve" smooth="yes"/>
      <point x="519" y="-7"/>
      <point x="416" y="-90"/>
      <point x="273" y="-90" type="curve" smooth="yes"/>
      <point x="145" y="-90"/>
      <point x="62" y="-22"/>
      <point x="23" y="70" type="curve"/>
      <point x="78" y="107" type="line"/>
      <point x="104" y="43"/>
      <point x="160" y="-30"/>
      <point x="273" y="-30" type="curve" smooth="yes"/>
      <point x="364" y="-30"/>
      <point x="425" y="21"/>
      <point x="425" y="112" type="curve" smooth="yes"/>
      <point x="425" y="199"/>
      <point x="377" y="255"/>
      <point x="251" y="255" type="curve" smooth="yes"/>
      <point x="179" y="255" type="line"/>
      <point x="179" y="312" type="line"/>
      <point x="239" y="312" type="line" smooth="yes"/>
      <point x="340" y="312"/>
      <point x="401" y="355"/>
      <point x="401" y="442" type="curve" smooth="yes"/>
      <point x="401" y="525"/>
      <point x="344" y="559"/>
      <point x="273" y="559" type="curve" smooth="yes"/>
      <point x="196" y="559"/>
      <point x="145" y="522"/>
      <point x="114" y="474" type="curve"/>
      <point x="117" y="512"/>
      <point x="132" y="534"/>
      <point x="156" y="538" type="curve"/>
      <point x="156" y="432" type="line"/>
      <point x="68" y="432" type="line"/>
      <point x="68" y="523" type="line"/>
      <point x="98" y="568"/>
      <point x="174" y="618"/>
      <point x="275" y="618" type="curve" smooth="yes"/>
      <point x="401" y="618"/>
      <point x="492" y="553"/>
      <point x="492" y="454" type="curve" smooth="yes"/>
      <point x="492" y="352"/>
      <point x="387" y="281"/>
      <point x="248" y="281" type="curve"/>
      <point x="283" y="300" type="line"/>
      <point x="283" y="273" type="line"/>
    </contour>
  </outline>
</glyph>
<glyph name="six" format="2">
  <advance width="560"/>
  <unicode hex="0036"/>
  <outline>
    <contour>
      <point x="451" y="680" type="line"/>
      <point x="260.050585383" y="646.706255913"/>
      <point x="131.0" y="496.0"/>
      <point x="131" y="295" type="curve" smooth="yes"/>
      <point x="131.0" y="121.0"/>
      <point x="197.107784431" y="50.0"/>
      <point x="291" y="50" type="curve" smooth="yes"/>
      <point x="375.281690141" y="50.0"/>
      <point x="427.0" y="122.0"/>
      <point x="427" y="229" type="curve" smooth="yes"/>
      <point x="427.0" y="328.0"/>
      <point x="386.984251968" y="393.0"/>
      <point x="306" y="393" type="curve" smooth="yes"/>
      <point x="218.25" y="393.0"/>
      <point x="156.036155864" y="328.078801241"/>
      <point x="117" y="243" type="curve"/>
      <point x="106" y="295" type="line"/>
      <point x="134.015530394" y="372.042708584"/>
      <point x="212.484018265" y="453.0"/>
      <point x="318" y="453" type="curve" smooth="yes"/>
      <point x="434.455399061" y="453.0"/>
      <point x="523" y="369"/>
      <point x="523" y="229" type="curve" smooth="yes"/>
      <point x="523" y="91"/>
      <point x="424.4" y="-10.0"/>
      <point x="291" y="-10" type="curve" smooth="yes"/>
      <point x="147.519083969" y="-10.0"/>
      <point x="37" y="92"/>
      <point x="37" y="295" type="curve" smooth="yes"/>
      <point x="37" y="513"/>
      <point x="199.659512431" y="701.73870319"/>
      <point x="441" y="740" type="curve"/>
    </contour>
  </outline>
</glyph>
<glyph name="eight" format="2">
  <advance width="560"/>
  <unicode hex="0038"/>
  <outline>
    <contour>
      <point x="280" y="50" type="curve" smooth="yes"/>
      <point x="192.0" y="50"/>
      <point x="135" y="109"/>
      <point x="135" y="197" type="curve" smooth="yes"/>
      <point x="135" y="292"/>
      <point x="192.0" y="347.0"/>
      <point x="280" y="347" type="curve" smooth="yes"/>
      <point x="368.0" y="347.0"/>
      <point x="425" y="292"/>
      <point x="425" y="197" type="curve" smooth="yes"/>
      <point x="425" y="109"/>
      <point x="368.0" y="50.0"/>
    </contour>
    <contour>
      <point x="280" y="405" type="curve" smooth="yes"/>
      <point x="210.0" y="405.0"/>
      <point x="165" y="455"/>
      <point x="165" y="533" type="curve" smooth="yes"/>
      <point x="165" y="610"/>
      <point x="210.0" y="660.0"/>
      <point x="280" y="660" type="curve" smooth="yes"/>
      <point x="350.0" y="660.0"/>
      <point x="395" y="610"/>
      <point x="395" y="533" type="curve" smooth="yes"/>
      <point x="395" y="455"/>
      <point x="350.0" y="405.0"/>
    </contour>
    <contour>
      <point x="280" y="720" type="curve" smooth="yes"/>
      <point x="161.0" y="720.0"/>
      <point x="75" y="647"/>
      <point x="75" y="543" type="curve" smooth="yes"/>
      <point x="75" y="454"/>
      <point x="135" y="392"/>
      <point x="224" y="374" type="curve"/>
      <point x="212" y="386" type="line"/>
      <point x="212" y="368" type="line"/>
      <point x="224" y="384" type="line"/>
      <point x="116" y="366"/>
      <point x="37" y="296"/>
      <point x="37" y="192" type="curve" smooth="yes"/>
      <point x="37" y="74"/>
      <point x="139" y="-10"/>
      <point x="280" y="-10" type="curve" smooth="yes"/>
      <point x="421.0" y="-10.0"/>
      <point x="523" y="74"/>
      <point x="523" y="192" type="curve" smooth="yes"/>
      <point x="523" y="296"/>
      <point x="444" y="366"/>
      <point x="336" y="384" type="curve"/>
      <point x="348" y="368" type="line"/>
      <point x="348" y="386" type="line"/>
      <point x="336" y="374" type="line"/>
      <point x="425" y="392"/>
      <point x="485" y="454"/>
      <point x="485" y="543" type="curve" smooth="yes"/>
      <point x="485" y="647"/>
      <point x="399" y="720"/>
    </contour>
  </outline>
</glyph>
<glyph name="nine" format="2">
  <advance width="560"/>
  <unicode hex="0039"/>
  <outline>
    <contour>
      <point x="91" y="-33" type="line"/>
      <point x="304.59506017" y="-19.2828860442"/>
      <point x="429" y="96"/>
      <point x="429" y="311" type="curve" smooth="yes"/>
      <point x="429" y="492"/>
      <point x="364" y="559"/>
      <point x="271" y="559" type="curve" smooth="yes"/>
      <point x="185" y="559"/>
      <point x="133.0" y="496.0"/>
      <point x="133" y="394" type="curve" smooth="yes"/>
      <point x="133.0" y="302.0"/>
      <point x="175" y="237"/>
      <point x="259" y="237" type="curve" smooth="yes"/>
      <point x="347" y="237"/>
      <point x="406.974377517" y="297.93452032"/>
      <point x="443" y="390" type="curve"/>
      <point x="454" y="338" type="line"/>
      <point x="428.990291962" y="253.967380993"/>
      <point x="352" y="177"/>
      <point x="247" y="177" type="curve" smooth="yes"/>
      <point x="128" y="177"/>
      <point x="37" y="261"/>
      <point x="37" y="394" type="curve" smooth="yes"/>
      <point x="37" y="527"/>
      <point x="134" y="619"/>
      <point x="271" y="619" type="curve" smooth="yes"/>
      <point x="415" y="619"/>
      <point x="523" y="521"/>
      <point x="523" y="311" type="curve" smooth="yes"/>
      <point x="523" y="78"/>
      <point x="365.017671147" y="-75.3333900348"/>
      <point x="101" y="-93" type="curve"/>
    </contour>
  </outline>
</glyph>
<glyph name="A" format="2">
  <advance width="699"/>
  <unicode hex="0041"/>
  <anchor x="349.0" y="721.0" name="top"/>
  <anchor x="349.0" y="0" name="bottom"/>
  <anchor x="553.0000000000001" y="0" name="right"/>
  <outline>
    <contour>
      <point x="186" y="300" type="line"/>
      <point x="180" y="244" type="line"/>
      <point x="488" y="244" type="line"/>
      <point x="487" y="300" type="line"/>
    </contour>
    <contour>
      <point x="322.0" y="672.0" type="line"/>
      <point x="534.0" y="57.0" type="line"/>
      <point x="534.0" y="50.0"/>
      <point x="486.0" y="47.0"/>
      <point x="448.0" y="47.0" type="curve" smooth="yes"/>
      <point x="431.0" y="47.0" type="line"/>
      <point x="431" y="0" type="line"/>
      <point x="691" y="0" type="line"/>
      <point x="691.0" y="47.0" type="line"/>
      <point x="686" y="47" type="line" smooth="yes"/>
      <point x="652" y="47"/>
      <point x="630.0" y="49.0"/>
      <point x="621.0" y="75.0" type="curve" smooth="yes"/>
      <point x="399.0" y="710.0" type="line"/>
      <point x="297.0" y="710.0" type="line"/>
      <point x="83.0" y="90.0" type="line" smooth="yes"/>
      <point x="70.0" y="53.0"/>
      <point x="50" y="47"/>
      <point x="13" y="47" type="curve" smooth="yes"/>
      <point x="8.0" y="47.0" type="line"/>
      <point x="8.0" y="0.0" type="line"/>
      <point x="239.0" y="0.0" type="line"/>
      <point x="239.0" y="47.0" type="line"/>
      <point x="224.0" y="47.0" type="line" smooth="yes"/>
      <point x="186.0" y="47.0"/>
      <point x="140.0" y="54.0"/>
      <point x="140.0" y="65.0" type="curve"/>
      <point x="338.0" y="642.0" type="line"/>
    </contour>
  </outline>
</glyph>
<glyph name="B" format="2">
  <advance width="669"/>
  <unicode hex="0042"/>
  <outline>
    <contour>
      <point x="585" y="640"/>
      <point x="499" y="710"/>
      <point x="346" y="710" type="curve" smooth="yes"/>
      <point x="45" y="710" type="line"/>
      <point x="45" y="663" type="line"/>
      <point x="56" y="663" type="line" smooth="yes"/>
      <point x="105" y="663"/>
      <point x="141" y="656"/>
      <point x="141" y="627" type="curve"/>
      <point x="141" y="83" type="line"/>
      <point x="141" y="54"/>
      <point x="105" y="47"/>
      <point x="56" y="47" type="curve" smooth="yes"/>
      <point x="45" y="47" type="line"/>
      <point x="45" y="0" type="line"/>
      <point x="356" y="0" type="line" smooth="yes"/>
      <point x="521" y="0"/>
      <point x="616" y="76"/>
      <point x="616" y="199" type="curve" smooth="yes"/>
      <point x="616" y="313"/>
      <point x="521" y="387"/>
      <point x="347" y="387" type="curve"/>
      <point x="418" y="351" type="line"/>
      <point x="418" y="399" type="line"/>
      <point x="338" y="361" type="line"/>
      <point x="500" y="361"/>
      <point x="585" y="429"/>
      <point x="585" y="530" type="curve" smooth="yes"/>
    </contour>
    <contour>
      <point x="214" y="400" type="line"/>
      <point x="214" y="344" type="line"/>
      <point x="354" y="344" type="line" smooth="yes"/>
      <point x="472" y="344"/>
      <point x="520" y="284"/>
      <point x="520" y="200" type="curve" smooth="yes"/>
      <point x="520" y="108"/>
      <point x="468" y="57"/>
      <point x="354" y="57" type="curve" smooth="yes"/>
      <point x="234" y="57" type="line"/>
      <point x="234" y="653" type="line"/>
      <point x="345" y="653" type="line" smooth="yes"/>
      <point x="447" y="653"/>
      <point x="491" y="608"/>
      <point x="491" y="529" type="curve" smooth="yes"/>
      <point x="491" y="452"/>
      <point x="452" y="400"/>
      <point x="346" y="400" type="curve" smooth="yes"/>
    </contour>
  </outline>
</glyph>
<glyph name="E" format="2">
  <advance width="641"/>
  <unicode hex="0045"/>
  <anchor x="379.0" y="741" name="top"/>
  <anchor x="379.0" y="0" name="bottom"/>
  <anchor x="443.0" y="0" name="right"/>
  <outline>
    <contour>
      <point x="581" y="217" type="line"/>
      <point x="524" y="217" type="line"/>
      <point x="515" y="102" type="line" smooth="yes"/>
      <point x="512" y="66"/>
      <point x="476" y="59"/>
      <point x="390" y="59" type="curve" smooth="yes"/>
      <point x="233" y="59" type="line"/>
      <point x="233" y="651" type="line"/>
      <point x="361" y="651" type="line" smooth="yes"/>
      <point x="447" y="651"/>
      <point x="482" y="644"/>
      <point x="486" y="608" type="curve" smooth="yes"/>
      <point x="495" y="518" type="line"/>
      <point x="551" y="518" type="line"/>
      <point x="551" y="710" type="line"/>
      <point x="45" y="710" type="line"/>
      <point x="45" y="663" type="line"/>
      <point x="56" y="663" type="line" smooth="yes"/>
      <point x="105" y="663"/>
      <point x="141" y="656"/>
      <point x="141" y="627" type="curve" smooth="yes"/>
      <point x="141" y="83" type="line" smooth="yes"/>
      <point x="141" y="54"/>
      <point x="105" y="47"/>
      <point x="56" y="47" type="curve" smooth="yes"/>
      <point x="45" y="47" type="line"/>
      <point x="45" y="0" type="line"/>
      <point x="581" y="0" type="line"/>
    </contour>
    <contour>
      <point x="203" y="390" type="curve"/>
      <point x="203" y="337" type="line"/>
      <point x="286" y="334"/>
      <point x="369" y="331"/>
      <point x="452" y="328" type="curve"/>
      <point x="452" y="398" type="line"/>
      <point x="369" y="395"/>
      <point x="286" y="393"/>
    </contour>
  </outline>
</glyph>
<glyph name="F" format="2">
  <advance width="600"/>
  <unicode hex="0046"/>
  <outline>
    <contour>
      <point x="233" y="651" type="line"/>
      <point x="367" y="651" type="line" smooth="yes"/>
      <point x="453" y="651"/>
      <point x="488" y="644"/>
      <point x="492" y="608" type="curve" smooth="yes"/>
      <point x="501" y="518" type="line"/>
      <point x="557" y="518" type="line"/>
      <point x="557" y="710" type="line"/>
      <point x="45" y="710" type="line"/>
      <point x="45" y="663" type="line"/>
      <point x="56" y="663" type="line" smooth="yes"/>
      <point x="105" y="663"/>
      <point x="141" y="656"/>
      <point x="141" y="627" type="curve" smooth="yes"/>
      <point x="141" y="83" type="line" smooth="yes"/>
      <point x="141" y="54"/>
      <point x="105" y="47"/>
      <point x="56" y="47" type="curve" smooth="yes"/>
      <point x="45" y="47" type="line"/>
      <point x="45" y="0" type="line"/>
      <point x="345" y="0" type="line"/>
      <point x="345" y="47" type="line"/>
      <point x="328" y="47" type="line" smooth="yes"/>
      <point x="285" y="47"/>
      <point x="233" y="48"/>
      <point x="233" y="83" type="curve" smooth="yes"/>
    </contour>
    <contour>
      <point x="203" y="383" type="curve"/>
      <point x="203" y="330" type="line"/>
      <point x="292" y="327"/>
      <point x="381" y="324"/>
      <point x="470" y="321" type="curve"/>
      <point x="470" y="391" type="line"/>
      <point x="381" y="388"/>
      <point x="292" y="386"/>
    </contour>
  </outline>
</glyph>
<glyph name="I" format="2">
  <advance width="375"/>
  <unicode hex="0049"/>
  <anchor x="188.0" y="741" name="top"/>
  <anchor x="188.0" y="0" name="bottom"/>
  <anchor x="247.00000000000003" y="0" name="right"/>
  <outline>
    <contour>
      <point x="141" y="83" type="line" smooth="yes"/>
      <point x="141" y="54"/>
      <point x="105" y="47"/>
      <point x="56" y="47" type="curve" smooth="yes"/>
      <point x="45" y="47" type="line"/>
      <point x="45" y="0" type="line"/>
      <point x="330" y="0" type="line"/>
      <point x="330" y="47" type="line"/>
      <point x="319" y="47" type="line" smooth="yes"/>
      <point x="270" y="47"/>
      <point x="234" y="54"/>
      <point x="234" y="83" type="curve" smooth="yes"/>
      <point x="234" y="627" type="line" smooth="yes"/>
      <point x="234" y="656"/>
      <point x="270" y="663"/>
      <point x="319" y="663" type="curve" smooth="yes"/>
      <point x="330" y="663" type="line"/>
      <point x="330" y="710" type="line"/>
      <point x="45" y="710" type="line"/>
      <point x="45" y="663" type="line"/>
      <point x="56" y="663" type="line" smooth="yes"/>
      <point x="105" y="663"/>
      <point x="141" y="656"/>
      <point x="141" y="627" type="curve" smooth="yes"/>
    </contour>
  </outline>
</glyph>
<glyph name="J" format="2">
  <advance width="565"/>
  <unicode hex="004A"/>
  <anchor x="380.0" y="741" name="top"/>
  <outline>
    <contour>
      <point x="231" y="710" type="line"/>
      <point x="231" y="663" type="line"/>
      <point x="252" y="663" type="line" smooth="yes"/>
      <point x="301" y="663"/>
      <point x="337" y="656"/>
      <point x="337" y="627" type="curve" smooth="yes"/>
      <point x="337" y="242" type="line" smooth="yes"/>
      <point x="337" y="90"/>
      <point x="291" y="50"/>
      <point x="210" y="50" type="curve" smooth="yes"/>
      <point x="156" y="50"/>
      <point x="123" y="74"/>
      <point x="105" y="103" type="curve"/>
      <point x="69" y="113"/>
      <point x="77" y="81"/>
      <point x="126" y="67" type="curve"/>
      <point x="126" y="164" type="line"/>
      <point x="33" y="164" type="line"/>
      <point x="33" y="60" type="line"/>
      <point x="67" y="23"/>
      <point x="129" y="-10"/>
      <point x="210" y="-10" type="curve" smooth="yes"/>
      <point x="343" y="-10"/>
      <point x="427" y="53"/>
      <point x="427" y="242" type="curve" smooth="yes"/>
      <point x="427" y="627" type="line" smooth="yes"/>
      <point x="427" y="656"/>
      <point x="463" y="663"/>
      <point x="512" y="663" type="curve" smooth="yes"/>
      <point x="523" y="663" type="line"/>
      <point x="523" y="710" type="line"/>
    </contour>
  </outline>
</glyph>
<glyph name="K" format="2">
  <advance width="728"/>
  <unicode hex="004B"/>
  <anchor x="374.99999999999994" y="741" name="top"/>
  <anchor x="374.99999999999994" y="0" name="bottom"/>
  <outline>
    <contour>
      <point x="45" y="0" type="line"/>
      <point x="330" y="0" type="line"/>
      <point x="330" y="47" type="line"/>
      <point x="321" y="47" type="line" smooth="yes"/>
      <point x="283" y="47"/>
      <point x="234" y="50"/>
      <point x="234" y="57" type="curve" smooth="yes"/>
      <point x="234" y="653" type="line" smooth="yes"/>
      <point x="234" y="660"/>
      <point x="283" y="663"/>
      <point x="321" y="663" type="curve" smooth="yes"/>
      <point x="330" y="663" type="line"/>
      <point x="330" y="710" type="line"/>
      <point x="45" y="710" type="line"/>
      <point x="45" y="663" type="line"/>
      <point x="56" y="663" type="line" smooth="yes"/>
      <point x="105" y="663"/>
      <point x="141" y="656"/>
      <point x="141" y="627" type="curve" smooth="yes"/>
      <point x="141" y="83" type="line" smooth="yes"/>
      <point x="141" y="54"/>
      <point x="105" y="47"/>
      <point x="56" y="47" type="curve" smooth="yes"/>
      <point x="45" y="47" type="line"/>
    </contour>
    <contour>
      <point x="423" y="0" type="line"/>
      <point x="713" y="0" type="line"/>
      <point x="713" y="47" type="line"/>
      <point x="702" y="47" type="line" smooth="yes"/>
      <point x="657" y="47"/>
      <point x="638" y="51"/>
      <point x="613" y="80" type="curve" smooth="yes"/>
      <point x="336" y="401" type="line"/>
      <point x="336" y="356" type="line"/>
      <point x="589" y="634" type="line" smooth="yes"/>
      <point x="610" y="657"/>
      <point x="632" y="663"/>
      <point x="668" y="663" type="curve" smooth="yes"/>
      <point x="684" y="663" type="line"/>
      <point x="684" y="710" type="line"/>
      <point x="438" y="710" type="line"/>
      <point x="438" y="663" type="line"/>
      <point x="447" y="663" type="line" smooth="yes"/>
      <point x="484" y="663"/>
      <point x="525" y="660"/>
      <point x="527" y="653" type="curve"/>
      <point x="266" y="364" type="line"/>
      <point x="266" y="347" type="line"/>
      <point x="516" y="57" type="line"/>
      <point x="516" y="50"/>
      <point x="469" y="47"/>
      <point x="432" y="47" type="curve" smooth="yes"/>
      <point x="423" y="47" type="line"/>
    </contour>
  </outline>
</glyph>
<glyph name="N" format="2">
  <advance width="800"/>
  <unicode hex="004E"/>
  <anchor x="409.0" y="741" name="top"/>
  <anchor x="409.0" y="0" name="bottom"/>
  <outline>
    <contour>
      <point x="45.0" y="0.0" type="line"/>
      <point x="312.0" y="0.0" type="line"/>
      <point x="312.0" y="47.0" type="line"/>
      <point x="298.0" y="47.0" type="line" smooth="yes"/>
      <point x="255.0" y="47.0"/>
      <point x="206.0" y="55.0"/>
      <point x="206.0" y="62.0" type="curve" smooth="yes"/>
      <point x="206.0" y="674.0" type="line"/>
      <point x="194.0" y="670.0" type="line"/>
      <point x="570.0" y="0.0" type="line"/>
      <point x="666.0" y="0.0" type="line"/>
      <point x="666.0" y="622.0" type="line" smooth="yes"/>
      <point x="666.0" y="651.0"/>
      <point x="702.0" y="663.0"/>
      <point x="751.0" y="663.0" type="curve" smooth="yes"/>
      <point x="763.0" y="663.0" type="line"/>
      <point x="763.0" y="710.0" type="line"/>
      <point x="496.0" y="710.0" type="line"/>
      <point x="496.0" y="663.0" type="line"/>
      <point x="510.0" y="663.0" type="line" smooth="yes"/>
      <point x="553.0" y="663.0"/>
      <point x="602.0" y="655.0"/>
      <point x="602.0" y="648.0" type="curve" smooth="yes"/>
      <point x="602.0" y="90.0" type="line"/>
      <point x="613" y="93" type="line"/>
      <point x="268.0" y="710.0" type="line"/>
      <point x="45.0" y="710.0" type="line"/>
      <point x="45.0" y="663.0" type="line"/>
      <point x="56.0" y="663.0" type="line" smooth="yes"/>
      <point x="105.0" y="663.0"/>
      <point x="141.0" y="656.0"/>
      <point x="141.0" y="627.0" type="curve" smooth="yes"/>
      <point x="141.0" y="88.0" type="line" smooth="yes"/>
      <point x="141.0" y="59.0"/>
      <point x="105.0" y="47.0"/>
      <point x="56.0" y="47.0" type="curve" smooth="yes"/>
      <point x="45.0" y="47.0" type="line"/>
    </contour>
  </outline>
</glyph>
<glyph name="O" format="2">
  <advance width="794"/>
  <unicode hex="004F"/>
  <anchor x="397.0" y="741" name="top"/>
  <anchor x="397.0" y="0" name="bottom"/>
  <anchor x="437.0" y="0" name="right"/>
  <outline>
    <contour>
      <point x="47" y="138.0"/>
      <point x="200.0" y="-10.0"/>
      <point x="397" y="-10" type="curve" smooth="yes"/>
      <point x="594" y="-10"/>
      <point x="747" y="138"/>
      <point x="747" y="355" type="curve" smooth="yes"/>
      <point x="747.0" y="572.0"/>
      <point x="594" y="720"/>
      <point x="397" y="720" type="curve" smooth="yes"/>
      <point x="200.0" y="720.0"/>
      <point x="47" y="572"/>
      <point x="47" y="355" type="curve" smooth="yes"/>
    </contour>
    <contour>
      <point x="647.0" y="168.0"/>
      <point x="542.0" y="50.0"/>
      <point x="397" y="50" type="curve" smooth="yes"/>
      <point x="252.0" y="50.0"/>
      <point x="147.0" y="168.0"/>
      <point x="147" y="355" type="curve" smooth="yes"/>
      <point x="147.0" y="542.0"/>
      <point x="252.0" y="660.0"/>
      <point x="397" y="660" type="curve" smooth="yes"/>
      <point x="542.0" y="660.0"/>
      <point x="647" y="542"/>
      <point x="647" y="355" type="curve" smooth="yes"/>
    </contour>
  </outline>
</glyph>
<glyph name="P" format="2">
  <advance width="646"/>
  <unicode hex="0050"/>
  <anchor x="319" y="741" name="top"/>
  <outline>
    <contour>
      <point x="236" y="57" type="line" smooth="yes"/>
      <point x="236" y="50"/>
      <point x="279" y="47"/>
      <point x="313" y="47" type="curve" smooth="yes"/>
      <point x="340" y="47" type="line"/>
      <point x="340" y="0" type="line"/>
      <point x="48" y="0" type="line"/>
      <point x="48" y="47" type="line"/>
      <point x="59" y="47" type="line" smooth="yes"/>
      <point x="108" y="47"/>
      <point x="144" y="54"/>
      <point x="144" y="83" type="curve" smooth="yes"/>
      <point x="144" y="627" type="line" smooth="yes"/>
      <point x="144" y="656"/>
      <point x="108" y="663"/>
      <point x="59" y="663" type="curve" smooth="yes"/>
      <point x="48" y="663" type="line"/>
      <point x="48" y="710" type="line"/>
      <point x="345" y="710" type="line" smooth="yes"/>
      <point x="511" y="710"/>
      <point x="608" y="628"/>
      <point x="608" y="501" type="curve" smooth="yes"/>
      <point x="608" y="373"/>
      <point x="506" y="283"/>
      <point x="340" y="283" type="curve" smooth="yes"/>
      <point x="206" y="283" type="line"/>
      <point x="206" y="340" type="line"/>
      <point x="338" y="340" type="line" smooth="yes"/>
      <point x="454" y="340"/>
      <point x="508" y="404"/>
      <point x="508" y="500" type="curve" smooth="yes"/>
      <point x="508" y="595"/>
      <point x="454" y="651"/>
      <point x="343" y="651" type="curve" smooth="yes"/>
      <point x="236" y="651" type="line"/>
    </contour>
  </outline>
</glyph>
<glyph name="Q" format="2">
  <advance width="794"/>
  <unicode hex="0051"/>
  <outline>
    <contour>
      <point x="359" y="3" type="line"/>
      <point x="353" y="-132"/>
      <point x="447" y="-184"/>
      <point x="576" y="-184" type="curve" smooth="yes"/>
      <point x="625" y="-184"/>
      <point x="672" y="-178"/>
      <point x="718" y="-168" type="curve"/>
      <point x="718" y="-78" type="line"/>
      <point x="667" y="-93"/>
      <point x="630" y="-106"/>
      <point x="563" y="-106" type="curve" smooth="yes"/>
      <point x="481" y="-106"/>
      <point x="423" y="-75"/>
      <point x="428" y="10" type="curve"/>
    </contour>
    <contour>
      <point x="397" y="-10" type="curve" smooth="yes"/>
      <point x="594" y="-10"/>
      <point x="747" y="138"/>
      <point x="747" y="355" type="curve" smooth="yes"/>
      <point x="747.0" y="572.0"/>
      <point x="594" y="720"/>
      <point x="397" y="720" type="curve" smooth="yes"/>
      <point x="200.0" y="720.0"/>
      <point x="47" y="572"/>
      <point x="47" y="355" type="curve" smooth="yes"/>
      <point x="47" y="138.0"/>
      <point x="200.0" y="-10.0"/>
    </contour>
    <contour>
      <point x="397" y="50" type="curve" smooth="yes"/>
      <point x="252" y="50"/>
      <point x="147.0" y="168.0"/>
      <point x="147" y="355" type="curve" smooth="yes"/>
      <point x="147.0" y="542.0"/>
      <point x="252" y="660"/>
      <point x="397" y="660" type="curve" smooth="yes"/>
      <point x="542.0" y="660.0"/>
      <point x="647" y="542"/>
      <point x="647" y="355" type="curve" smooth="yes"/>
      <point x="647.0" y="168.0"/>
      <point x="542.0" y="50.0"/>
    </contour>
  </outline>
</glyph>
<glyph name="R" format="2">
  <advance width="695"/>
  <unicode hex="0052"/>
  <anchor x="389.00000000000006" y="741" name="top"/>
  <anchor x="389.00000000000006" y="0" name="bottom"/>
  <outline>
    <contour>
      <point x="358" y="321" type="line"/>
      <point x="447" y="336" type="line"/>
      <point x="594" y="75" type="line" smooth="yes"/>
      <point x="607" y="52"/>
      <point x="630" y="47"/>
      <point x="663" y="47" type="curve" smooth="yes"/>
      <point x="672" y="47" type="line"/>
      <point x="672" y="0" type="line"/>
      <point x="526" y="0" type="line"/>
    </contour>
    <contour>
      <point x="233.0" y="57.0" type="line" smooth="yes"/>
      <point x="233.0" y="50.0"/>
      <point x="276.0" y="47.0"/>
      <point x="310.0" y="47.0" type="curve" smooth="yes"/>
      <point x="323.0" y="47.0" type="line"/>
      <point x="323.0" y="0.0" type="line"/>
      <point x="45.0" y="0.0" type="line"/>
      <point x="45.0" y="47.0" type="line"/>
      <point x="56.0" y="47.0" type="line" smooth="yes"/>
      <point x="105.0" y="47.0"/>
      <point x="141.0" y="54.0"/>
      <point x="141.0" y="83.0" type="curve" smooth="yes"/>
      <point x="141.0" y="627.0" type="line" smooth="yes"/>
      <point x="141.0" y="656.0"/>
      <point x="105.0" y="663.0"/>
      <point x="56.0" y="663.0" type="curve" smooth="yes"/>
      <point x="45.0" y="663.0" type="line"/>
      <point x="45.0" y="710.0" type="line"/>
      <point x="333.0" y="710.0" type="line" smooth="yes"/>
      <point x="494.0" y="710.0"/>
      <point x="591.0" y="628.0"/>
      <point x="591.0" y="506.0" type="curve" smooth="yes"/>
      <point x="591.0" y="408.0"/>
      <point x="527.0" y="337.0"/>
      <point x="420.0" y="311.0" type="curve" smooth="yes"/>
      <point x="392.0" y="305.0"/>
      <point x="361.0" y="301.0"/>
      <point x="327.0" y="301.0" type="curve" smooth="yes"/>
      <point x="213.0" y="301.0" type="line"/>
      <point x="213.0" y="357.0" type="line"/>
      <point x="327.0" y="357.0" type="line" smooth="yes"/>
      <point x="440.0" y="357.0"/>
      <point x="491.0" y="414.0"/>
      <point x="491.0" y="506.0" type="curve" smooth="yes"/>
      <point x="491.0" y="595.0"/>
      <point x="437.0" y="651.0"/>
      <point x="331.0" y="651.0" type="curve" smooth="yes"/>
      <point x="233.0" y="651.0" type="line"/>
    </contour>
  </outline>
</glyph>
<glyph name="T" format="2">
  <advance width="669"/>
  <unicode hex="0054"/>
  <anchor x="339.0" y="741" name="top"/>
  <anchor x="339.0" y="0" name="bottom"/>
  <outline>
    <contour>
      <point x="288" y="83" type="line" smooth="yes"/>
      <point x="288" y="54"/>
      <point x="252" y="47"/>
      <point x="203" y="47" type="curve" smooth="yes"/>
      <point x="187" y="47" type="line"/>
      <point x="187" y="0" type="line"/>
      <point x="482" y="0" type="line"/>
      <point x="482" y="47" type="line"/>
      <point x="466" y="47" type="line" smooth="yes"/>
      <point x="417" y="47"/>
      <point x="381" y="54"/>
      <point x="381" y="83" type="curve" smooth="yes"/>
      <point x="381" y="654" type="line"/>
      <point x="439" y="654" type="line" smooth="yes"/>
      <point x="525" y="654"/>
      <point x="561" y="647"/>
      <point x="564" y="611" type="curve" smooth="yes"/>
      <point x="573" y="513" type="line"/>
      <point x="629" y="513" type="line"/>
      <point x="629" y="710" type="line"/>
      <point x="40" y="710" type="line"/>
      <point x="40" y="513" type="line"/>
      <point x="96" y="513" type="line"/>
      <point x="105" y="611" type="line" smooth="yes"/>
      <point x="108" y="647"/>
      <point x="144" y="654"/>
      <point x="230" y="654" type="curve" smooth="yes"/>
      <point x="288" y="654" type="line"/>
    </contour>
  </outline>
</glyph>
<glyph name="U" format="2">
  <advance width="807"/>
  <unicode hex="0055"/>
  <anchor x="407.99999999999994" y="741" name="top"/>
  <anchor x="407.99999999999994" y="0" name="bottom"/>
  <anchor x="463.0" y="0" name="right"/>
  <outline>
    <contour>
      <point x="232" y="271" type="curve" smooth="yes"/>
      <point x="232" y="653" type="line" smooth="yes"/>
      <point x="232" y="660"/>
      <point x="281" y="663"/>
      <point x="319" y="663" type="curve" smooth="yes"/>
      <point x="328" y="663" type="line"/>
      <point x="328" y="710" type="line"/>
      <point x="43" y="710" type="line"/>
      <point x="43" y="663" type="line"/>
      <point x="54" y="663" type="line" smooth="yes"/>
      <point x="103" y="663"/>
      <point x="139" y="656"/>
      <point x="139" y="627" type="curve"/>
      <point x="139" y="271" type="line" smooth="yes"/>
      <point x="139" y="71"/>
      <point x="253" y="-10"/>
      <point x="408" y="-10" type="curve" smooth="yes"/>
      <point x="552" y="-10"/>
      <point x="668" y="70"/>
      <point x="668" y="271" type="curve" smooth="yes"/>
      <point x="668" y="617" type="line" smooth="yes"/>
      <point x="668" y="651"/>
      <point x="704" y="663"/>
      <point x="753" y="663" type="curve" smooth="yes"/>
      <point x="764" y="663" type="line"/>
      <point x="764" y="710" type="line"/>
      <point x="507" y="710" type="line"/>
      <point x="507" y="663" type="line"/>
      <point x="516" y="663" type="line" smooth="yes"/>
      <point x="554" y="663"/>
      <point x="603" y="655"/>
      <point x="603" y="641" type="curve" smooth="yes"/>
      <point x="603" y="271" type="line" smooth="yes"/>
      <point x="603" y="111"/>
      <point x="525" y="59"/>
      <point x="419" y="59" type="curve" smooth="yes"/>
      <point x="310" y="59"/>
      <point x="232" y="111"/>
    </contour>
  </outline>
</glyph>
<glyph name="V" format="2">
  <advance width="699"/>
  <unicode hex="0056"/>
  <anchor x="360" y="741" name="top"/>
  <outline>
    <contour>
      <point x="377" y="38" type="line"/>
      <point x="165" y="653" type="line"/>
      <point x="165" y="660"/>
      <point x="213" y="663"/>
      <point x="251" y="663" type="curve" smooth="yes"/>
      <point x="268" y="663" type="line"/>
      <point x="268" y="710" type="line"/>
      <point x="8" y="710" type="line"/>
      <point x="8" y="663" type="line"/>
      <point x="13" y="663" type="line"/>
      <point x="47" y="663"/>
      <point x="69" y="661"/>
      <point x="78" y="635" type="curve" smooth="yes"/>
      <point x="300" y="0" type="line"/>
      <point x="402" y="0" type="line"/>
      <point x="616" y="620" type="line" smooth="yes"/>
      <point x="629" y="657"/>
      <point x="649" y="663"/>
      <point x="686" y="663" type="curve"/>
      <point x="691" y="663" type="line"/>
      <point x="691" y="710" type="line"/>
      <point x="460" y="710" type="line"/>
      <point x="460" y="663" type="line"/>
      <point x="475" y="663" type="line" smooth="yes"/>
      <point x="513" y="663"/>
      <point x="559" y="656"/>
      <point x="559" y="645" type="curve"/>
      <point x="361" y="68" type="line"/>
    </contour>
  </outline>
</glyph>
<glyph name="W" format="2">
  <advance width="1013"/>
  <unicode hex="0057"/>
  <anchor x="520.0" y="741" name="top"/>
  <outline>
    <contour>
      <point x="8" y="710" type="line"/>
      <point x="8" y="663" type="line"/>
      <point x="13" y="663" type="line" smooth="yes"/>
      <point x="50" y="663"/>
      <point x="73" y="660"/>
      <point x="82" y="626" type="curve" smooth="yes"/>
      <point x="245" y="0" type="line"/>
      <point x="356" y="0" type="line"/>
      <point x="512" y="645" type="line"/>
      <point x="505" y="645" type="line"/>
      <point x="671" y="0" type="line"/>
      <point x="781" y="0" type="line"/>
      <point x="931" y="620" type="line" smooth="yes"/>
      <point x="939" y="654"/>
      <point x="965" y="663"/>
      <point x="1000" y="663" type="curve" smooth="yes"/>
      <point x="1005" y="663" type="line"/>
      <point x="1005" y="710" type="line"/>
      <point x="773" y="710" type="line"/>
      <point x="773" y="663" type="line"/>
      <point x="788" y="663" type="line" smooth="yes"/>
      <point x="826" y="663"/>
      <point x="872" y="656"/>
      <point x="872" y="645" type="curve"/>
      <point x="732" y="50" type="line"/>
      <point x="740" y="50" type="line"/>
      <point x="571" y="710" type="line"/>
      <point x="465" y="710" type="line"/>
      <point x="308" y="47" type="line"/>
      <point x="317" y="47" type="line"/>
      <point x="164" y="653" type="line"/>
      <point x="164" y="660"/>
      <point x="212" y="663"/>
      <point x="250" y="663" type="curve" smooth="yes"/>
      <point x="267" y="663" type="line"/>
      <point x="267" y="710" type="line"/>
    </contour>
  </outline>
</glyph>
<glyph name="Z" format="2">
  <advance width="622"/>
  <unicode hex="005A"/>
  <anchor x="329.0" y="741" name="top"/>
  <anchor x="329.0" y="0" name="bottom"/>
  <outline>
    <contour>
      <point x="132" y="644"/>
      <point x="168" y="651"/>
      <point x="254" y="651" type="curve" smooth="yes"/>
      <point x="506" y="651" type="line"/>
      <point x="487" y="679" type="line"/>
      <point x="48" y="67" type="line"/>
      <point x="48" y="0" type="line"/>
      <point x="569" y="0" type="line"/>
      <point x="569" y="212" type="line"/>
      <point x="511" y="212" type="line"/>
      <point x="502" y="102" type="line" smooth="yes"/>
      <point x="499" y="66"/>
      <point x="463" y="59"/>
      <point x="377" y="59" type="curve" smooth="yes"/>
      <point x="98" y="59" type="line"/>
      <point x="112" y="19" type="line"/>
      <point x="563" y="646" type="line"/>
      <point x="563" y="710" type="line"/>
      <point x="64" y="710" type="line"/>
      <point x="64" y="513" type="line"/>
      <point x="120" y="513" type="line"/>
      <point x="129" y="608" type="line" smooth="yes"/>
    </contour>
  </outline>
</glyph>
<glyph name="asciicircum" format="2">
  <advance width="502"/>
  <unicode hex="005E"/>
  <outline>
    <contour>
      <point x="114" y="364" type="line"/>
      <point x="256" y="685" type="line"/>
      <point x="260" y="710" type="line"/>
      <point x="209" y="710" type="line"/>
      <point x="50" y="364" type="line"/>
    </contour>
    <contour>
      <point x="384" y="364" type="line"/>
      <point x="452" y="364" type="line"/>
      <point x="293" y="710" type="line"/>
      <point x="239" y="710" type="line"/>
      <point x="241" y="686" type="line"/>
    </contour>
  </outline>
</glyph>
<glyph name="a" format="2">
  <advance width="542"/>
  <unicode hex="0061"/>
  <anchor x="251.0" y="508" name="top"/>
  <anchor x="279.0" y="0" name="bottom"/>
  <anchor x="407" y="0.0" name="right"/>
  <outline>
    <contour>
      <point x="385" y="308" type="line"/>
      <point x="166" y="283"/>
      <point x="53" y="234"/>
      <point x="53" y="124" type="curve" smooth="yes"/>
      <point x="53" y="41"/>
      <point x="124" y="-10"/>
      <point x="210" y="-10" type="curve" smooth="yes"/>
      <point x="293" y="-10"/>
      <point x="352" y="38"/>
      <point x="383" y="112" type="curve"/>
      <point x="383" y="183" type="line"/>
      <point x="350" y="98"/>
      <point x="304" y="45"/>
      <point x="234" y="45" type="curve" smooth="yes"/>
      <point x="181" y="45"/>
      <point x="146" y="76"/>
      <point x="146" y="125" type="curve" smooth="yes"/>
      <point x="146" y="203"/>
      <point x="218" y="240"/>
      <point x="385" y="258" type="curve"/>
    </contour>
    <contour>
      <point x="368" y="0" type="line"/>
      <point x="529" y="0" type="line"/>
      <point x="529" y="45" type="line"/>
      <point x="529" y="45" type="line"/>
      <point x="481" y="45"/>
      <point x="446" y="52"/>
      <point x="446" y="81" type="curve" smooth="yes"/>
      <point x="446" y="359" type="line" smooth="yes"/>
      <point x="446" y="478"/>
      <point x="357" y="518"/>
      <point x="265" y="518" type="curve" smooth="yes"/>
      <point x="178" y="518"/>
      <point x="113" y="482"/>
      <point x="84" y="458" type="curve"/>
      <point x="84" y="355" type="line"/>
      <point x="171" y="355" type="line"/>
      <point x="171" y="458" type="line"/>
      <point x="145" y="446"/>
      <point x="123" y="427"/>
      <point x="128" y="394" type="curve"/>
      <point x="153" y="430"/>
      <point x="193" y="461"/>
      <point x="259" y="461" type="curve" smooth="yes"/>
      <point x="322" y="461"/>
      <point x="358" y="434"/>
      <point x="358" y="350" type="curve" smooth="yes"/>
      <point x="358" y="110" type="line"/>
      <point x="368" y="107" type="line"/>
    </contour>
  </outline>
</glyph>
<glyph name="b" format="2">
  <advance width="645"/>
  <unicode hex="0062"/>
  <outline>
    <contour>
      <point x="360.0" y="-10.0" type="curve" smooth="yes"/>
      <point x="503.0" y="-10.0"/>
      <point x="599.0" y="99.0"/>
      <point x="599.0" y="257.0" type="curve" smooth="yes"/>
      <point x="599.0" y="414.0"/>
      <point x="506.0" y="518.0"/>
      <point x="368.0" y="518.0" type="curve" smooth="yes"/>
      <point x="284.0" y="518.0"/>
      <point x="234.0" y="479.0"/>
      <point x="180.0" y="399.0" type="curve"/>
      <point x="180.0" y="316.0" type="line"/>
      <point x="225.0" y="411.0"/>
      <point x="283.0" y="461.0"/>
      <point x="362.0" y="461.0" type="curve" smooth="yes"/>
      <point x="454.0" y="461.0"/>
      <point x="505.0" y="382.0"/>
      <point x="505.0" y="257.0" type="curve" smooth="yes"/>
      <point x="505.0" y="131.0"/>
      <point x="454.0" y="47.0"/>
      <point x="358.0" y="47.0" type="curve" smooth="yes"/>
      <point x="283.0" y="47.0"/>
      <point x="226.0" y="91.0"/>
      <point x="180.0" y="184.0" type="curve"/>
      <point x="180.0" y="97.0" type="line"/>
      <point x="230.0" y="23.0"/>
      <point x="281.0" y="-10.0"/>
    </contour>
    <contour>
      <point x="108" y="642" type="curve" smooth="yes"/>
      <point x="108" y="-3" type="line"/>
      <point x="168" y="-3" type="line"/>
      <point x="187" y="106" type="line"/>
      <point x="197" y="121" type="line"/>
      <point x="197" y="735" type="line"/>
      <point x="23" y="735" type="line"/>
      <point x="23" y="689" type="line"/>
      <point x="34" y="687" type="line" smooth="yes"/>
      <point x="85" y="678"/>
      <point x="108" y="671"/>
    </contour>
  </outline>
</glyph>
<glyph name="d" format="2">
  <advance width="641"/>
  <unicode hex="0064"/>
  <anchor x="299.0000000000001" y="0" name="bottom"/>
  <anchor x="607.0" y="735.0" name="right"/>
  <outline>
    <contour>
      <point x="537" y="81" type="curve"/>
      <point x="537" y="735" type="line"/>
      <point x="361" y="735" type="line"/>
      <point x="361" y="689" type="line"/>
      <point x="372" y="687" type="line" smooth="yes"/>
      <point x="424" y="678"/>
      <point x="448" y="671"/>
      <point x="448" y="642" type="curve" smooth="yes"/>
      <point x="448" y="115" type="line"/>
      <point x="456" y="112" type="line"/>
      <point x="456" y="0" type="line"/>
      <point x="621" y="0" type="line"/>
      <point x="621" y="45" type="line"/>
      <point x="620" y="45" type="line"/>
      <point x="572" y="45"/>
      <point x="537" y="52"/>
    </contour>
    <contour>
      <point x="286.0" y="518.0" type="curve" smooth="yes"/>
      <point x="143.0" y="518.0"/>
      <point x="46.0" y="409.0"/>
      <point x="46.0" y="250.0" type="curve" smooth="yes"/>
      <point x="46.0" y="94.0"/>
      <point x="140.0" y="-10.0"/>
      <point x="280.0" y="-10.0" type="curve" smooth="yes"/>
      <point x="362.0" y="-10.0"/>
      <point x="413.0" y="28.0"/>
      <point x="465.0" y="107.0" type="curve"/>
      <point x="465.0" y="191.0" type="line"/>
      <point x="421.0" y="97.0"/>
      <point x="365.0" y="47.0"/>
      <point x="286.0" y="47.0" type="curve" smooth="yes"/>
      <point x="192.0" y="47.0"/>
      <point x="140.0" y="126.0"/>
      <point x="140.0" y="250.0" type="curve" smooth="yes"/>
      <point x="140.0" y="378.0"/>
      <point x="192.0" y="461.0"/>
      <point x="289.0" y="461.0" type="curve" smooth="yes"/>
      <point x="365.0" y="461.0"/>
      <point x="422.0" y="418.0"/>
      <point x="465.0" y="322.0" type="curve"/>
      <point x="465.0" y="412.0" type="line"/>
      <point x="416.0" y="486.0"/>
      <point x="366.0" y="518.0"/>
    </contour>
  </outline>
</glyph>
<glyph name="f" format="2">
  <advance width="386"/>
  <unicode hex="0066"/>
  <anchor x="289" y="755" name="top"/>
  <outline>
    <contour>
      <point x="38" y="508" type="line"/>
      <point x="38" y="451" type="line"/>
      <point x="377" y="451" type="line"/>
      <point x="377" y="508" type="line"/>
    </contour>
    <contour>
      <point x="410" y="742" type="line"/>
      <point x="392" y="748"/>
      <point x="360" y="752"/>
      <point x="331" y="752" type="curve" smooth="yes"/>
      <point x="237" y="752"/>
      <point x="142" y="710"/>
      <point x="142" y="571" type="curve" smooth="yes"/>
      <point x="142" y="81" type="line" smooth="yes"/>
      <point x="142" y="52"/>
      <point x="109" y="45"/>
      <point x="54" y="45" type="curve" smooth="yes"/>
      <point x="43" y="45" type="line"/>
      <point x="43" y="0" type="line"/>
      <point x="339" y="0" type="line"/>
      <point x="339" y="45" type="line"/>
      <point x="326" y="45" type="line" smooth="yes"/>
      <point x="272" y="45"/>
      <point x="231" y="48"/>
      <point x="231" y="55" type="curve" smooth="yes"/>
      <point x="231" y="571" type="line" smooth="yes"/>
      <point x="231" y="673"/>
      <point x="273" y="696"/>
      <point x="330" y="696" type="curve" smooth="yes"/>
      <point x="361" y="696"/>
      <point x="389" y="687"/>
      <point x="410" y="679" type="curve"/>
    </contour>
  </outline>
</glyph>
<glyph name="g" format="2">
  <advance width="568"/>
  <unicode hex="0067"/>
  <anchor x="271.0" y="508" name="top"/>
  <outline>
    <contour>
      <point x="563" y="437" type="curve"/>
      <point x="563" y="529" type="line"/>
      <point x="489" y="538"/>
      <point x="427" y="503"/>
      <point x="390" y="427" type="curve"/>
      <point x="403" y="412" type="line"/>
      <point x="428" y="445"/>
      <point x="475" y="444"/>
    </contour>
    <contour>
      <point x="271" y="151" type="curve" smooth="yes"/>
      <point x="387" y="151"/>
      <point x="473" y="222"/>
      <point x="473" y="333" type="curve" smooth="yes"/>
      <point x="473" y="443"/>
      <point x="386" y="518"/>
      <point x="271" y="518" type="curve" smooth="yes"/>
      <point x="156" y="518"/>
      <point x="70" y="443"/>
      <point x="70" y="333" type="curve" smooth="yes"/>
      <point x="70" y="222"/>
      <point x="155" y="151"/>
    </contour>
    <contour>
      <point x="271" y="209" type="curve" smooth="yes"/>
      <point x="202" y="209"/>
      <point x="158" y="253"/>
      <point x="158" y="333" type="curve" smooth="yes"/>
      <point x="158" y="413"/>
      <point x="203" y="460"/>
      <point x="271" y="460" type="curve" smooth="yes"/>
      <point x="340" y="460"/>
      <point x="385" y="413"/>
      <point x="385" y="333" type="curve" smooth="yes"/>
      <point x="385" y="253"/>
      <point x="340" y="209"/>
    </contour>
    <contour>
      <point x="256" y="-236" type="curve" smooth="yes"/>
      <point x="293" y="-236" type="line" smooth="yes"/>
      <point x="430" y="-236"/>
      <point x="550" y="-181"/>
      <point x="550" y="-63" type="curve" smooth="yes"/>
      <point x="550" y="21"/>
      <point x="486" y="61"/>
      <point x="367" y="61" type="curve" smooth="yes"/>
      <point x="217" y="61" type="line" smooth="yes"/>
      <point x="164" y="61"/>
      <point x="134" y="73"/>
      <point x="134" y="101" type="curve" smooth="yes"/>
      <point x="134" y="128"/>
      <point x="158" y="151"/>
      <point x="199" y="171" type="curve"/>
      <point x="161" y="198" type="line"/>
      <point x="88" y="164"/>
      <point x="52" y="123"/>
      <point x="52" y="76" type="curve" smooth="yes"/>
      <point x="52" y="38"/>
      <point x="72" y="8"/>
      <point x="137" y="-25" type="curve"/>
      <point x="141" y="-25" type="line"/>
      <point x="365" y="-25" type="line" smooth="yes"/>
      <point x="443" y="-25"/>
      <point x="467" y="-40"/>
      <point x="467" y="-79" type="curve" smooth="yes"/>
      <point x="467" y="-135"/>
      <point x="393" y="-176"/>
      <point x="292" y="-176" type="curve" smooth="yes"/>
      <point x="257" y="-176" type="line" smooth="yes"/>
      <point x="147" y="-176"/>
      <point x="97" y="-149"/>
      <point x="97" y="-101" type="curve" smooth="yes"/>
      <point x="97" y="-67"/>
      <point x="118" y="-39"/>
      <point x="169" y="-14" type="curve"/>
      <point x="132" y="12" type="line"/>
      <point x="54" y="-24"/>
      <point x="18" y="-57"/>
      <point x="18" y="-105" type="curve" smooth="yes"/>
      <point x="18" y="-202"/>
      <point x="122" y="-236"/>
    </contour>
  </outline>
</glyph>
<glyph name="h" format="2">
  <advance width="646"/>
  <unicode hex="0068"/>
  <anchor x="338.99999999999994" y="755" name="top"/>
  <anchor x="329.0" y="0" name="bottom"/>
  <outline>
    <contour>
      <point x="212" y="735" type="line"/>
      <point x="38" y="735" type="line"/>
      <point x="38" y="689" type="line"/>
      <point x="49" y="687" type="line" smooth="yes"/>
      <point x="100" y="678"/>
      <point x="123" y="671"/>
      <point x="123" y="642" type="curve" smooth="yes"/>
      <point x="123" y="81" type="line" smooth="yes"/>
      <point x="123" y="52"/>
      <point x="88" y="45"/>
      <point x="40" y="45" type="curve"/>
      <point x="38" y="45" type="line"/>
      <point x="38" y="0" type="line"/>
      <point x="287" y="0" type="line"/>
      <point x="287" y="45" type="line"/>
      <point x="284" y="45" type="line" smooth="yes"/>
      <point x="256" y="45"/>
      <point x="212" y="48"/>
      <point x="212" y="55" type="curve" smooth="yes"/>
    </contour>
    <contour>
      <point x="623.0" y="0.0" type="line"/>
      <point x="623.0" y="45.0" type="line"/>
      <point x="621.0" y="45.0" type="line" smooth="yes"/>
      <point x="574.0" y="45.0"/>
      <point x="539.0" y="52.0"/>
      <point x="539.0" y="81.0" type="curve" smooth="yes"/>
      <point x="539.0" y="357.0" type="line" smooth="yes"/>
      <point x="539.0" y="468.0"/>
      <point x="475.0" y="518.0"/>
      <point x="379.0" y="518.0" type="curve" smooth="yes"/>
      <point x="301.0" y="518.0"/>
      <point x="249.0" y="482.0"/>
      <point x="195.0" y="409.0" type="curve"/>
      <point x="195.0" y="341.0" type="line"/>
      <point x="242.0" y="415.0"/>
      <point x="297.0" y="455.0"/>
      <point x="365.0" y="455.0" type="curve" smooth="yes"/>
      <point x="429.0" y="455.0"/>
      <point x="450.0" y="421.0"/>
      <point x="450.0" y="346.0" type="curve" smooth="yes"/>
      <point x="450.0" y="55.0" type="line" smooth="yes"/>
      <point x="450.0" y="48.0"/>
      <point x="405.0" y="45.0"/>
      <point x="377.0" y="45.0" type="curve" smooth="yes"/>
      <point x="375.0" y="45.0" type="line"/>
      <point x="375.0" y="0.0" type="line"/>
    </contour>
  </outline>
</glyph>
<glyph name="l" format="2">
  <advance width="309"/>
  <unicode hex="006C"/>
  <anchor x="162.0" y="746" name="top"/>
  <anchor x="165.0" y="0" name="bottom"/>
  <anchor x="269.00000000000006" y="735" name="right"/>
  <anchor x="325.0" y="391.0" name="mid"/>
  <outline>
    <contour>
      <point x="207" y="735" type="line"/>
      <point x="33" y="735" type="line"/>
      <point x="33" y="689" type="line"/>
      <point x="44" y="687" type="line" smooth="yes"/>
      <point x="95" y="678"/>
      <point x="118" y="671"/>
      <point x="118" y="642" type="curve" smooth="yes"/>
      <point x="118" y="81" type="line" smooth="yes"/>
      <point x="118" y="52"/>
      <point x="84" y="45"/>
      <point x="36" y="45" type="curve"/>
      <point x="34" y="45" type="line"/>
      <point x="34" y="0" type="line"/>
      <point x="291" y="0" type="line"/>
      <point x="291" y="45" type="line"/>
      <point x="289" y="45" type="line"/>
      <point x="241" y="45"/>
      <point x="207" y="52"/>
      <point x="207" y="81" type="curve" smooth="yes"/>
    </contour>
  </outline>
</glyph>
<glyph name="m" format="2">
  <advance width="912"/>
  <unicode hex="006D"/>
  <anchor x="461.99999999999994" y="-10.0" name="bottom"/>
  <outline>
    <contour>
      <point x="38" y="0" type="line"/>
      <point x="281" y="0" type="line"/>
      <point x="281" y="45" type="line"/>
      <point x="279" y="45" type="line" smooth="yes"/>
      <point x="252" y="45"/>
      <point x="211" y="48"/>
      <point x="211" y="55" type="curve" smooth="yes"/>
      <point x="211" y="392" type="line"/>
      <point x="201" y="404" type="line"/>
      <point x="201" y="508" type="line"/>
      <point x="38" y="508" type="line"/>
      <point x="38" y="462" type="line"/>
      <point x="48" y="460" type="line" smooth="yes"/>
      <point x="98" y="450"/>
      <point x="122" y="444"/>
      <point x="122" y="415" type="curve" smooth="yes"/>
      <point x="122" y="81" type="line" smooth="yes"/>
      <point x="122" y="52"/>
      <point x="88" y="45"/>
      <point x="40" y="45" type="curve" smooth="yes"/>
      <point x="38" y="45" type="line"/>
    </contour>
    <contour>
      <point x="578.0" y="0.0" type="line"/>
      <point x="578.0" y="45.0" type="line"/>
      <point x="577.0" y="45.0" type="line"/>
      <point x="549.0" y="45.0"/>
      <point x="507.0" y="48.0"/>
      <point x="507.0" y="55.0" type="curve" smooth="yes"/>
      <point x="507.0" y="357.0" type="line" smooth="yes"/>
      <point x="507.0" y="468.0"/>
      <point x="449.0" y="518.0"/>
      <point x="363.0" y="518.0" type="curve" smooth="yes"/>
      <point x="290.0" y="518.0"/>
      <point x="244.0" y="482.0"/>
      <point x="194.0" y="411.0" type="curve"/>
      <point x="194.0" y="341.0" type="line"/>
      <point x="239.0" y="414.0"/>
      <point x="286.0" y="455.0"/>
      <point x="348.0" y="455.0" type="curve" smooth="yes"/>
      <point x="401.0" y="455.0"/>
      <point x="418.0" y="421.0"/>
      <point x="418.0" y="345.0" type="curve" smooth="yes"/>
      <point x="418.0" y="55.0" type="line" smooth="yes"/>
      <point x="418.0" y="48.0"/>
      <point x="377.0" y="45.0"/>
      <point x="349.0" y="45.0" type="curve" smooth="yes"/>
      <point x="347.0" y="45.0" type="line"/>
      <point x="347.0" y="0.0" type="line"/>
    </contour>
    <contour>
      <point x="889.0" y="0.0" type="line"/>
      <point x="889.0" y="45.0" type="line"/>
      <point x="886.0" y="45.0" type="line" smooth="yes"/>
      <point x="838.0" y="45.0"/>
      <point x="803.0" y="52.0"/>
      <point x="803.0" y="81.0" type="curve" smooth="yes"/>
      <point x="803.0" y="357.0" type="line" smooth="yes"/>
      <point x="803.0" y="468.0"/>
      <point x="744.0" y="518.0"/>
      <point x="659.0" y="518.0" type="curve" smooth="yes"/>
      <point x="586.0" y="518.0"/>
      <point x="540.0" y="482.0"/>
      <point x="490.0" y="411.0" type="curve"/>
      <point x="490.0" y="341.0" type="line"/>
      <point x="535.0" y="414.0"/>
      <point x="583.0" y="455.0"/>
      <point x="644.0" y="455.0" type="curve" smooth="yes"/>
      <point x="697.0" y="455.0"/>
      <point x="714.0" y="421.0"/>
      <point x="714.0" y="345.0" type="curve" smooth="yes"/>
      <point x="714.0" y="55.0" type="line" smooth="yes"/>
      <point x="714.0" y="49.0"/>
      <point x="674.0" y="45.0"/>
      <point x="647.0" y="45.0" type="curve" smooth="yes"/>
      <point x="644.0" y="45.0" type="line"/>
      <point x="644.0" y="0.0" type="line"/>
    </contour>
  </outline>
</glyph>
<glyph name="n" format="2">
  <advance width="645"/>
  <unicode hex="006E"/>
  <anchor x="320.00000000000006" y="508" name="top"/>
  <anchor x="328.0" y="0" name="bottom"/>
  <outline>
    <contour>
      <point x="38" y="0" type="line"/>
      <point x="286" y="0" type="line"/>
      <point x="286" y="45" type="line"/>
      <point x="283" y="45" type="line" smooth="yes"/>
      <point x="255" y="45"/>
      <point x="211" y="48"/>
      <point x="211" y="55" type="curve" smooth="yes"/>
      <point x="211" y="391" type="line"/>
      <point x="202" y="402" type="line"/>
      <point x="202" y="508" type="line"/>
      <point x="38" y="508" type="line"/>
      <point x="38" y="462" type="line"/>
      <point x="48" y="460" type="line" smooth="yes"/>
      <point x="98" y="450"/>
      <point x="122" y="444"/>
      <point x="122" y="415" type="curve" smooth="yes"/>
      <point x="122" y="81" type="line" smooth="yes"/>
      <point x="122" y="52"/>
      <point x="88" y="45"/>
      <point x="40" y="45" type="curve" smooth="yes"/>
      <point x="38" y="45" type="line"/>
    </contour>
    <contour>
      <point x="622.0" y="0.0" type="line"/>
      <point x="622.0" y="45.0" type="line"/>
      <point x="620.0" y="45.0" type="line" smooth="yes"/>
      <point x="572.0" y="45.0"/>
      <point x="538.0" y="52.0"/>
      <point x="538.0" y="81.0" type="curve" smooth="yes"/>
      <point x="538.0" y="357.0" type="line" smooth="yes"/>
      <point x="538.0" y="468.0"/>
      <point x="474.0" y="518.0"/>
      <point x="379.0" y="518.0" type="curve" smooth="yes"/>
      <point x="300.0" y="518.0"/>
      <point x="248.0" y="482.0"/>
      <point x="194.0" y="408.0" type="curve"/>
      <point x="194.0" y="340.0" type="line"/>
      <point x="241.0" y="415.0"/>
      <point x="297.0" y="455.0"/>
      <point x="364.0" y="455.0" type="curve" smooth="yes"/>
      <point x="428.0" y="455.0"/>
      <point x="449.0" y="421.0"/>
      <point x="449.0" y="346.0" type="curve" smooth="yes"/>
      <point x="449.0" y="55.0" type="line" smooth="yes"/>
      <point x="449.0" y="48.0"/>
      <point x="404.0" y="45.0"/>
      <point x="376.0" y="45.0" type="curve" smooth="yes"/>
      <point x="374.0" y="45.0" type="line"/>
      <point x="374.0" y="0.0" type="line"/>
    </contour>
  </outline>
</glyph>
<glyph name="o" format="2">
  <advance width="614"/>
  <unicode hex="006F"/>
  <anchor x="307.0" y="508" name="top"/>
  <anchor x="307.0" y="0" name="bottom"/>
  <anchor x="411.0" y="0" name="right"/>
  <outline>
    <contour>
      <point x="568" y="254" type="curve" smooth="yes"/>
      <point x="568" y="409"/>
      <point x="459" y="518"/>
      <point x="307" y="518" type="curve" smooth="yes"/>
      <point x="155" y="518"/>
      <point x="46" y="409"/>
      <point x="46" y="254" type="curve" smooth="yes"/>
      <point x="46" y="99"/>
      <point x="155" y="-10"/>
      <point x="307" y="-10" type="curve" smooth="yes"/>
      <point x="459" y="-10"/>
      <point x="568" y="99"/>
    </contour>
    <contour>
      <point x="140" y="254" type="curve" smooth="yes"/>
      <point x="140" y="379"/>
      <point x="204" y="461"/>
      <point x="307" y="461" type="curve" smooth="yes"/>
      <point x="410" y="461"/>
      <point x="474" y="379"/>
      <point x="474" y="254" type="curve" smooth="yes"/>
      <point x="474" y="129"/>
      <point x="410" y="47"/>
      <point x="307" y="47" type="curve" smooth="yes"/>
      <point x="204" y="47"/>
      <point x="140" y="129"/>
    </contour>
  </outline>
</glyph>
<glyph name="p" format="2">
  <advance width="654"/>
  <unicode hex="0070"/>
  <outline>
    <contour>
      <point x="308" y="-223" type="line"/>
      <point x="308" y="-178" type="line"/>
      <point x="279" y="-178" type="line" smooth="yes"/>
      <point x="253" y="-178"/>
      <point x="206" y="-175"/>
      <point x="206" y="-168" type="curve" smooth="yes"/>
      <point x="206" y="370" type="line"/>
      <point x="197" y="382" type="line"/>
      <point x="197" y="508" type="line"/>
      <point x="33" y="508" type="line"/>
      <point x="33" y="462" type="line"/>
      <point x="43" y="460" type="line" smooth="yes"/>
      <point x="93" y="450"/>
      <point x="117" y="444"/>
      <point x="117" y="415" type="curve" smooth="yes"/>
      <point x="117" y="-142" type="line" smooth="yes"/>
      <point x="117" y="-171"/>
      <point x="83" y="-178"/>
      <point x="35" y="-178" type="curve"/>
      <point x="33" y="-178" type="line"/>
      <point x="33" y="-223" type="line"/>
    </contour>
    <contour>
      <point x="369.0" y="-10.0" type="curve" smooth="yes"/>
      <point x="513.0" y="-10.0"/>
      <point x="608.0" y="99.0"/>
      <point x="608.0" y="257.0" type="curve" smooth="yes"/>
      <point x="608.0" y="414.0"/>
      <point x="516.0" y="518.0"/>
      <point x="376.0" y="518.0" type="curve" smooth="yes"/>
      <point x="294.0" y="518.0"/>
      <point x="242.0" y="480.0"/>
      <point x="189.0" y="401.0" type="curve"/>
      <point x="189.0" y="316.0" type="line"/>
      <point x="234.0" y="410.0"/>
      <point x="292.0" y="461.0"/>
      <point x="370.0" y="461.0" type="curve" smooth="yes"/>
      <point x="464.0" y="461.0"/>
      <point x="514.0" y="382.0"/>
      <point x="514.0" y="257.0" type="curve" smooth="yes"/>
      <point x="514.0" y="131.0"/>
      <point x="463.0" y="47.0"/>
      <point x="366.0" y="47.0" type="curve" smooth="yes"/>
      <point x="291.0" y="47.0"/>
      <point x="234.0" y="93.0"/>
      <point x="189.0" y="185.0" type="curve"/>
      <point x="189.0" y="97.0" type="line"/>
      <point x="239.0" y="23.0"/>
      <point x="289.0" y="-10.0"/>
    </contour>
  </outline>
</glyph>
<glyph name="q" format="2">
  <advance width="636"/>
  <unicode hex="0071"/>
  <outline>
    <contour>
      <point x="346" y="-223" type="line"/>
      <point x="621" y="-223" type="line"/>
      <point x="621" y="-178" type="line"/>
      <point x="619" y="-178" type="line"/>
      <point x="571" y="-178"/>
      <point x="537" y="-171"/>
      <point x="537" y="-142" type="curve" smooth="yes"/>
      <point x="537" y="511" type="line"/>
      <point x="475" y="511" type="line"/>
      <point x="456" y="403" type="line"/>
      <point x="448" y="385" type="line"/>
      <point x="448" y="-168" type="line" smooth="yes"/>
      <point x="448" y="-175"/>
      <point x="401" y="-178"/>
      <point x="375" y="-178" type="curve" smooth="yes"/>
      <point x="346" y="-178" type="line"/>
    </contour>
    <contour>
      <point x="417.0" y="486.0"/>
      <point x="366.0" y="518.0"/>
      <point x="286.0" y="518.0" type="curve" smooth="yes"/>
      <point x="143.0" y="518.0"/>
      <point x="46.0" y="409.0"/>
      <point x="46.0" y="250.0" type="curve" smooth="yes"/>
      <point x="46.0" y="94.0"/>
      <point x="140.0" y="-10.0"/>
      <point x="280.0" y="-10.0" type="curve" smooth="yes"/>
      <point x="363.0" y="-10.0"/>
      <point x="413.0" y="27.0"/>
      <point x="465.0" y="106.0" type="curve"/>
      <point x="465.0" y="191.0" type="line"/>
      <point x="421.0" y="98.0"/>
      <point x="365.0" y="47.0"/>
      <point x="286.0" y="47.0" type="curve" smooth="yes"/>
      <point x="193.0" y="47.0"/>
      <point x="140.0" y="127.0"/>
      <point x="140.0" y="250.0" type="curve" smooth="yes"/>
      <point x="140.0" y="378.0"/>
      <point x="193.0" y="461.0"/>
      <point x="289.0" y="461.0" type="curve" smooth="yes"/>
      <point x="365.0" y="461.0"/>
      <point x="422.0" y="417.0"/>
      <point x="465.0" y="324.0" type="curve"/>
      <point x="465.0" y="413.0" type="line"/>
    </contour>
  </outline>
</glyph>
<glyph name="r" format="2">
  <advance width="411"/>
  <unicode hex="0072"/>
  <anchor x="222.0" y="508" name="top"/>
  <anchor x="169.0" y="0" name="bottom"/>
  <outline>
    <contour>
      <point x="388" y="515" type="line"/>
      <point x="381" y="517"/>
      <point x="367" y="518"/>
      <point x="354" y="518" type="curve" smooth="yes"/>
      <point x="276" y="518"/>
      <point x="223" y="460"/>
      <point x="194" y="377" type="curve"/>
      <point x="194" y="311" type="line"/>
      <point x="233" y="396"/>
      <point x="260" y="434"/>
      <point x="333" y="434" type="curve" smooth="yes"/>
      <point x="351" y="434"/>
      <point x="373" y="431"/>
      <point x="388" y="426" type="curve"/>
    </contour>
    <contour>
      <point x="38" y="0" type="line"/>
      <point x="310" y="0" type="line"/>
      <point x="310" y="45" type="line"/>
      <point x="293" y="45" type="line" smooth="yes"/>
      <point x="265" y="45"/>
      <point x="211" y="48"/>
      <point x="211" y="80" type="curve" smooth="yes"/>
      <point x="211" y="370" type="line"/>
      <point x="202" y="361" type="line"/>
      <point x="202" y="508" type="line"/>
      <point x="38" y="508" type="line"/>
      <point x="38" y="462" type="line"/>
      <point x="48" y="460" type="line" smooth="yes"/>
      <point x="98" y="450"/>
      <point x="122" y="444"/>
      <point x="122" y="415" type="curve" smooth="yes"/>
      <point x="122" y="81" type="line" smooth="yes"/>
      <point x="122" y="52"/>
      <point x="88" y="45"/>
      <point x="40" y="45" type="curve" smooth="yes"/>
      <point x="38" y="45" type="line"/>
    </contour>
  </outline>
</glyph>
<glyph name="s" format="2">
  <advance width="475"/>
  <unicode hex="0073"/>
  <anchor x="239.00000000000003" y="508" name="top"/>
  <anchor x="242.0" y="0" name="bottom"/>
  <outline>
    <contour>
      <point x="358" y="132" type="curve" smooth="yes"/>
      <point x="358" y="77"/>
      <point x="313" y="47"/>
      <point x="241" y="47" type="curve" smooth="yes"/>
      <point x="175" y="47"/>
      <point x="123" y="65"/>
      <point x="89" y="107" type="curve"/>
      <point x="81" y="81"/>
      <point x="81" y="57"/>
      <point x="121" y="33" type="curve"/>
      <point x="121" y="160" type="line"/>
      <point x="33" y="160" type="line"/>
      <point x="33" y="45" type="line"/>
      <point x="80" y="15"/>
      <point x="146" y="-10"/>
      <point x="242" y="-10" type="curve" smooth="yes"/>
      <point x="367" y="-10"/>
      <point x="442" y="55"/>
      <point x="442" y="142" type="curve" smooth="yes"/>
      <point x="442" y="243"/>
      <point x="355" y="269"/>
      <point x="274" y="289" type="curve" smooth="yes"/>
      <point x="203" y="307"/>
      <point x="136" y="321"/>
      <point x="136" y="381" type="curve" smooth="yes"/>
      <point x="136" y="427"/>
      <point x="170" y="461"/>
      <point x="240" y="461" type="curve" smooth="yes"/>
      <point x="293" y="461"/>
      <point x="337" y="444"/>
      <point x="359" y="410" type="curve"/>
      <point x="367" y="439"/>
      <point x="354" y="460"/>
      <point x="326" y="459" type="curve"/>
      <point x="326" y="365" type="line"/>
      <point x="412" y="365" type="line"/>
      <point x="412" y="474" type="line"/>
      <point x="389" y="492"/>
      <point x="332" y="518"/>
      <point x="240" y="518" type="curve" smooth="yes"/>
      <point x="122" y="518"/>
      <point x="54" y="458"/>
      <point x="54" y="370" type="curve" smooth="yes"/>
      <point x="54" y="266"/>
      <point x="144" y="240"/>
      <point x="226" y="219" type="curve" smooth="yes"/>
      <point x="295" y="202"/>
      <point x="358" y="189"/>
    </contour>
  </outline>
</glyph>
<glyph name="u" format="2">
  <advance width="624"/>
  <unicode hex="0075"/>
  <anchor x="292.0000000000001" y="508" name="top"/>
  <anchor x="289.00000000000006" y="0" name="bottom"/>
  <anchor x="454.9999999999999" y="0" name="right"/>
  <outline>
    <contour>
      <point x="195" y="508" type="line"/>
      <point x="20" y="508" type="line"/>
      <point x="20" y="462" type="line"/>
      <point x="32" y="460" type="line" smooth="yes"/>
      <point x="83" y="452"/>
      <point x="106" y="444"/>
      <point x="106" y="415" type="curve" smooth="yes"/>
      <point x="106" y="151" type="line" smooth="yes"/>
      <point x="106" y="40"/>
      <point x="171" y="-10"/>
      <point x="265" y="-10" type="curve" smooth="yes"/>
      <point x="342" y="-10"/>
      <point x="394" y="25"/>
      <point x="446" y="97" type="curve"/>
      <point x="446" y="166" type="line"/>
      <point x="400" y="92"/>
      <point x="345" y="53"/>
      <point x="280" y="53" type="curve" smooth="yes"/>
      <point x="216" y="53"/>
      <point x="195" y="87"/>
      <point x="195" y="163" type="curve" smooth="yes"/>
    </contour>
    <contour>
      <point x="518" y="508" type="line"/>
      <point x="331" y="508" type="line"/>
      <point x="331" y="462" type="line"/>
      <point x="353" y="459" type="line" smooth="yes"/>
      <point x="405" y="452"/>
      <point x="429" y="444"/>
      <point x="429" y="415" type="curve" smooth="yes"/>
      <point x="429" y="117" type="line"/>
      <point x="438" y="104" type="line"/>
      <point x="438" y="0" type="line"/>
      <point x="604" y="0" type="line"/>
      <point x="604" y="45" type="line"/>
      <point x="601" y="45" type="line" smooth="yes"/>
      <point x="553" y="45"/>
      <point x="518" y="52"/>
      <point x="518" y="81" type="curve" smooth="yes"/>
    </contour>
  </outline>
</glyph>
<glyph name="v" format="2">
  <advance width="579"/>
  <unicode hex="0076"/>
  <outline>
    <contour>
      <point x="445.0" y="442.0" type="curve"/>
      <point x="300.0" y="55.0" type="line"/>
      <point x="310" y="57" type="line"/>
      <point x="160.0" y="454.0" type="line"/>
      <point x="160.0" y="461.0"/>
      <point x="205.0" y="463.0"/>
      <point x="248.0" y="463.0" type="curve" smooth="yes"/>
      <point x="250.0" y="463.0" type="line"/>
      <point x="250.0" y="508.0" type="line"/>
      <point x="5.0" y="508.0" type="line"/>
      <point x="5.0" y="463.0" type="line"/>
      <point x="7.0" y="463.0" type="line" smooth="yes"/>
      <point x="45.0" y="463.0"/>
      <point x="69.0" y="456.0"/>
      <point x="80.0" y="429.0" type="curve" smooth="yes"/>
      <point x="246.0" y="0.0" type="line"/>
      <point x="338.0" y="0.0" type="line"/>
      <point x="499.0" y="421.0" type="line" smooth="yes"/>
      <point x="512.0" y="455.0"/>
      <point x="542.0" y="463.0"/>
      <point x="572.0" y="463.0" type="curve"/>
      <point x="574.0" y="463.0" type="line"/>
      <point x="574.0" y="508.0" type="line"/>
      <point x="360.0" y="508.0" type="line"/>
      <point x="360.0" y="463.0" type="line"/>
      <point x="362.0" y="463.0" type="line" smooth="yes"/>
      <point x="402.0" y="463.0"/>
      <point x="443.0" y="454.0"/>
    </contour>
  </outline>
</glyph>
<glyph name="y" format="2">
  <advance width="591"/>
  <unicode hex="0079"/>
  <anchor x="299.0" y="508" name="top"/>
  <anchor x="308.0" y="-211" name="bottom"/>
  <outline>
    <contour>
      <point x="332" y="45" type="line"/>
      <point x="165" y="454" type="line"/>
      <point x="165" y="461"/>
      <point x="213" y="463"/>
      <point x="253" y="463" type="curve" smooth="yes"/>
      <point x="255" y="463" type="line"/>
      <point x="255" y="508" type="line"/>
      <point x="5" y="508" type="line"/>
      <point x="5" y="463" type="line"/>
      <point x="6" y="463" type="line"/>
      <point x="46" y="463"/>
      <point x="70" y="456"/>
      <point x="82" y="428" type="curve" smooth="yes"/>
      <point x="269" y="-14" type="line"/>
      <point x="320" y="8" type="line"/>
    </contour>
    <contour>
      <point x="342" y="17" type="curve" smooth="yes"/>
      <point x="510" y="418" type="line" smooth="yes"/>
      <point x="526" y="455"/>
      <point x="555.0" y="463.0"/>
      <point x="585" y="463" type="curve" smooth="yes"/>
      <point x="586" y="463" type="line"/>
      <point x="586" y="508" type="line"/>
      <point x="368" y="508" type="line"/>
      <point x="368" y="463" type="line"/>
      <point x="371" y="463" type="line" smooth="yes"/>
      <point x="411" y="463"/>
      <point x="453" y="454"/>
      <point x="453" y="441" type="curve"/>
      <point x="301" y="72" type="line"/>
      <point x="294" y="54" type="line" smooth="yes"/>
      <point x="225" y="-123"/>
      <point x="161" y="-152"/>
      <point x="101" y="-152" type="curve" smooth="yes"/>
      <point x="67" y="-152"/>
      <point x="39" y="-136"/>
      <point x="33" y="-134" type="curve"/>
      <point x="33" y="-214" type="line"/>
      <point x="47" y="-224"/>
      <point x="68" y="-232"/>
      <point x="102" y="-232" type="curve" smooth="yes"/>
      <point x="202" y="-232"/>
      <point x="270" y="-155"/>
    </contour>
  </outline>
</glyph>
<glyph name="braceleft" format="2">
  <advance width="342"/>
  <unicode hex="007B"/>
  <outline>
    <contour>
      <point x="248" y="227" type="curve" smooth="yes"/>
      <point x="248" y="265"/>
      <point x="225" y="283"/>
      <point x="111" y="299" type="curve"/>
      <point x="111" y="304" type="line"/>
      <point x="225" y="320"/>
      <point x="248" y="338"/>
      <point x="248" y="376" type="curve" smooth="yes"/>
      <point x="248" y="422"/>
      <point x="162" y="522"/>
      <point x="162" y="599" type="curve" smooth="yes"/>
      <point x="162" y="674"/>
      <point x="216" y="703"/>
      <point x="322" y="701" type="curve"/>
      <point x="308" y="749" type="line"/>
      <point x="184" y="756"/>
      <point x="71" y="723"/>
      <point x="71" y="609" type="curve" smooth="yes"/>
      <point x="71" y="525"/>
      <point x="159" y="415"/>
      <point x="191" y="351" type="curve"/>
      <point x="204" y="370" type="line"/>
      <point x="50" y="322" type="line"/>
      <point x="50" y="281" type="line"/>
      <point x="204" y="233" type="line"/>
      <point x="191" y="252" type="line"/>
      <point x="159" y="188"/>
      <point x="71" y="78"/>
      <point x="71" y="-6" type="curve" smooth="yes"/>
      <point x="71" y="-120"/>
      <point x="184" y="-153"/>
      <point x="308" y="-146" type="curve"/>
      <point x="322" y="-98" type="line"/>
      <point x="216" y="-100"/>
      <point x="162" y="-71"/>
      <point x="162" y="4" type="curve" smooth="yes"/>
      <point x="162" y="81"/>
      <point x="248" y="181"/>
    </contour>
  </outline>
</glyph>
<glyph name="asciitilde" format="2">
  <advance width="538"/>
  <unicode hex="007E"/>
  <outline>
    <contour>
      <point x="343" y="269" type="curve"/>
      <point x="417" y="269"/>
      <point x="455" y="320"/>
      <point x="478" y="397" type="curve"/>
      <point x="422" y="413" type="line"/>
      <point x="408" y="378"/>
      <point x="395" y="349"/>
      <point x="356" y="349" type="curve" smooth="yes"/>
      <point x="299" y="349"/>
      <point x="264" y="405"/>
      <point x="186" y="405" type="curve" smooth="yes"/>
      <point x="113" y="405"/>
      <point x="78" y="358"/>
      <point x="60" y="277" type="curve"/>
      <point x="117" y="262" type="line"/>
      <point x="128" y="299"/>
      <point x="139" y="326"/>
      <point x="176" y="326" type="curve" smooth="yes"/>
      <point x="227" y="326"/>
      <point x="270" y="269"/>
    </contour>
  </outline>
</glyph>
<glyph name="cent" format="2">
  <advance width="560"/>
  <unicode hex="00A2"/>
  <outline>
    <contour>
      <point x="311" y="48" type="curve" smooth="yes"/>
      <point x="206" y="48"/>
      <point x="130" y="129"/>
      <point x="130" y="248" type="curve" smooth="yes"/>
      <point x="130" y="375"/>
      <point x="197" y="460"/>
      <point x="308" y="460" type="curve"/>
      <point x="385" y="460"/>
      <point x="442" y="419"/>
      <point x="466" y="386" type="curve"/>
      <point x="474" y="408"/>
      <point x="458" y="441"/>
      <point x="431" y="439" type="curve"/>
      <point x="431" y="329" type="line"/>
      <point x="515" y="329" type="line"/>
      <point x="515" y="447" type="line"/>
      <point x="489" y="470"/>
      <point x="415" y="518"/>
      <point x="308" y="518" type="curve"/>
      <point x="146" y="518"/>
      <point x="38" y="404"/>
      <point x="38" y="248" type="curve" smooth="yes"/>
      <point x="38" y="98"/>
      <point x="156" y="-10"/>
      <point x="308" y="-10" type="curve" smooth="yes"/>
      <point x="417" y="-10"/>
      <point x="481" y="45"/>
      <point x="522" y="112" type="curve"/>
      <point x="475" y="152" type="line"/>
      <point x="443" y="106"/>
      <point x="402" y="48"/>
    </contour>
    <contour>
      <point x="272" y="623" type="line"/>
      <point x="272" y="486" type="line"/>
      <point x="272" y="474" type="line"/>
      <point x="272" y="28" type="line"/>
      <point x="272" y="11" type="line"/>
      <point x="272" y="-126" type="line"/>
      <point x="332" y="-126" type="line"/>
      <point x="332" y="20" type="line"/>
      <point x="332" y="33" type="line"/>
      <point x="332" y="476" type="line"/>
      <point x="332" y="495" type="line"/>
      <point x="332" y="623" type="line"/>
    </contour>
  </outline>
</glyph>
<glyph name="currency" format="2">
  <advance width="560"/>
  <unicode hex="00A4"/>
  <outline>
    <contour>
      <point x="407" y="373" type="curve" smooth="yes"/>
      <point x="407.0" y="292.043478261"/>
      <point x="357.0" y="240.0"/>
      <point x="280" y="240" type="curve" smooth="yes"/>
      <point x="203.0" y="240.0"/>
      <point x="153.0" y="293.007246377"/>
      <point x="153" y="373" type="curve" smooth="yes"/>
      <point x="153.0" y="453.978417266"/>
      <point x="203.0" y="507.0"/>
      <point x="280" y="507" type="curve" smooth="yes"/>
      <point x="357.0" y="507.0"/>
      <point x="407.0" y="453.978417266"/>
    </contour>
    <contour>
      <point x="73" y="373" type="curve" smooth="yes"/>
      <point x="73.0" y="254.908653846"/>
      <point x="166.0" y="170.0"/>
      <point x="280" y="170" type="curve" smooth="yes"/>
      <point x="394.0" y="170.0"/>
      <point x="487.0" y="254.908653846"/>
      <point x="487" y="373" type="curve" smooth="yes"/>
      <point x="487.0" y="492.081339713"/>
      <point x="394.0" y="577.0"/>
      <point x="280" y="577" type="curve" smooth="yes"/>
      <point x="166.0" y="577.0"/>
      <point x="73.0" y="492.081339713"/>
    </contour>
    <contour>
      <point x="22" y="583" type="line"/>
      <point x="125" y="480" type="line"/>
      <point x="183" y="524" type="line"/>
      <point x="73" y="634" type="line"/>
    </contour>
    <contour>
      <point x="538" y="583" type="line"/>
      <point x="487" y="634" type="line"/>
      <point x="377" y="524" type="line"/>
      <point x="435" y="480" type="line"/>
    </contour>
    <contour>
      <point x="22" y="163" type="line"/>
      <point x="73" y="112" type="line"/>
      <point x="183" y="222" type="line"/>
      <point x="125" y="266" type="line"/>
    </contour>
    <contour>
      <point x="538" y="163" type="line"/>
      <point x="435" y="266" type="line"/>
      <point x="377" y="222" type="line"/>
      <point x="487" y="112" type="line"/>
    </contour>
  </outline>
</glyph>
<glyph name="yen" format="2">
  <advance width="560"/>
  <unicode hex="00A5"/>
  <outline>
    <contour>
      <point x="65" y="354" type="line"/>
      <point x="65" y="302" type="line"/>
      <point x="498" y="302" type="line"/>
      <point x="498" y="354" type="line"/>
    </contour>
    <contour>
      <point x="65" y="224" type="line"/>
      <point x="65" y="172" type="line"/>
      <point x="498" y="172" type="line"/>
      <point x="498" y="224" type="line"/>
    </contour>
    <contour>
      <point x="236" y="363" type="line"/>
      <point x="236" y="83" type="line" smooth="yes"/>
      <point x="236" y="54"/>
      <point x="200" y="47"/>
      <point x="151" y="47" type="curve" smooth="yes"/>
      <point x="134" y="47" type="line"/>
      <point x="134" y="0" type="line"/>
      <point x="429" y="0" type="line"/>
      <point x="429" y="47" type="line"/>
      <point x="412" y="47" type="line" smooth="yes"/>
      <point x="363" y="47"/>
      <point x="327" y="54"/>
      <point x="327" y="83" type="curve" smooth="yes"/>
      <point x="327" y="363" type="line"/>
    </contour>
    <contour>
      <point x="306" y="318" type="line"/>
      <point x="473" y="622" type="line" smooth="yes"/>
      <point x="493" y="659"/>
      <point x="520" y="663"/>
      <point x="550" y="663" type="curve" smooth="yes"/>
      <point x="555" y="663" type="line"/>
      <point x="555" y="710" type="line"/>
      <point x="332" y="710" type="line"/>
      <point x="332" y="663" type="line"/>
      <point x="347" y="663" type="line" smooth="yes"/>
      <point x="381" y="663"/>
      <point x="421" y="656"/>
      <point x="421" y="645" type="curve"/>
      <point x="274" y="362" type="line"/>
      <point x="319" y="362" type="line"/>
      <point x="158" y="653" type="line"/>
      <point x="158" y="660"/>
      <point x="200" y="663"/>
      <point x="232" y="663" type="curve" smooth="yes"/>
      <point x="249" y="663" type="line"/>
      <point x="249" y="710" type="line"/>
      <point x="5" y="710" type="line"/>
      <point x="5" y="663" type="line"/>
      <point x="10" y="663" type="line" smooth="yes"/>
      <point x="40" y="663"/>
      <point x="64" y="662"/>
      <point x="78" y="637" type="curve" smooth="yes"/>
      <point x="258" y="318" type="line"/>
    </contour>
  </outline>
</glyph>
<glyph name="section" format="2">
  <advance width="644"/>
  <unicode hex="00A7"/>
  <outline>
    <contour>
      <point x="289" y="430" type="line"/>
      <point x="156" y="433"/>
      <point x="47" y="388"/>
      <point x="47" y="282" type="curve" smooth="yes"/>
      <point x="47" y="175"/>
      <point x="156" y="127"/>
      <point x="261" y="81" type="curve" smooth="yes"/>
      <point x="358" y="39"/>
      <point x="446" y="13"/>
      <point x="446" y="-76" type="curve" smooth="yes"/>
      <point x="446" y="-138"/>
      <point x="396" y="-178"/>
      <point x="306" y="-178" type="curve" smooth="yes"/>
      <point x="225" y="-178"/>
      <point x="171" y="-153"/>
      <point x="133" y="-101" type="curve"/>
      <point x="124" y="-100"/>
      <point x="147" y="-148"/>
      <point x="177" y="-172" type="curve"/>
      <point x="177" y="-38" type="line"/>
      <point x="82" y="-38" type="line"/>
      <point x="82" y="-166" type="line"/>
      <point x="127" y="-202"/>
      <point x="199" y="-236"/>
      <point x="308" y="-236" type="curve" smooth="yes"/>
      <point x="433" y="-236"/>
      <point x="529" y="-165"/>
      <point x="529" y="-60" type="curve" smooth="yes"/>
      <point x="529" y="55"/>
      <point x="423" y="107"/>
      <point x="317" y="153" type="curve" smooth="yes"/>
      <point x="219" y="196"/>
      <point x="130" y="224"/>
      <point x="130" y="294" type="curve" smooth="yes"/>
      <point x="130" y="358"/>
      <point x="194" y="383"/>
      <point x="302" y="395" type="curve"/>
    </contour>
    <contour>
      <point x="396" y="61" type="line"/>
      <point x="520" y="81"/>
      <point x="592" y="128"/>
      <point x="592" y="223" type="curve" smooth="yes"/>
      <point x="592" y="335"/>
      <point x="482" y="374"/>
      <point x="373" y="421" type="curve" smooth="yes"/>
      <point x="280" y="461"/>
      <point x="195" y="489"/>
      <point x="195" y="566" type="curve" smooth="yes"/>
      <point x="195" y="621"/>
      <point x="240" y="663"/>
      <point x="334" y="663" type="curve" smooth="yes"/>
      <point x="407" y="663"/>
      <point x="457" y="630"/>
      <point x="483" y="584" type="curve"/>
      <point x="489" y="614"/>
      <point x="462" y="643"/>
      <point x="434" y="645" type="curve"/>
      <point x="434" y="544" type="line"/>
      <point x="524" y="544" type="line"/>
      <point x="524" y="657" type="line"/>
      <point x="498" y="683"/>
      <point x="430" y="720"/>
      <point x="332" y="720" type="curve" smooth="yes"/>
      <point x="203" y="720"/>
      <point x="112" y="654"/>
      <point x="112" y="558" type="curve" smooth="yes"/>
      <point x="112" y="445"/>
      <point x="217" y="393"/>
      <point x="317" y="349" type="curve" smooth="yes"/>
      <point x="417" y="306"/>
      <point x="509" y="274"/>
      <point x="509" y="207" type="curve" smooth="yes"/>
      <point x="509" y="154"/>
      <point x="463" y="131"/>
      <point x="384" y="108" type="curve"/>
    </contour>
  </outline>
</glyph>
<glyph name="degree" format="2">
  <advance width="486"/>
  <unicode hex="00B0"/>
  <outline>
    <contour>
      <point x="351" y="549" type="curve" smooth="yes"/>
      <point x="351" y="482"/>
      <point x="307" y="436"/>
      <point x="243" y="436" type="curve" smooth="yes"/>
      <point x="179" y="436"/>
      <point x="135" y="482"/>
      <point x="135" y="549" type="curve" smooth="yes"/>
      <point x="135" y="616"/>
      <point x="179" y="662"/>
      <point x="243" y="662" type="curve" smooth="yes"/>
      <point x="307" y="662"/>
      <point x="351" y="616"/>
    </contour>
    <contour>
      <point x="55" y="549" type="curve" smooth="yes"/>
      <point x="55" y="442"/>
      <point x="138" y="369"/>
      <point x="243" y="369" type="curve" smooth="yes"/>
      <point x="348" y="369"/>
      <point x="431" y="442"/>
      <point x="431" y="549" type="curve" smooth="yes"/>
      <point x="431" y="656"/>
      <point x="348" y="729"/>
      <point x="243" y="729" type="curve" smooth="yes"/>
      <point x="138" y="729"/>
      <point x="55" y="656"/>
    </contour>
  </outline>
</glyph>
<glyph name="AE" format="2">
  <advance width="987"/>
  <unicode hex="00C6"/>
  <anchor x="609.0" y="741" name="top"/>
  <outline>
    <contour>
      <point x="260" y="300" type="line"/>
      <point x="228" y="244" type="line"/>
      <point x="507" y="244" type="line"/>
      <point x="507" y="300" type="line"/>
    </contour>
    <contour>
      <point x="549" y="389" type="curve"/>
      <point x="549" y="337" type="line"/>
      <point x="632" y="334"/>
      <point x="715" y="332"/>
      <point x="798" y="329" type="curve"/>
      <point x="798" y="397" type="line"/>
      <point x="715" y="394"/>
      <point x="632" y="392"/>
    </contour>
    <contour>
      <point x="391" y="0" type="line"/>
      <point x="927" y="0" type="line"/>
      <point x="927" y="217" type="line"/>
      <point x="870" y="217" type="line"/>
      <point x="861" y="102" type="line" smooth="yes"/>
      <point x="858" y="66"/>
      <point x="822" y="59"/>
      <point x="736" y="59" type="curve" smooth="yes"/>
      <point x="579" y="59" type="line"/>
      <point x="579" y="651" type="line"/>
      <point x="707" y="651" type="line" smooth="yes"/>
      <point x="793" y="651"/>
      <point x="828" y="644"/>
      <point x="832" y="608" type="curve" smooth="yes"/>
      <point x="841" y="518" type="line"/>
      <point x="897" y="518" type="line"/>
      <point x="897" y="710" type="line"/>
      <point x="300" y="710" type="line"/>
      <point x="300" y="663" type="line"/>
      <point x="311" y="663" type="line" smooth="yes"/>
      <point x="360" y="663"/>
      <point x="409" y="656"/>
      <point x="409" y="633" type="curve"/>
      <point x="85" y="90" type="line" smooth="yes"/>
      <point x="64" y="55"/>
      <point x="52" y="47"/>
      <point x="15" y="47" type="curve" smooth="yes"/>
      <point x="10" y="47" type="line"/>
      <point x="10" y="0" type="line"/>
      <point x="242" y="0" type="line"/>
      <point x="242" y="47" type="line"/>
      <point x="227" y="47" type="line" smooth="yes"/>
      <point x="189" y="47"/>
      <point x="143" y="54"/>
      <point x="143" y="65" type="curve"/>
      <point x="487" y="654" type="line"/>
      <point x="487" y="654" type="line"/>
      <point x="487" y="57" type="line"/>
      <point x="487" y="50"/>
      <point x="438" y="47"/>
      <point x="400" y="47" type="curve" smooth="yes"/>
      <point x="391" y="47" type="line"/>
    </contour>
  </outline>
</glyph>
<glyph name="multiply" format="2">
  <advance width="560"/>
  <unicode hex="00D7"/>
  <outline>
    <contour>
      <point x="87" y="194" type="line"/>
      <point x="134" y="147" type="line"/>
      <point x="472" y="487" type="line"/>
      <point x="426" y="534" type="line"/>
    </contour>
    <contour>
      <point x="88" y="487" type="line"/>
      <point x="427" y="147" type="line"/>
      <point x="473" y="194" type="line"/>
      <point x="135" y="534" type="line"/>
    </contour>
  </outline>
</glyph>
<glyph name="germandbls" format="2">
  <advance width="624"/>
  <unicode hex="00DF"/>
  <outline>
    <contour>
      <point x="38" y="508" type="line"/>
      <point x="38" y="451" type="line"/>
      <point x="177" y="451" type="line"/>
      <point x="177" y="508" type="line"/>
    </contour>
    <contour>
      <point x="307" y="415" type="line"/>
      <point x="418" y="426"/>
      <point x="524" y="506"/>
      <point x="524" y="604" type="curve" smooth="yes"/>
      <point x="524" y="689"/>
      <point x="454" y="752"/>
      <point x="338" y="752" type="curve" smooth="yes"/>
      <point x="243" y="752"/>
      <point x="142" y="710"/>
      <point x="142" y="571" type="curve" smooth="yes"/>
      <point x="142" y="81" type="line" smooth="yes"/>
      <point x="142" y="52"/>
      <point x="109" y="45"/>
      <point x="54" y="45" type="curve" smooth="yes"/>
      <point x="43" y="45" type="line"/>
      <point x="43" y="0" type="line"/>
      <point x="231" y="0" type="line"/>
      <point x="231" y="571" type="line" smooth="yes"/>
      <point x="231" y="673"/>
      <point x="277" y="696"/>
      <point x="337" y="696" type="curve" smooth="yes"/>
      <point x="398" y="696"/>
      <point x="436" y="661"/>
      <point x="436" y="594" type="curve" smooth="yes"/>
      <point x="436" y="510"/>
      <point x="375" y="460"/>
      <point x="288" y="449" type="curve"/>
      <point x="288" y="397" type="line"/>
      <point x="290" y="397" type="line" smooth="yes"/>
      <point x="401.0" y="397.0"/>
      <point x="490" y="305"/>
      <point x="490" y="185" type="curve" smooth="yes"/>
      <point x="490" y="93"/>
      <point x="449" y="47"/>
      <point x="381" y="47" type="curve" smooth="yes"/>
      <point x="341" y="47"/>
      <point x="296" y="68"/>
      <point x="288" y="71" type="curve"/>
      <point x="288" y="11" type="line"/>
      <point x="302" y="2"/>
      <point x="343" y="-10"/>
      <point x="387" y="-10" type="curve" smooth="yes"/>
      <point x="497" y="-10"/>
      <point x="584" y="55"/>
      <point x="584" y="185" type="curve" smooth="yes"/>
      <point x="584" y="303"/>
      <point x="503" y="403"/>
      <point x="350" y="434" type="curve"/>
      <point x="364" y="416" type="line"/>
      <point x="364" y="442" type="line"/>
    </contour>
  </outline>
</glyph>
<glyph name="eth" format="2">
  <advance width="598"/>
  <unicode hex="00F0"/>
  <outline>
    <contour>
      <point x="466" y="409" type="line"/>
      <point x="434" y="485"/>
      <point x="360" y="518"/>
      <point x="297" y="518" type="curve" smooth="yes"/>
      <point x="158" y="518"/>
      <point x="46" y="413"/>
      <point x="46" y="256" type="curve" smooth="yes"/>
      <point x="46" y="99"/>
      <point x="150" y="-10"/>
      <point x="298" y="-10" type="curve" smooth="yes"/>
      <point x="448" y="-10"/>
      <point x="552" y="114"/>
      <point x="552" y="294" type="curve" smooth="yes"/>
      <point x="552" y="484"/>
      <point x="454.065325704" y="659.335616639"/>
      <point x="196" y="752" type="curve"/>
      <point x="165" y="710" type="line"/>
      <point x="379.995920201" y="625.395123995"/>
      <point x="460" y="481"/>
      <point x="460" y="294" type="curve" smooth="yes"/>
      <point x="460" y="145"/>
      <point x="400" y="47"/>
      <point x="298" y="47" type="curve" smooth="yes"/>
      <point x="199" y="47"/>
      <point x="140" y="131"/>
      <point x="140" y="256" type="curve" smooth="yes"/>
      <point x="140" y="380"/>
      <point x="210" y="461"/>
      <point x="307" y="461" type="curve" smooth="yes"/>
      <point x="379" y="461"/>
      <point x="433" y="421"/>
      <point x="487" y="346" type="curve"/>
    </contour>
    <contour>
      <point x="123" y="582" type="line"/>
      <point x="144" y="532" type="line"/>
      <point x="481" y="687" type="line"/>
      <point x="460" y="737" type="line"/>
    </contour>
  </outline>
</glyph>
<glyph name="oslash" format="2">
  <advance width="614"/>
  <unicode hex="00F8"/>
  <anchor x="307.0" y="508" name="top"/>
  <outline>
    <contour>
      <point x="-2" y="-15" type="line"/>
      <point x="82" y="-15" type="line"/>
      <point x="605" y="523" type="line"/>
      <point x="521" y="523" type="line"/>
    </contour>
    <contour>
      <point x="136" y="254" type="curve" smooth="yes"/>
      <point x="136" y="380"/>
      <point x="201" y="461.0"/>
      <point x="307" y="461" type="curve" smooth="yes"/>
      <point x="418.0" y="461.0"/>
      <point x="478" y="383"/>
      <point x="478" y="254" type="curve" smooth="yes"/>
      <point x="478" y="128"/>
      <point x="413" y="47"/>
      <point x="307" y="47" type="curve" smooth="yes"/>
      <point x="196.0" y="47"/>
      <point x="136" y="125"/>
    </contour>
    <contour>
      <point x="46" y="254" type="curve" smooth="yes"/>
      <point x="46" y="97"/>
      <point x="155" y="-10"/>
      <point x="307" y="-10" type="curve" smooth="yes"/>
      <point x="459.0" y="-10.0"/>
      <point x="568" y="97"/>
      <point x="568" y="254" type="curve" smooth="yes"/>
      <point x="568" y="410"/>
      <point x="459" y="518"/>
      <point x="307" y="518" type="curve" smooth="yes"/>
      <point x="155" y="518"/>
      <point x="46" y="411"/>
    </contour>
  </outline>
</glyph>
<glyph name="thorn" format="2">
  <advance width="644"/>
  <unicode hex="00FE"/>
  <outline>
    <contour>
      <point x="298" y="-223" type="line"/>
      <point x="298" y="-178" type="line"/>
      <point x="269" y="-178" type="line" smooth="yes"/>
      <point x="243" y="-178"/>
      <point x="196" y="-175"/>
      <point x="196" y="-168" type="curve"/>
      <point x="196" y="735" type="line"/>
      <point x="23" y="735" type="line"/>
      <point x="23" y="689" type="line"/>
      <point x="33" y="687" type="line" smooth="yes"/>
      <point x="83" y="677"/>
      <point x="107" y="671"/>
      <point x="107" y="642" type="curve" smooth="yes"/>
      <point x="107" y="-142" type="line" smooth="yes"/>
      <point x="107" y="-171"/>
      <point x="73" y="-178"/>
      <point x="25" y="-178" type="curve"/>
      <point x="23" y="-178" type="line"/>
      <point x="23" y="-223" type="line"/>
    </contour>
    <contour>
      <point x="202" y="45"/>
      <point x="256" y="-10"/>
      <point x="359" y="-10" type="curve" smooth="yes"/>
      <point x="503" y="-10"/>
      <point x="598" y="99"/>
      <point x="598" y="257" type="curve" smooth="yes"/>
      <point x="598" y="414"/>
      <point x="506" y="518"/>
      <point x="366" y="518" type="curve" smooth="yes"/>
      <point x="262" y="518"/>
      <point x="208" y="458"/>
      <point x="136" y="330" type="curve"/>
      <point x="175" y="307" type="line"/>
      <point x="220" y="407"/>
      <point x="280" y="461"/>
      <point x="360" y="461" type="curve" smooth="yes"/>
      <point x="454" y="461"/>
      <point x="504" y="382"/>
      <point x="504" y="257" type="curve" smooth="yes"/>
      <point x="504" y="131"/>
      <point x="453" y="47"/>
      <point x="356" y="47" type="curve" smooth="yes"/>
      <point x="278" y="47"/>
      <point x="220" y="96"/>
      <point x="174" y="195" type="curve"/>
      <point x="135" y="173" type="line"/>
    </contour>
  </outline>
</glyph>
<glyph name="Aogonek" format="2">
  <advance width="699"/>
  <unicode hex="0104"/>
  <outline>
    <contour>
      <point x="186" y="300" type="line"/>
      <point x="180" y="244" type="line"/>
      <point x="488" y="244" type="line"/>
      <point x="487" y="300" type="line"/>
    </contour>
    <contour>
      <point x="566" y="41" type="line"/>
      <point x="458" y="-20"/>
      <point x="389" y="-77"/>
      <point x="389" y="-145" type="curve" smooth="yes"/>
      <point x="389" y="-202"/>
      <point x="434" y="-236"/>
      <point x="497" y="-236" type="curve" smooth="yes"/>
      <point x="549" y="-236"/>
      <point x="576" y="-217"/>
      <point x="601" y="-190" type="curve"/>
      <point x="572" y="-156" type="line"/>
      <point x="559" y="-168"/>
      <point x="541" y="-184"/>
      <point x="519" y="-184" type="curve" smooth="yes"/>
      <point x="496.0" y="-184.0"/>
      <point x="479" y="-169"/>
      <point x="479" y="-136" type="curve" smooth="yes"/>
      <point x="479" y="-95"/>
      <point x="503" y="-45"/>
      <point x="597" y="8" type="curve"/>
    </contour>
    <contour>
      <point x="691.0" y="0.0" type="line"/>
      <point x="691.0" y="47.0" type="line"/>
      <point x="686.0" y="47.0" type="line"/>
      <point x="652.0" y="47.0"/>
      <point x="630.0" y="49.0"/>
      <point x="621.0" y="75.0" type="curve" smooth="yes"/>
      <point x="399.0" y="710.0" type="line"/>
      <point x="297" y="710" type="line"/>
      <point x="83" y="90" type="line" smooth="yes"/>
      <point x="70" y="53"/>
      <point x="50" y="47"/>
      <point x="13" y="47" type="curve"/>
      <point x="8" y="47" type="line"/>
      <point x="8" y="0" type="line"/>
      <point x="236" y="0" type="line"/>
      <point x="236" y="47" type="line"/>
      <point x="221" y="47" type="line" smooth="yes"/>
      <point x="183" y="47"/>
      <point x="137" y="54"/>
      <point x="137" y="65" type="curve"/>
      <point x="342" y="664" type="line"/>
      <point x="322.0" y="672.0" type="line"/>
      <point x="552" y="0" type="line"/>
    </contour>
  </outline>
</glyph>
<glyph name="eogonek" format="2">
  <advance width="549"/>
  <unicode hex="0119"/>
  <outline>
    <contour>
      <point x="391" y="37" type="line"/>
      <point x="283" y="-20"/>
      <point x="214.0" y="-77.0"/>
      <point x="214.0" y="-145.0" type="curve" smooth="yes"/>
      <point x="214.0" y="-202.0"/>
      <point x="259.0" y="-236.0"/>
      <point x="322.0" y="-236.0" type="curve" smooth="yes"/>
      <point x="374.0" y="-236.0"/>
      <point x="401.0" y="-217.0"/>
      <point x="426.0" y="-190.0" type="curve"/>
      <point x="397.0" y="-156.0" type="line"/>
      <point x="384.0" y="-168.0"/>
      <point x="366.0" y="-184.0"/>
      <point x="344.0" y="-184.0" type="curve"/>
      <point x="321.0" y="-184.0"/>
      <point x="304" y="-169"/>
      <point x="304.0" y="-136.0" type="curve" smooth="yes"/>
      <point x="304" y="-78"/>
      <point x="344" y="-40"/>
      <point x="436" y="28" type="curve" smooth="yes"/>
      <point x="474" y="56"/>
      <point x="492" y="79"/>
      <point x="508" y="107" type="curve"/>
      <point x="461" y="149" type="line"/>
      <point x="433" y="103"/>
      <point x="388" y="47"/>
      <point x="306" y="47" type="curve" smooth="yes"/>
      <point x="209" y="47"/>
      <point x="137" y="121"/>
      <point x="137" y="250" type="curve" smooth="yes"/>
      <point x="137" y="380"/>
      <point x="203.0" y="461.0"/>
      <point x="286.0" y="461.0" type="curve" smooth="yes"/>
      <point x="374.0" y="461.0"/>
      <point x="414.0" y="398.0"/>
      <point x="416.0" y="265.0" type="curve"/>
      <point x="444.0" y="287.0" type="line"/>
      <point x="106.0" y="287.0" type="line"/>
      <point x="107.0" y="231.0" type="line"/>
      <point x="511.0" y="231.0" type="line"/>
      <point x="510.0" y="423.0"/>
      <point x="432.0" y="518.0"/>
      <point x="286.0" y="518.0" type="curve" smooth="yes"/>
      <point x="152.0" y="518.0"/>
      <point x="46" y="409"/>
      <point x="46" y="252" type="curve" smooth="yes"/>
      <point x="46" y="92"/>
      <point x="158" y="-10"/>
      <point x="304" y="-10" type="curve" smooth="yes"/>
      <point x="342" y="-10"/>
      <point x="374" y="-3"/>
      <point x="402" y="9" type="curve"/>
    </contour>
  </outline>
</glyph>
<glyph name="ibreve" format="2">
  <advance width="319"/>
  <unicode hex="012D"/>
  <outline>
    <contour>
      <point x="155" y="582" type="curve" smooth="yes"/>
      <point x="78" y="582"/>
      <point x="22" y="631"/>
      <point x="17" y="739" type="curve"/>
      <point x="77" y="739" type="line"/>
      <point x="84" y="671"/>
      <point x="112" y="651"/>
      <point x="158" y="651" type="curve" smooth="yes"/>
      <point x="204" y="651"/>
      <point x="231" y="671"/>
      <point x="238" y="739" type="curve"/>
      <point x="293" y="739" type="line"/>
      <point x="288" y="631"/>
      <point x="232" y="582"/>
    </contour>
    <component base="dotlessi"/>
  </outline>
</glyph>
<glyph name="kgreenlandic" format="2">
  <advance width="634"/>
  <unicode hex="0138"/>
  <outline>
    <contour>
      <point x="611" y="0" type="line"/>
      <point x="611" y="45" type="line"/>
      <point x="609" y="45" type="line"/>
      <point x="572" y="45"/>
      <point x="541" y="51"/>
      <point x="512" y="83" type="curve" smooth="yes"/>
      <point x="311" y="308" type="line"/>
      <point x="309" y="265" type="line"/>
      <point x="464" y="414" type="line" smooth="yes"/>
      <point x="500" y="448"/>
      <point x="538" y="463"/>
      <point x="579" y="463" type="curve"/>
      <point x="581" y="463" type="line"/>
      <point x="581" y="508" type="line"/>
      <point x="333" y="508" type="line"/>
      <point x="333" y="463" type="line"/>
      <point x="337" y="463" type="line" smooth="yes"/>
      <point x="367" y="463"/>
      <point x="418" y="460"/>
      <point x="418" y="445" type="curve"/>
      <point x="238" y="273" type="line"/>
      <point x="238" y="268" type="line"/>
      <point x="427" y="55" type="line"/>
      <point x="427" y="48"/>
      <point x="383" y="45"/>
      <point x="355" y="45" type="curve" smooth="yes"/>
      <point x="352" y="45" type="line"/>
      <point x="352" y="0" type="line"/>
    </contour>
    <contour>
      <point x="212" y="508" type="line"/>
      <point x="38" y="508" type="line"/>
      <point x="38" y="462" type="line"/>
      <point x="49" y="460" type="line" smooth="yes"/>
      <point x="100" y="451"/>
      <point x="123" y="444"/>
      <point x="123" y="415" type="curve" smooth="yes"/>
      <point x="123" y="81" type="line" smooth="yes"/>
      <point x="123" y="52"/>
      <point x="89" y="45"/>
      <point x="41" y="45" type="curve"/>
      <point x="39" y="45" type="line"/>
      <point x="39" y="0" type="line"/>
      <point x="287" y="0" type="line"/>
      <point x="287" y="45" type="line"/>
      <point x="284" y="45" type="line" smooth="yes"/>
      <point x="257" y="45"/>
      <point x="212" y="48"/>
      <point x="212" y="55" type="curve" smooth="yes"/>
    </contour>
  </outline>
</glyph>
<glyph name="Ldot" format="2">
  <advance width="619"/>
  <unicode hex="013F"/>
  <outline>
    <contour>
      <point x="334" y="710" type="line"/>
      <point x="334" y="663" type="line"/>
      <point x="323" y="663" type="line" smooth="yes"/>
      <point x="271" y="663"/>
      <point x="234" y="656"/>
      <point x="234" y="627" type="curve" smooth="yes"/>
      <point x="234" y="59" type="line"/>
      <point x="382" y="59" type="line" smooth="yes"/>
      <point x="468" y="59"/>
      <point x="504" y="66"/>
      <point x="507" y="102" type="curve" smooth="yes"/>
      <point x="516" y="224" type="line"/>
      <point x="576" y="224" type="line"/>
      <point x="576" y="0" type="line"/>
      <point x="45" y="0" type="line"/>
      <point x="45" y="47" type="line"/>
      <point x="56" y="47" type="line" smooth="yes"/>
      <point x="105" y="47"/>
      <point x="141" y="54"/>
      <point x="141" y="83" type="curve" smooth="yes"/>
      <point x="141" y="627" type="line" smooth="yes"/>
      <point x="141" y="656"/>
      <point x="105" y="663"/>
      <point x="56" y="663" type="curve" smooth="yes"/>
      <point x="45" y="663" type="line"/>
      <point x="45" y="710" type="line"/>
    </contour>
    <component base="periodcentered" xOffset="376" yOffset="47"/>
  </outline>
</glyph>
<glyph name="Lslash" format="2">
  <advance width="619"/>
  <unicode hex="0141"/>
  <outline>
    <contour>
      <point x="45" y="188" type="line"/>
      <point x="45" y="258" type="line"/>
      <point x="450" y="526" type="line"/>
      <point x="450" y="456" type="line"/>
    </contour>
    <component base="L"/>
  </outline>
</glyph>
<glyph name="eng" format="2">
  <advance width="620"/>
  <unicode hex="014B"/>
  <outline>
    <contour>
      <point x="38" y="0" type="line"/>
      <point x="286" y="0" type="line"/>
      <point x="286" y="45" type="line"/>
      <point x="283" y="45" type="line" smooth="yes"/>
      <point x="255" y="45"/>
      <point x="211" y="48"/>
      <point x="211" y="55" type="curve" smooth="yes"/>
      <point x="211" y="391" type="line"/>
      <point x="202" y="402" type="line"/>
      <point x="202" y="508" type="line"/>
      <point x="38" y="508" type="line"/>
      <point x="38" y="462" type="line"/>
      <point x="48" y="460" type="line" smooth="yes"/>
      <point x="98" y="450"/>
      <point x="122" y="444"/>
      <point x="122" y="415" type="curve" smooth="yes"/>
      <point x="122" y="81" type="line" smooth="yes"/>
      <point x="122" y="52"/>
      <point x="88" y="45"/>
      <point x="40" y="45" type="curve" smooth="yes"/>
      <point x="38" y="45" type="line"/>
    </contour>
    <contour>
      <point x="449" y="-45" type="line" smooth="yes"/>
      <point x="449" y="-144"/>
      <point x="409" y="-174"/>
      <point x="348" y="-174" type="curve" smooth="yes"/>
      <point x="319" y="-174"/>
      <point x="295" y="-169"/>
      <point x="272" y="-163" type="curve"/>
      <point x="272" y="-226" type="line"/>
      <point x="290" y="-232"/>
      <point x="322" y="-236"/>
      <point x="351" y="-236" type="curve" smooth="yes"/>
      <point x="445" y="-236"/>
      <point x="538" y="-194"/>
      <point x="538" y="-45" type="curve" smooth="yes"/>
      <point x="538" y="357" type="line" smooth="yes"/>
      <point x="538" y="468"/>
      <point x="474" y="518"/>
      <point x="379" y="518" type="curve" smooth="yes"/>
      <point x="280" y="518"/>
      <point x="222" y="461"/>
      <point x="152" y="344" type="curve"/>
      <point x="182" y="319" type="line"/>
      <point x="231" y="408"/>
      <point x="291" y="455"/>
      <point x="364" y="455" type="curve" smooth="yes"/>
      <point x="428" y="455"/>
      <point x="449" y="421"/>
      <point x="449" y="346" type="curve"/>
    </contour>
  </outline>
</glyph>
<glyph name="OE" format="2">
  <advance width="1020"/>
  <unicode hex="0152"/>
  <outline>
    <contour>
      <point x="587" y="390" type="curve"/>
      <point x="587" y="336" type="line"/>
      <point x="668" y="333"/>
      <point x="750" y="331"/>
      <point x="831" y="328" type="curve"/>
      <point x="831" y="398" type="line"/>
      <point x="750" y="395"/>
      <point x="668" y="393"/>
    </contour>
    <contour>
      <point x="422" y="57" type="line" smooth="yes"/>
      <point x="251" y="57"/>
      <point x="145" y="164"/>
      <point x="145" y="353" type="curve" smooth="yes"/>
      <point x="145" y="542"/>
      <point x="251" y="653"/>
      <point x="422" y="653" type="curve" smooth="yes"/>
      <point x="525" y="653" type="line"/>
      <point x="525" y="57" type="line"/>
    </contour>
    <contour>
      <point x="47" y="136"/>
      <point x="199" y="0"/>
      <point x="422" y="0" type="curve" smooth="yes"/>
      <point x="960" y="0" type="line"/>
      <point x="960" y="217" type="line"/>
      <point x="903" y="217" type="line"/>
      <point x="894" y="102" type="line" smooth="yes"/>
      <point x="891.181461278" y="65.9853385484"/>
      <point x="855" y="59"/>
      <point x="769" y="59" type="curve" smooth="yes"/>
      <point x="617" y="59" type="line"/>
      <point x="617" y="651" type="line"/>
      <point x="740" y="651" type="line" smooth="yes"/>
      <point x="826" y="651"/>
      <point x="861" y="644"/>
      <point x="865" y="608" type="curve" smooth="yes"/>
      <point x="874" y="518" type="line"/>
      <point x="930" y="518" type="line"/>
      <point x="930" y="710" type="line"/>
      <point x="422" y="710" type="line" smooth="yes"/>
      <point x="199" y="710"/>
      <point x="47" y="569"/>
      <point x="47" y="353" type="curve" smooth="yes"/>
    </contour>
  </outline>
</glyph>
<glyph name="oe" format="2">
  <advance width="968"/>
  <unicode hex="0153"/>
  <outline>
    <contour>
      <point x="625" y="47"/>
      <point x="557" y="121"/>
      <point x="557" y="250" type="curve" smooth="yes"/>
      <point x="557" y="381"/>
      <point x="620" y="462"/>
      <point x="711" y="462" type="curve" smooth="yes"/>
      <point x="795" y="462"/>
      <point x="833.99999304" y="399.000466314"/>
      <point x="836" y="265" type="curve"/>
      <point x="864" y="287" type="line"/>
      <point x="526" y="287" type="line"/>
      <point x="527" y="231" type="line"/>
      <point x="931" y="231" type="line"/>
      <point x="929.999999759" y="424.000046468"/>
      <point x="853" y="519"/>
      <point x="711" y="519" type="curve" smooth="yes"/>
      <point x="575" y="519"/>
      <point x="475" y="399"/>
      <point x="475" y="252" type="curve" smooth="yes"/>
      <point x="475" y="102"/>
      <point x="580" y="-10"/>
      <point x="724" y="-10" type="curve" smooth="yes"/>
      <point x="828" y="-10"/>
      <point x="890" y="42"/>
      <point x="928" y="107" type="curve"/>
      <point x="881" y="149" type="line"/>
      <point x="852" y="105"/>
      <point x="809" y="47"/>
      <point x="726" y="47" type="curve" smooth="yes"/>
    </contour>
    <contour>
      <point x="447" y="-10"/>
      <point x="546" y="107"/>
      <point x="546" y="254" type="curve" smooth="yes"/>
      <point x="546" y="399"/>
      <point x="447" y="518"/>
      <point x="303" y="518" type="curve" smooth="yes"/>
      <point x="153.581395349" y="518.0"/>
      <point x="46" y="411"/>
      <point x="46" y="254" type="curve" smooth="yes"/>
      <point x="46" y="97"/>
      <point x="154" y="-10"/>
      <point x="303" y="-10" type="curve"/>
    </contour>
    <contour>
      <point x="203" y="47"/>
      <point x="140" y="129"/>
      <point x="140" y="254" type="curve" smooth="yes"/>
      <point x="140" y="378"/>
      <point x="202.615853659" y="461.0"/>
      <point x="303" y="461" type="curve" smooth="yes"/>
      <point x="403" y="461"/>
      <point x="466" y="378"/>
      <point x="466" y="254" type="curve" smooth="yes"/>
      <point x="466" y="128"/>
      <point x="403" y="47"/>
      <point x="303" y="47" type="curve"/>
    </contour>
  </outline>
</glyph>
<glyph name="Uogonek" format="2">
  <advance width="807"/>
  <unicode hex="0172"/>
  <outline>
    <contour>
      <point x="532" y="45" type="line"/>
      <point x="437" y="-24"/>
      <point x="362" y="-77"/>
      <point x="362" y="-145" type="curve" smooth="yes"/>
      <point x="362" y="-202"/>
      <point x="407" y="-236"/>
      <point x="470" y="-236" type="curve" smooth="yes"/>
      <point x="522" y="-236"/>
      <point x="549" y="-217"/>
      <point x="574" y="-190" type="curve"/>
      <point x="545" y="-156" type="line"/>
      <point x="532" y="-168"/>
      <point x="514" y="-184"/>
      <point x="492" y="-184" type="curve" smooth="yes"/>
      <point x="469.0" y="-184.0"/>
      <point x="452" y="-169"/>
      <point x="452" y="-136" type="curve" smooth="yes"/>
      <point x="452" y="-58"/>
      <point x="560" y="23"/>
      <point x="596" y="59" type="curve" smooth="yes"/>
      <point x="641" y="104"/>
      <point x="668" y="174"/>
      <point x="668.0" y="271.0" type="curve" smooth="yes"/>
      <point x="668.0" y="617.0" type="line" smooth="yes"/>
      <point x="668.0" y="651.0"/>
      <point x="704.0" y="663.0"/>
      <point x="753.0" y="663.0" type="curve" smooth="yes"/>
      <point x="764.0" y="663.0" type="line"/>
      <point x="764.0" y="710.0" type="line"/>
      <point x="507.0" y="710.0" type="line"/>
      <point x="507.0" y="663.0" type="line"/>
      <point x="516.0" y="663.0" type="line" smooth="yes"/>
      <point x="554.0" y="663.0"/>
      <point x="603.0" y="655.0"/>
      <point x="603.0" y="641.0" type="curve" smooth="yes"/>
      <point x="603.0" y="271.0" type="line" smooth="yes"/>
      <point x="603.0" y="111.0"/>
      <point x="525.0" y="59.0"/>
      <point x="419.0" y="59.0" type="curve" smooth="yes"/>
      <point x="310.0" y="59.0"/>
      <point x="232.0" y="111.0"/>
      <point x="232.0" y="271.0" type="curve" smooth="yes"/>
      <point x="232.0" y="653.0" type="line" smooth="yes"/>
      <point x="232.0" y="660.0"/>
      <point x="281.0" y="663.0"/>
      <point x="319.0" y="663.0" type="curve" smooth="yes"/>
      <point x="328.0" y="663.0" type="line"/>
      <point x="328.0" y="710.0" type="line"/>
      <point x="43.0" y="710.0" type="line"/>
      <point x="43.0" y="663.0" type="line"/>
      <point x="54.0" y="663.0" type="line" smooth="yes"/>
      <point x="103.0" y="663.0"/>
      <point x="139.0" y="656.0"/>
      <point x="139.0" y="627.0" type="curve" smooth="yes"/>
      <point x="139.0" y="271.0" type="line" smooth="yes"/>
      <point x="139.0" y="71.0"/>
      <point x="253.0" y="-10.0"/>
      <point x="408.0" y="-10.0" type="curve" smooth="yes"/>
      <point x="455.0" y="-10.0"/>
      <point x="499" y="-2"/>
      <point x="536" y="17" type="curve"/>
    </contour>
  </outline>
</glyph>
<glyph name="uogonek" format="2">
  <advance width="624"/>
  <unicode hex="0173"/>
  <outline>
    <contour>
      <point x="195" y="508" type="line"/>
      <point x="20" y="508" type="line"/>
      <point x="20" y="462" type="line"/>
      <point x="32" y="460" type="line" smooth="yes"/>
      <point x="83" y="452"/>
      <point x="106" y="444"/>
      <point x="106" y="415" type="curve" smooth="yes"/>
      <point x="106" y="151" type="line" smooth="yes"/>
      <point x="106" y="40"/>
      <point x="171" y="-10"/>
      <point x="265" y="-10" type="curve" smooth="yes"/>
      <point x="342" y="-10"/>
      <point x="394" y="25"/>
      <point x="446" y="97" type="curve"/>
      <point x="446" y="166" type="line"/>
      <point x="400" y="92"/>
      <point x="345" y="53"/>
      <point x="280" y="53" type="curve" smooth="yes"/>
      <point x="216" y="53"/>
      <point x="195" y="87"/>
      <point x="195" y="163" type="curve" smooth="yes"/>
    </contour>
    <contour>
      <point x="518" y="508" type="line"/>
      <point x="331" y="508" type="line"/>
      <point x="331" y="462" type="line"/>
      <point x="353" y="459" type="line" smooth="yes"/>
      <point x="405" y="452"/>
      <point x="429" y="444"/>
      <point x="429" y="415" type="curve" smooth="yes"/>
      <point x="429" y="117" type="line"/>
      <point x="438" y="104" type="line"/>
      <point x="438" y="0" type="line"/>
      <point x="604" y="0" type="line"/>
      <point x="604" y="45" type="line"/>
      <point x="601" y="45" type="line" smooth="yes"/>
      <point x="553" y="45"/>
      <point x="518" y="52"/>
      <point x="518" y="81" type="curve" smooth="yes"/>
    </contour>
    <contour>
      <point x="497" y="35" type="line"/>
      <point x="389" y="-22"/>
      <point x="320" y="-77"/>
      <point x="320" y="-145" type="curve" smooth="yes"/>
      <point x="320" y="-202"/>
      <point x="365" y="-236"/>
      <point x="428" y="-236" type="curve" smooth="yes"/>
      <point x="480" y="-236"/>
      <point x="507" y="-217"/>
      <point x="532" y="-190" type="curve"/>
      <point x="503" y="-156" type="line"/>
      <point x="490" y="-168"/>
      <point x="472" y="-184"/>
      <point x="450" y="-184" type="curve"/>
      <point x="427" y="-184"/>
      <point x="410" y="-169"/>
      <point x="410" y="-136" type="curve" smooth="yes"/>
      <point x="410" y="-95"/>
      <point x="434" y="-45"/>
      <point x="528" y="8" type="curve"/>
    </contour>
  </outline>
</glyph>
<glyph name="Dhook" format="2">
  <advance width="833"/>
  <unicode hex="018A"/>
  <anchor x="399" y="741" name="top"/>
  <anchor x="418" y="0" name="bottom"/>
  <outline>
    <contour>
      <point x="191" y="710" type="line"/>
      <point x="46" y="710"/>
      <point x="-11" y="641"/>
      <point x="-11" y="550" type="curve"/>
      <point x="-11" y="531"/>
      <point x="-8" y="492"/>
      <point x="1" y="468" type="curve"/>
      <point x="95" y="468" type="line"/>
      <point x="84" y="495"/>
      <point x="76" y="530"/>
      <point x="76" y="551" type="curve"/>
      <point x="76" y="623"/>
      <point x="114" y="651"/>
      <point x="191" y="651" type="curve"/>
      <point x="202" y="651" type="line"/>
      <point x="202" y="83" type="line" smooth="yes"/>
      <point x="202" y="54"/>
      <point x="166" y="47"/>
      <point x="117" y="47" type="curve" smooth="yes"/>
      <point x="105" y="47" type="line"/>
      <point x="105" y="0" type="line"/>
      <point x="411" y="0" type="line" smooth="yes"/>
      <point x="634" y="0"/>
      <point x="786" y="141"/>
      <point x="786" y="357" type="curve" smooth="yes"/>
      <point x="786" y="574"/>
      <point x="634" y="710"/>
      <point x="411" y="710" type="curve" smooth="yes"/>
    </contour>
    <contour>
      <point x="411" y="651" type="line" smooth="yes"/>
      <point x="581" y="651"/>
      <point x="686" y="545"/>
      <point x="686" y="357" type="curve" smooth="yes"/>
      <point x="686" y="169"/>
      <point x="581" y="59"/>
      <point x="411" y="59" type="curve" smooth="yes"/>
      <point x="294" y="59" type="line"/>
      <point x="294" y="651" type="line"/>
    </contour>
  </outline>
</glyph>
<glyph name="Schwa" format="2">
  <advance width="707"/>
  <unicode hex="018F"/>
  <outline>
    <contour>
      <point x="341" y="720" type="curve" smooth="yes"/>
      <point x="200" y="720"/>
      <point x="109" y="646"/>
      <point x="54" y="557" type="curve"/>
      <point x="110" y="518" type="line"/>
      <point x="150" y="584"/>
      <point x="221" y="660"/>
      <point x="338" y="660" type="curve" smooth="yes"/>
      <point x="472" y="660"/>
      <point x="562.0" y="550.845637584"/>
      <point x="562" y="356" type="curve"/>
      <point x="562.0" y="168.417808219"/>
      <point x="466" y="50"/>
      <point x="346" y="50" type="curve" smooth="yes"/>
      <point x="211" y="50"/>
      <point x="148.15268772" y="143.533361357"/>
      <point x="145" y="339" type="curve"/>
      <point x="118" y="317" type="line"/>
      <point x="616" y="317" type="line"/>
      <point x="614" y="377" type="line"/>
      <point x="47" y="377" type="line"/>
      <point x="48.0104437057" y="118.326411342"/>
      <point x="153" y="-10"/>
      <point x="346" y="-10" type="curve" smooth="yes"/>
      <point x="522" y="-10"/>
      <point x="660.0" y="140.637362637"/>
      <point x="660" y="358" type="curve" smooth="yes"/>
      <point x="660.0" y="579.551912568"/>
      <point x="527" y="720"/>
    </contour>
  </outline>
</glyph>
<glyph name="florin" format="2">
  <advance width="560"/>
  <unicode hex="0192"/>
  <outline>
    <contour>
      <point x="143" y="508" type="line"/>
      <point x="137" y="451" type="line"/>
      <point x="489" y="451" type="line"/>
      <point x="495" y="508" type="line"/>
    </contour>
    <contour>
      <point x="145" y="-236"/>
      <point x="230" y="-155"/>
      <point x="259" y="56" type="curve" smooth="yes"/>
      <point x="332" y="582" type="line" smooth="yes"/>
      <point x="344" y="671"/>
      <point x="385" y="701"/>
      <point x="450" y="701" type="curve" smooth="yes"/>
      <point x="483" y="701"/>
      <point x="513" y="694"/>
      <point x="545" y="682" type="curve"/>
      <point x="550" y="748" type="line"/>
      <point x="524" y="760"/>
      <point x="484" y="767"/>
      <point x="449" y="767" type="curve" smooth="yes"/>
      <point x="335" y="767"/>
      <point x="262" y="710"/>
      <point x="245" y="588" type="curve" smooth="yes"/>
      <point x="170" y="42" type="line" smooth="yes"/>
      <point x="145" y="-139"/>
      <point x="99" y="-170"/>
      <point x="47" y="-170" type="curve" smooth="yes"/>
      <point x="23" y="-170"/>
      <point x="-2" y="-163"/>
      <point x="-22" y="-156" type="curve"/>
      <point x="-27" y="-222" type="line"/>
      <point x="-13" y="-229"/>
      <point x="14" y="-236"/>
      <point x="45" y="-236" type="curve" smooth="yes"/>
    </contour>
  </outline>
</glyph>
<glyph name="khook" format="2">
  <advance width="634"/>
  <unicode hex="0199"/>
  <anchor x="341" y="761" name="top"/>
  <anchor x="318" y="0" name="bottom"/>
  <outline>
    <contour>
      <point x="611" y="0" type="line"/>
      <point x="611" y="45" type="line"/>
      <point x="609" y="45" type="line"/>
      <point x="572" y="45"/>
      <point x="541" y="51"/>
      <point x="512" y="83" type="curve" smooth="yes"/>
      <point x="311" y="308" type="line"/>
      <point x="309" y="265" type="line"/>
      <point x="464" y="414" type="line" smooth="yes"/>
      <point x="500" y="448"/>
      <point x="538" y="463"/>
      <point x="579" y="463" type="curve"/>
      <point x="581" y="463" type="line"/>
      <point x="581" y="508" type="line"/>
      <point x="333" y="508" type="line"/>
      <point x="333" y="463" type="line"/>
      <point x="337" y="463" type="line" smooth="yes"/>
      <point x="367" y="463"/>
      <point x="418" y="460"/>
      <point x="418" y="445" type="curve"/>
      <point x="238" y="273" type="line"/>
      <point x="238" y="268" type="line"/>
      <point x="427" y="55" type="line"/>
      <point x="427" y="48"/>
      <point x="383" y="45"/>
      <point x="355" y="45" type="curve" smooth="yes"/>
      <point x="352" y="45" type="line"/>
      <point x="352" y="0" type="line"/>
    </contour>
    <contour>
      <point x="123" y="551" type="curve" smooth="yes"/>
      <point x="123" y="81" type="line" smooth="yes"/>
      <point x="123" y="52"/>
      <point x="89" y="45"/>
      <point x="41" y="45" type="curve"/>
      <point x="39" y="45" type="line"/>
      <point x="39" y="0" type="line"/>
      <point x="287" y="0" type="line"/>
      <point x="287" y="45" type="line"/>
      <point x="284" y="45" type="line" smooth="yes"/>
      <point x="257" y="45"/>
      <point x="212" y="48"/>
      <point x="212" y="55" type="curve" smooth="yes"/>
      <point x="212" y="551" type="line" smooth="yes"/>
      <point x="212.0" y="673.0"/>
      <point x="276" y="696"/>
      <point x="322" y="696" type="curve"/>
      <point x="376" y="696"/>
      <point x="410" y="681"/>
      <point x="435" y="668" type="curve"/>
      <point x="435" y="742" type="line"/>
      <point x="417" y="748"/>
      <point x="378.0" y="752.0"/>
      <point x="326" y="752" type="curve"/>
      <point x="240" y="752"/>
      <point x="123" y="710.0"/>
    </contour>
  </outline>
</glyph>
<glyph name="Ohorn" format="2">
  <advance width="798"/>
  <unicode hex="01A0"/>
  <anchor x="396.0" y="742.0" name="top"/>
  <anchor x="396.0" y="-35" name="bottom"/>
  <outline>
    <contour>
      <point x="396" y="50" type="curve" smooth="yes"/>
      <point x="250" y="50"/>
      <point x="145" y="168"/>
      <point x="145" y="355" type="curve" smooth="yes"/>
      <point x="145" y="542"/>
      <point x="250" y="660"/>
      <point x="396" y="660" type="curve" smooth="yes"/>
      <point x="542" y="660"/>
      <point x="648" y="542"/>
      <point x="648" y="355" type="curve" smooth="yes"/>
      <point x="648" y="168"/>
      <point x="542" y="50"/>
    </contour>
    <contour>
      <point x="573" y="651" type="line"/>
      <point x="573" y="664" type="line"/>
      <point x="558" y="661" type="line"/>
      <point x="571" y="658"/>
      <point x="584" y="656"/>
      <point x="596" y="656" type="curve" smooth="yes"/>
      <point x="690" y="656"/>
      <point x="766" y="731"/>
      <point x="781" y="877" type="curve"/>
      <point x="696" y="877" type="line"/>
      <point x="686" y="781"/>
      <point x="642" y="704"/>
      <point x="547" y="704" type="curve" smooth="yes"/>
      <point x="504" y="704"/>
      <point x="459" y="720"/>
      <point x="396" y="720" type="curve"/>
      <point x="200" y="720"/>
      <point x="47" y="572"/>
      <point x="47" y="355" type="curve" smooth="yes"/>
      <point x="47" y="139"/>
      <point x="200" y="-10"/>
      <point x="396" y="-10" type="curve" smooth="yes"/>
      <point x="593" y="-10"/>
      <point x="746" y="139"/>
      <point x="746" y="355" type="curve" smooth="yes"/>
      <point x="746" y="497"/>
      <point x="672" y="613"/>
      <point x="558" y="663" type="curve"/>
    </contour>
  </outline>
</glyph>
<glyph name="ohorn" format="2">
  <advance width="626"/>
  <unicode hex="01A1"/>
  <anchor x="307.0" y="508" name="top"/>
  <anchor x="307.0" y="-35" name="bottom"/>
  <outline>
    <contour>
      <point x="204" y="47"/>
      <point x="140" y="129"/>
      <point x="140" y="254" type="curve" smooth="yes"/>
      <point x="140" y="377"/>
      <point x="204" y="461"/>
      <point x="307" y="461" type="curve" smooth="yes"/>
      <point x="410" y="461"/>
      <point x="474" y="377"/>
      <point x="474" y="254" type="curve" smooth="yes"/>
      <point x="474" y="128"/>
      <point x="410" y="47"/>
      <point x="307" y="47" type="curve"/>
    </contour>
    <contour>
      <point x="427" y="459" type="line"/>
      <point x="427" y="469" type="line"/>
      <point x="410" y="470" type="line"/>
      <point x="423" y="467"/>
      <point x="434" y="465"/>
      <point x="444" y="465" type="curve" smooth="yes"/>
      <point x="529" y="465"/>
      <point x="589" y="549"/>
      <point x="596" y="680" type="curve"/>
      <point x="516" y="680" type="line"/>
      <point x="510" y="591"/>
      <point x="486" y="508"/>
      <point x="414" y="508" type="curve" smooth="yes"/>
      <point x="381.0" y="508.0"/>
      <point x="355" y="518"/>
      <point x="309" y="518" type="curve"/>
      <point x="154" y="518"/>
      <point x="46" y="410"/>
      <point x="46" y="254" type="curve" smooth="yes"/>
      <point x="46" y="97"/>
      <point x="155" y="-10"/>
      <point x="307" y="-10" type="curve"/>
      <point x="459" y="-10"/>
      <point x="568" y="97"/>
      <point x="568" y="254" type="curve" smooth="yes"/>
      <point x="568" y="365"/>
      <point x="502" y="436"/>
      <point x="410" y="472" type="curve"/>
    </contour>
  </outline>
</glyph>
<glyph name="icaron" format="2">
  <advance width="319"/>
  <unicode hex="01D0"/>
  <outline>
    <contour>
      <point x="130" y="571" type="line"/>
      <point x="21" y="728" type="line"/>
      <point x="21" y="738" type="line"/>
      <point x="66" y="738" type="line"/>
      <point x="183" y="624" type="line"/>
      <point x="163" y="624" type="line"/>
      <point x="280" y="738" type="line"/>
      <point x="315" y="738" type="line"/>
      <point x="315" y="728" type="line"/>
      <point x="206" y="571" type="line"/>
    </contour>
    <component base="dotlessi"/>
  </outline>
</glyph>
<glyph name="Oogonek" format="2">
  <advance width="794"/>
  <unicode hex="01EA"/>
  <outline>
    <contour>
      <point x="397" y="50" type="curve" smooth="yes"/>
      <point x="252" y="50"/>
      <point x="147" y="168"/>
      <point x="147" y="355" type="curve" smooth="yes"/>
      <point x="147" y="542"/>
      <point x="251" y="660"/>
      <point x="397" y="660" type="curve" smooth="yes"/>
      <point x="542" y="660"/>
      <point x="647" y="542"/>
      <point x="647" y="355" type="curve" smooth="yes"/>
      <point x="647" y="168"/>
      <point x="542" y="50"/>
    </contour>
    <contour>
      <point x="420" y="-42"/>
      <point x="551" y="2"/>
      <point x="629" y="76" type="curve" smooth="yes"/>
      <point x="706" y="144"/>
      <point x="747.0" y="243.0"/>
      <point x="747.0" y="355.0" type="curve" smooth="yes"/>
      <point x="747.0" y="572.0"/>
      <point x="594.0" y="720.0"/>
      <point x="397.0" y="720.0" type="curve" smooth="yes"/>
      <point x="200.0" y="720.0"/>
      <point x="47.0" y="572.0"/>
      <point x="47.0" y="355.0" type="curve" smooth="yes"/>
      <point x="47.0" y="139.0"/>
      <point x="200.0" y="-10.0"/>
      <point x="397.0" y="-10.0" type="curve" smooth="yes"/>
      <point x="437.0" y="-10.0"/>
      <point x="476.0" y="-4.0"/>
      <point x="511.0" y="8.0" type="curve"/>
      <point x="521" y="31" type="line"/>
      <point x="403" y="-21"/>
      <point x="330" y="-75"/>
      <point x="330.0" y="-145.0" type="curve" smooth="yes"/>
      <point x="330" y="-202"/>
      <point x="375.0" y="-236.0"/>
      <point x="438.0" y="-236.0" type="curve" smooth="yes"/>
      <point x="490.0" y="-236.0"/>
      <point x="517.0" y="-217.0"/>
      <point x="542.0" y="-190.0" type="curve"/>
      <point x="513.0" y="-156.0" type="line"/>
      <point x="500.0" y="-168.0"/>
      <point x="482.0" y="-184.0"/>
      <point x="460.0" y="-184.0" type="curve"/>
      <point x="437.0" y="-184.0"/>
      <point x="420" y="-169"/>
      <point x="420.0" y="-136.0" type="curve" smooth="yes"/>
    </contour>
  </outline>
</glyph>
<glyph name="oogonek" format="2">
  <advance width="614"/>
  <unicode hex="01EB"/>
  <outline>
    <contour>
      <point x="140" y="253" type="curve" smooth="yes"/>
      <point x="140" y="377"/>
      <point x="204" y="461"/>
      <point x="307" y="461" type="curve" smooth="yes"/>
      <point x="410" y="461"/>
      <point x="474" y="377"/>
      <point x="474" y="253" type="curve" smooth="yes"/>
      <point x="474" y="126"/>
      <point x="410" y="45"/>
      <point x="307" y="45" type="curve" smooth="yes"/>
      <point x="204" y="45"/>
      <point x="140" y="127"/>
    </contour>
    <contour>
      <point x="435" y="35" type="line"/>
      <point x="317" y="-22"/>
      <point x="248" y="-77"/>
      <point x="248" y="-145" type="curve" smooth="yes"/>
      <point x="248" y="-202"/>
      <point x="293" y="-236"/>
      <point x="356" y="-236" type="curve" smooth="yes"/>
      <point x="408" y="-236"/>
      <point x="435" y="-217"/>
      <point x="460" y="-190" type="curve"/>
      <point x="431" y="-156" type="line"/>
      <point x="418" y="-168"/>
      <point x="400" y="-184"/>
      <point x="378" y="-184" type="curve" smooth="yes"/>
      <point x="355" y="-184"/>
      <point x="338" y="-169"/>
      <point x="338" y="-136" type="curve" smooth="yes"/>
      <point x="338" y="-63"/>
      <point x="406" y="-25"/>
      <point x="486" y="53" type="curve" smooth="yes"/>
      <point x="543" y="108"/>
      <point x="568" y="174"/>
      <point x="568" y="253" type="curve" smooth="yes"/>
      <point x="568" y="409"/>
      <point x="459" y="518"/>
      <point x="307" y="518" type="curve" smooth="yes"/>
      <point x="155" y="518"/>
      <point x="46" y="410"/>
      <point x="46" y="253" type="curve" smooth="yes"/>
      <point x="46" y="95"/>
      <point x="155" y="-12"/>
      <point x="307" y="-12" type="curve" smooth="yes"/>
      <point x="350" y="-12"/>
      <point x="390" y="-3"/>
      <point x="425" y="13" type="curve"/>
    </contour>
  </outline>
</glyph>
<glyph name="iinvertedbreve" format="2">
  <advance width="319"/>
  <unicode hex="020B"/>
  <outline>
    <contour>
      <point x="147" y="739" type="curve" smooth="yes"/>
      <point x="224" y="739"/>
      <point x="280" y="690"/>
      <point x="285" y="582" type="curve"/>
      <point x="225" y="582" type="line"/>
      <point x="218" y="650"/>
      <point x="190" y="670"/>
      <point x="144" y="670" type="curve" smooth="yes"/>
      <point x="98" y="670"/>
      <point x="71" y="650"/>
      <point x="64" y="582" type="curve"/>
      <point x="9" y="582" type="line"/>
      <point x="14" y="690"/>
      <point x="70" y="739"/>
    </contour>
    <component base="dotlessi"/>
  </outline>
</glyph>
<glyph name="dotlessj" format="2">
  <advance width="298"/>
  <unicode hex="0237"/>
  <anchor x="150.00000000000003" y="508" name="top"/>
  <outline>
    <contour>
      <point x="115" y="-45" type="line" smooth="yes"/>
      <point x="115" y="-144"/>
      <point x="75" y="-174"/>
      <point x="14" y="-174" type="curve" smooth="yes"/>
      <point x="-15" y="-174"/>
      <point x="-39" y="-169"/>
      <point x="-62" y="-163" type="curve"/>
      <point x="-62" y="-226" type="line"/>
      <point x="-44" y="-232"/>
      <point x="-12" y="-236"/>
      <point x="17" y="-236" type="curve" smooth="yes"/>
      <point x="111" y="-236"/>
      <point x="204" y="-194"/>
      <point x="204" y="-45" type="curve" smooth="yes"/>
      <point x="204" y="508" type="line"/>
      <point x="18" y="508" type="line"/>
      <point x="18" y="462" type="line"/>
      <point x="34" y="460" type="line" smooth="yes"/>
      <point x="89" y="453"/>
      <point x="115" y="444"/>
      <point x="115" y="415" type="curve" smooth="yes"/>
    </contour>
  </outline>
</glyph>
<glyph name="bhook" format="2">
  <advance width="625"/>
  <unicode hex="0253"/>
  <anchor x="272" y="761" name="top"/>
  <anchor x="318" y="0" name="bottom"/>
  <outline>
    <contour>
      <point x="177" y="551" type="line"/>
      <point x="177" y="673"/>
      <point x="241" y="696"/>
      <point x="287" y="696" type="curve"/>
      <point x="341" y="696"/>
      <point x="375" y="681"/>
      <point x="400" y="668" type="curve"/>
      <point x="400" y="742" type="line"/>
      <point x="382" y="748"/>
      <point x="343.0" y="752.0"/>
      <point x="291" y="752" type="curve"/>
      <point x="205" y="752"/>
      <point x="88" y="710"/>
      <point x="88" y="551" type="curve"/>
      <point x="88" y="-3" type="line"/>
      <point x="148" y="-3" type="line"/>
      <point x="167" y="106" type="line"/>
      <point x="177" y="121" type="line"/>
    </contour>
    <contour>
      <point x="340" y="-10" type="curve" smooth="yes"/>
      <point x="483" y="-10"/>
      <point x="579" y="99"/>
      <point x="579" y="257" type="curve" smooth="yes"/>
      <point x="579" y="414"/>
      <point x="486" y="518"/>
      <point x="348" y="518" type="curve" smooth="yes"/>
      <point x="264" y="518"/>
      <point x="214" y="479"/>
      <point x="160" y="399" type="curve"/>
      <point x="160" y="316" type="line"/>
      <point x="205" y="411"/>
      <point x="263" y="461"/>
      <point x="342" y="461" type="curve" smooth="yes"/>
      <point x="434" y="461"/>
      <point x="485" y="382"/>
      <point x="485" y="257" type="curve" smooth="yes"/>
      <point x="485" y="131"/>
      <point x="434" y="47"/>
      <point x="338" y="47" type="curve" smooth="yes"/>
      <point x="263" y="47"/>
      <point x="206" y="91"/>
      <point x="160" y="184" type="curve"/>
      <point x="160" y="97" type="line"/>
      <point x="210" y="23"/>
      <point x="261" y="-10"/>
    </contour>
  </outline>
</glyph>
<glyph name="schwa" format="2">
  <advance width="549"/>
  <unicode hex="0259"/>
  <outline>
    <contour>
      <point x="348" y="461"/>
      <point x="420" y="388"/>
      <point x="420" y="258" type="curve" smooth="yes"/>
      <point x="420" y="128"/>
      <point x="354" y="47"/>
      <point x="271" y="47" type="curve" smooth="yes"/>
      <point x="183" y="47"/>
      <point x="143" y="110"/>
      <point x="141" y="241" type="curve"/>
      <point x="113" y="219" type="line"/>
      <point x="451" y="219" type="line"/>
      <point x="450" y="275" type="line"/>
      <point x="46" y="275" type="line"/>
      <point x="47" y="85"/>
      <point x="125" y="-10"/>
      <point x="271" y="-10" type="curve" smooth="yes"/>
      <point x="405" y="-10"/>
      <point x="511" y="99"/>
      <point x="511" y="256" type="curve" smooth="yes"/>
      <point x="511" y="417"/>
      <point x="399" y="518"/>
      <point x="253" y="518" type="curve" smooth="yes"/>
      <point x="150" y="518"/>
      <point x="87" y="466"/>
      <point x="49" y="401" type="curve"/>
      <point x="96" y="359" type="line"/>
      <point x="124" y="405"/>
      <point x="169" y="461"/>
      <point x="251" y="461" type="curve" smooth="yes"/>
    </contour>
  </outline>
</glyph>
<glyph name="ringhalfright" format="2">
  <advance width="500"/>
  <unicode hex="02BE"/>
  <anchor x="250.0" y="566" name="_top"/>
  <outline>
    <contour>
      <point x="248" y="768" type="line"/>
      <point x="313" y="768"/>
      <point x="364" y="732"/>
      <point x="364" y="670" type="curve" smooth="yes"/>
      <point x="364" y="608"/>
      <point x="313" y="572"/>
      <point x="248" y="572" type="curve"/>
      <point x="248" y="607" type="line"/>
      <point x="282" y="607"/>
      <point x="307" y="628"/>
      <point x="307" y="670" type="curve" smooth="yes"/>
      <point x="307" y="712"/>
      <point x="282" y="733"/>
      <point x="248" y="733" type="curve"/>
    </contour>
  </outline>
</glyph>
<glyph name="breve" format="2">
  <advance width="500"/>
  <unicode hex="02D8"/>
  <anchor x="250.0" y="517" name="_top"/>
  <outline>
    <contour>
      <point x="250" y="579" type="curve" smooth="yes"/>
      <point x="173" y="579"/>
      <point x="117" y="628"/>
      <point x="112" y="736" type="curve"/>
      <point x="172" y="736" type="line"/>
      <point x="179" y="668"/>
      <point x="207" y="648"/>
      <point x="253" y="648" type="curve" smooth="yes"/>
      <point x="299" y="648"/>
      <point x="326" y="668"/>
      <point x="333" y="736" type="curve"/>
      <point x="388" y="736" type="line"/>
      <point x="383" y="628"/>
      <point x="327" y="579"/>
    </contour>
  </outline>
</glyph>
<glyph name="dotaccent" format="2">
  <advance width="500"/>
  <unicode hex="02D9"/>
  <anchor x="250.0" y="526" name="_top"/>
  <outline>
    <contour>
      <point x="250" y="619" type="curve" smooth="yes"/>
      <point x="285" y="619"/>
      <point x="311" y="642"/>
      <point x="311" y="680" type="curve" smooth="yes"/>
      <point x="311" y="717"/>
      <point x="285" y="740"/>
      <point x="250" y="740" type="curve" smooth="yes"/>
      <point x="215" y="740"/>
      <point x="189" y="717"/>
      <point x="189" y="680" type="curve" smooth="yes"/>
      <point x="189" y="642"/>
      <point x="215" y="619"/>
    </contour>
  </outline>
</glyph>
<glyph name="ring" format="2">
  <advance width="500"/>
  <unicode hex="02DA"/>
  <anchor x="250.0" y="526" name="_top"/>
  <outline>
    <contour>
      <point x="193" y="670" type="curve" smooth="yes"/>
      <point x="193" y="712"/>
      <point x="218" y="733"/>
      <point x="250" y="733" type="curve" smooth="yes"/>
      <point x="282" y="733"/>
      <point x="307" y="712"/>
      <point x="307" y="670" type="curve" smooth="yes"/>
      <point x="307" y="628"/>
      <point x="282" y="607"/>
      <point x="250" y="607" type="curve" smooth="yes"/>
      <point x="218" y="607"/>
      <point x="193" y="628"/>
    </contour>
    <contour>
      <point x="364" y="670" type="curve" smooth="yes"/>
      <point x="364" y="732"/>
      <point x="313" y="768"/>
      <point x="250" y="768" type="curve" smooth="yes"/>
      <point x="187" y="768"/>
      <point x="136" y="732"/>
      <point x="136" y="670" type="curve" smooth="yes"/>
      <point x="136" y="608"/>
      <point x="187" y="572"/>
      <point x="250" y="572" type="curve" smooth="yes"/>
      <point x="313" y="572"/>
      <point x="364" y="608"/>
    </contour>
  </outline>
</glyph>
<glyph name="ogonek" format="2">
  <advance width="600"/>
  <unicode hex="02DB"/>
  <anchor x="356.0" y="0.0" name="_right"/>
  <outline>
    <contour>
      <point x="383" y="35" type="line"/>
      <point x="275" y="-22"/>
      <point x="206" y="-77"/>
      <point x="206" y="-145" type="curve" smooth="yes"/>
      <point x="206" y="-202"/>
      <point x="251" y="-236"/>
      <point x="314" y="-236" type="curve" smooth="yes"/>
      <point x="366" y="-236"/>
      <point x="393" y="-217"/>
      <point x="418" y="-190" type="curve"/>
      <point x="389" y="-156" type="line"/>
      <point x="376" y="-168"/>
      <point x="358" y="-184"/>
      <point x="336" y="-184" type="curve"/>
      <point x="313" y="-184"/>
      <point x="296" y="-169"/>
      <point x="296" y="-136" type="curve" smooth="yes"/>
      <point x="296" y="-95"/>
      <point x="320" y="-45"/>
      <point x="414" y="8" type="curve"/>
    </contour>
  </outline>
</glyph>
<glyph name="tilde" format="2">
  <advance width="500"/>
  <unicode hex="02DC"/>
  <anchor x="250.0" y="516" name="_top"/>
  <outline>
    <contour>
      <point x="312" y="594" type="curve" smooth="yes"/>
      <point x="365" y="594"/>
      <point x="398" y="636"/>
      <point x="414" y="718" type="curve"/>
      <point x="367" y="735" type="line"/>
      <point x="356" y="691"/>
      <point x="346" y="662"/>
      <point x="321" y="662" type="curve" smooth="yes"/>
      <point x="284" y="662"/>
      <point x="251" y="732"/>
      <point x="191" y="732" type="curve" smooth="yes"/>
      <point x="135" y="732"/>
      <point x="105" y="691"/>
      <point x="91" y="607" type="curve"/>
      <point x="138" y="591" type="line"/>
      <point x="145" y="638"/>
      <point x="158" y="665"/>
      <point x="183" y="665" type="curve" smooth="yes"/>
      <point x="215" y="665"/>
      <point x="245" y="594"/>
    </contour>
  </outline>
</glyph>
<glyph name="hungarumlaut" format="2">
  <advance width="500"/>
  <unicode hex="02DD"/>
  <anchor x="259.0" y="525" name="_top"/>
  <outline>
    <contour>
      <point x="173" y="707" type="curve" smooth="yes"/>
      <point x="149" y="586" type="line"/>
      <point x="149" y="566" type="line"/>
      <point x="179" y="566" type="line"/>
      <point x="242" y="661" type="line" smooth="yes"/>
      <point x="257" y="684"/>
      <point x="265" y="702"/>
      <point x="265" y="720" type="curve" smooth="yes"/>
      <point x="265" y="742"/>
      <point x="248" y="759"/>
      <point x="223" y="759" type="curve" smooth="yes"/>
      <point x="198" y="759"/>
      <point x="181" y="745"/>
    </contour>
    <contour>
      <point x="326" y="707" type="curve" smooth="yes"/>
      <point x="302" y="586" type="line"/>
      <point x="302" y="566" type="line"/>
      <point x="332" y="566" type="line"/>
      <point x="395" y="661" type="line" smooth="yes"/>
      <point x="410" y="684"/>
      <point x="418" y="702"/>
      <point x="418" y="720" type="curve" smooth="yes"/>
      <point x="418" y="742"/>
      <point x="401" y="759"/>
      <point x="376" y="759" type="curve" smooth="yes"/>
      <point x="351" y="759"/>
      <point x="334" y="745"/>
    </contour>
  </outline>
</glyph>
<glyph name="Omega" format="2">
  <advance width="820"/>
  <unicode hex="03A9"/>
  <outline>
    <contour>
      <point x="410" y="720" type="curve" smooth="yes"/>
      <point x="600.024390244" y="720.0"/>
      <point x="728" y="591"/>
      <point x="728" y="430" type="curve" smooth="yes"/>
      <point x="728" y="277"/>
      <point x="597" y="155"/>
      <point x="502" y="46" type="curve"/>
      <point x="503" y="72" type="line"/>
      <point x="599" y="72" type="line" smooth="yes"/>
      <point x="671" y="72"/>
      <point x="700" y="79"/>
      <point x="704" y="115" type="curve" smooth="yes"/>
      <point x="713" y="192" type="line"/>
      <point x="770" y="192" type="line"/>
      <point x="770" y="0" type="line"/>
      <point x="470" y="0" type="line"/>
      <point x="470" y="82" type="line"/>
      <point x="543" y="186"/>
      <point x="635" y="277"/>
      <point x="635" y="430" type="curve" smooth="yes"/>
      <point x="635" y="572"/>
      <point x="549.787234043" y="660.0"/>
      <point x="410" y="660" type="curve" smooth="yes"/>
      <point x="270.212765957" y="660.0"/>
      <point x="185" y="572"/>
      <point x="185" y="430" type="curve" smooth="yes"/>
      <point x="185" y="277"/>
      <point x="277" y="186"/>
      <point x="350" y="82" type="curve"/>
      <point x="350" y="0" type="line"/>
      <point x="50" y="0" type="line"/>
      <point x="50" y="192" type="line"/>
      <point x="107" y="192" type="line"/>
      <point x="116" y="115" type="line" smooth="yes"/>
      <point x="120" y="79"/>
      <point x="149" y="72"/>
      <point x="221" y="72" type="curve"/>
      <point x="317" y="72" type="line"/>
      <point x="318" y="46" type="line"/>
      <point x="223" y="155"/>
      <point x="92" y="277"/>
      <point x="92" y="430" type="curve" smooth="yes"/>
      <point x="92" y="591"/>
      <point x="219.975609756" y="720.0"/>
    </contour>
  </outline>
</glyph>
<glyph name="Eukrcyr" format="2">
  <advance width="717"/>
  <unicode hex="0404"/>
  <guideline x="211" y="787" angle="90" identifier="mFTeE97JTj"/>
  <anchor x="379.0" y="741" name="top"/>
  <anchor x="379.0" y="0" name="bottom"/>
  <outline>
    <contour>
      <point x="103" y="390" type="curve"/>
      <point x="103" y="337" type="line"/>
      <point x="223" y="333"/>
      <point x="342" y="332"/>
      <point x="462" y="328" type="curve"/>
      <point x="462" y="398" type="line"/>
      <point x="342" y="394"/>
      <point x="223" y="394"/>
    </contour>
    <contour>
      <point x="380" y="658" type="curve" smooth="yes"/>
      <point x="498" y="658"/>
      <point x="565" y="593"/>
      <point x="598" y="496" type="curve"/>
      <point x="665" y="496" type="line"/>
      <point x="665" y="710" type="line"/>
      <point x="605" y="710" type="line"/>
      <point x="589" y="552" type="line"/>
      <point x="626" y="552" type="line"/>
      <point x="593" y="656"/>
      <point x="516" y="720"/>
      <point x="379" y="720" type="curve" smooth="yes"/>
      <point x="197" y="720"/>
      <point x="47" y="569"/>
      <point x="47" y="355" type="curve" smooth="yes"/>
      <point x="47" y="138"/>
      <point x="190" y="-10"/>
      <point x="389" y="-10" type="curve" smooth="yes"/>
      <point x="541" y="-10"/>
      <point x="646" y="90"/>
      <point x="680" y="233" type="curve"/>
      <point x="619" y="256" type="line"/>
      <point x="590" y="141"/>
      <point x="512" y="52"/>
      <point x="395" y="52" type="curve" smooth="yes"/>
      <point x="243" y="52"/>
      <point x="147" y="172"/>
      <point x="147" y="355" type="curve" smooth="yes"/>
      <point x="147" y="538"/>
      <point x="251" y="658"/>
    </contour>
  </outline>
</glyph>
<glyph name="Ljecyr" format="2">
  <advance width="1021"/>
  <unicode hex="0409"/>
  <anchor x="413.0" y="741" name="top"/>
  <outline>
    <contour>
      <point x="248" y="710" type="line"/>
      <point x="248" y="652" type="line"/>
      <point x="571" y="652" type="line"/>
      <point x="571" y="710" type="line"/>
    </contour>
    <contour>
      <point x="191" y="267" type="line" smooth="yes"/>
      <point x="179" y="128"/>
      <point x="148" y="71"/>
      <point x="75" y="71" type="curve" smooth="yes"/>
      <point x="40" y="71"/>
      <point x="16" y="82"/>
      <point x="8" y="86" type="curve"/>
      <point x="8" y="0" type="line"/>
      <point x="21" y="-7"/>
      <point x="43" y="-15"/>
      <point x="77" y="-15" type="curve" smooth="yes"/>
      <point x="190" y="-15"/>
      <point x="248" y="68"/>
      <point x="264" y="266" type="curve" smooth="yes"/>
      <point x="301" y="710" type="line"/>
      <point x="125" y="710" type="line"/>
      <point x="125" y="663" type="line"/>
      <point x="136" y="663" type="line" smooth="yes"/>
      <point x="185" y="663"/>
      <point x="223" y="656"/>
      <point x="221" y="627" type="curve" smooth="yes"/>
    </contour>
    <contour>
      <point x="715" y="0" type="line" smooth="yes"/>
      <point x="881" y="0"/>
      <point x="983" y="92"/>
      <point x="983" y="220" type="curve" smooth="yes"/>
      <point x="983" y="347"/>
      <point x="886" y="429"/>
      <point x="720" y="429" type="curve" smooth="yes"/>
      <point x="581" y="429" type="line"/>
      <point x="581" y="370" type="line"/>
      <point x="718" y="370" type="line" smooth="yes"/>
      <point x="829" y="370"/>
      <point x="883" y="314"/>
      <point x="883" y="219" type="curve" smooth="yes"/>
      <point x="883" y="123"/>
      <point x="829" y="59"/>
      <point x="713" y="59" type="curve" smooth="yes"/>
      <point x="611" y="59" type="line"/>
      <point x="611" y="627" type="line" smooth="yes"/>
      <point x="611" y="656"/>
      <point x="652" y="663"/>
      <point x="688" y="663" type="curve" smooth="yes"/>
      <point x="715" y="663" type="line"/>
      <point x="715" y="710" type="line"/>
      <point x="519" y="710" type="line"/>
      <point x="519" y="57" type="line" smooth="yes"/>
      <point x="519" y="51"/>
      <point x="483" y="47"/>
      <point x="434" y="47" type="curve" smooth="yes"/>
      <point x="423" y="47" type="line"/>
      <point x="423" y="0" type="line"/>
    </contour>
  </outline>
</glyph>
<glyph name="Njecyr" format="2">
  <advance width="1053"/>
  <unicode hex="040A"/>
  <anchor x="391.0" y="741" name="top"/>
  <outline>
    <contour>
      <point x="202" y="419" type="line"/>
      <point x="202" y="361" type="line"/>
      <point x="601" y="361" type="line"/>
      <point x="601" y="419" type="line"/>
    </contour>
    <contour>
      <point x="45" y="0" type="line"/>
      <point x="330" y="0" type="line"/>
      <point x="330" y="47" type="line"/>
      <point x="321" y="47" type="line" smooth="yes"/>
      <point x="283" y="47"/>
      <point x="234" y="50"/>
      <point x="234" y="57" type="curve" smooth="yes"/>
      <point x="234" y="653" type="line" smooth="yes"/>
      <point x="234" y="660"/>
      <point x="283" y="663"/>
      <point x="321" y="663" type="curve" smooth="yes"/>
      <point x="330" y="663" type="line"/>
      <point x="330" y="710" type="line"/>
      <point x="45" y="710" type="line"/>
      <point x="45" y="663" type="line"/>
      <point x="56" y="663" type="line" smooth="yes"/>
      <point x="105" y="663"/>
      <point x="141" y="656"/>
      <point x="141" y="627" type="curve" smooth="yes"/>
      <point x="141" y="83" type="line" smooth="yes"/>
      <point x="141" y="54"/>
      <point x="105" y="47"/>
      <point x="56" y="47" type="curve" smooth="yes"/>
      <point x="45" y="47" type="line"/>
    </contour>
    <contour>
      <point x="455" y="0" type="line"/>
      <point x="747" y="0" type="line" smooth="yes"/>
      <point x="913" y="0"/>
      <point x="1015" y="90"/>
      <point x="1015" y="215" type="curve" smooth="yes"/>
      <point x="1015" y="339"/>
      <point x="918" y="419"/>
      <point x="752" y="419" type="curve" smooth="yes"/>
      <point x="623" y="419" type="line"/>
      <point x="623" y="361" type="line"/>
      <point x="750" y="361" type="line" smooth="yes"/>
      <point x="861" y="361"/>
      <point x="915" y="306.6301369863"/>
      <point x="915" y="214" type="curve" smooth="yes"/>
      <point x="915" y="120.4"/>
      <point x="861" y="58"/>
      <point x="745" y="58" type="curve" smooth="yes"/>
      <point x="644" y="58" type="line"/>
      <point x="644" y="627" type="line"/>
      <point x="644" y="656"/>
      <point x="680" y="663"/>
      <point x="729" y="663" type="curve" smooth="yes"/>
      <point x="740" y="663" type="line"/>
      <point x="740" y="710" type="line"/>
      <point x="455" y="710" type="line"/>
      <point x="455" y="663" type="line"/>
      <point x="464" y="663" type="line" smooth="yes"/>
      <point x="502" y="663"/>
      <point x="551" y="660"/>
      <point x="551" y="653" type="curve"/>
      <point x="551" y="57" type="line" smooth="yes"/>
      <point x="551" y="50"/>
      <point x="502" y="47"/>
      <point x="464" y="47" type="curve" smooth="yes"/>
      <point x="455" y="47" type="line"/>
    </contour>
  </outline>
</glyph>
<glyph name="Gecyr" format="2">
  <advance width="590"/>
  <unicode hex="0413"/>
  <anchor x="302" y="741" name="top"/>
  <outline>
    <contour>
      <point x="233" y="651" type="line"/>
      <point x="357" y="651" type="line" smooth="yes"/>
      <point x="443" y="651"/>
      <point x="479" y="644"/>
      <point x="482" y="608" type="curve" smooth="yes"/>
      <point x="491" y="513" type="line"/>
      <point x="547" y="513" type="line"/>
      <point x="547" y="710" type="line"/>
      <point x="45" y="710" type="line"/>
      <point x="45" y="663" type="line"/>
      <point x="56" y="663" type="line" smooth="yes"/>
      <point x="105" y="663"/>
      <point x="141" y="656"/>
      <point x="141" y="627" type="curve" smooth="yes"/>
      <point x="141" y="83" type="line" smooth="yes"/>
      <point x="141" y="54"/>
      <point x="105" y="47"/>
      <point x="56" y="47" type="curve" smooth="yes"/>
      <point x="45" y="47" type="line"/>
      <point x="45" y="0" type="line"/>
      <point x="345" y="0" type="line"/>
      <point x="345" y="47" type="line"/>
      <point x="328" y="47" type="line" smooth="yes"/>
      <point x="285" y="47"/>
      <point x="233" y="48"/>
      <point x="233" y="83" type="curve" smooth="yes"/>
    </contour>
  </outline>
</glyph>
<glyph name="Decyr" format="2">
  <advance width="798"/>
  <unicode hex="0414"/>
  <anchor x="438" y="741" name="top"/>
  <outline>
    <contour>
      <point x="248" y="710" type="line"/>
      <point x="248" y="652" type="line"/>
      <point x="616" y="652" type="line"/>
      <point x="616" y="710" type="line"/>
    </contour>
    <contour>
      <point x="657" y="0" type="line"/>
      <point x="657" y="627" type="line"/>
      <point x="657" y="656"/>
      <point x="693" y="663"/>
      <point x="742" y="663" type="curve" smooth="yes"/>
      <point x="753" y="663" type="line"/>
      <point x="753" y="710" type="line"/>
      <point x="564" y="710" type="line"/>
      <point x="564" y="0" type="line"/>
    </contour>
    <contour>
      <point x="693" y="-50" type="curve" smooth="yes"/>
      <point x="704" y="-155" type="line"/>
      <point x="763" y="-155" type="line"/>
      <point x="763" y="58" type="line"/>
      <point x="19" y="58" type="line"/>
      <point x="19" y="-155" type="line"/>
      <point x="78" y="-155" type="line"/>
      <point x="89" y="-52" type="line" smooth="yes"/>
      <point x="94" y="-7"/>
      <point x="118" y="0"/>
      <point x="186" y="0" type="curve" smooth="yes"/>
      <point x="596" y="0" type="line" smooth="yes"/>
      <point x="664" y="0"/>
      <point x="688" y="-7"/>
    </contour>
    <contour>
      <point x="163" y="26" type="line"/>
      <point x="208" y="92"/>
      <point x="236" y="179"/>
      <point x="251" y="364" type="curve" smooth="yes"/>
      <point x="279" y="710" type="line"/>
      <point x="105" y="710" type="line"/>
      <point x="105" y="663" type="line"/>
      <point x="116" y="663" type="line" smooth="yes"/>
      <point x="165" y="663"/>
      <point x="203" y="656"/>
      <point x="201" y="627" type="curve" smooth="yes"/>
      <point x="179" y="367" type="line" smooth="yes"/>
      <point x="163" y="176"/>
      <point x="132" y="97"/>
      <point x="76" y="26" type="curve"/>
    </contour>
  </outline>
</glyph>
<glyph name="Zecyr" format="2">
  <advance width="669"/>
  <unicode hex="0417"/>
  <anchor x="365.0" y="741.0" name="top"/>
  <anchor x="365.0" y="0" name="bottom"/>
  <outline>
    <contour>
      <point x="358" y="-10" type="curve" smooth="yes"/>
      <point x="523" y="-10"/>
      <point x="616" y="76"/>
      <point x="616" y="199" type="curve" smooth="yes"/>
      <point x="616" y="313"/>
      <point x="530" y="383"/>
      <point x="347" y="383" type="curve"/>
      <point x="418" y="347" type="line"/>
      <point x="418" y="395" type="line"/>
      <point x="338" y="357" type="line"/>
      <point x="507" y="357"/>
      <point x="595" y="429"/>
      <point x="595" y="530" type="curve" smooth="yes"/>
      <point x="595" y="640"/>
      <point x="521" y="720"/>
      <point x="368" y="720" type="curve" smooth="yes"/>
      <point x="235" y="720"/>
      <point x="167" y="652"/>
      <point x="134" y="552" type="curve"/>
      <point x="168" y="552" type="line"/>
      <point x="152" y="710" type="line"/>
      <point x="92" y="710" type="line"/>
      <point x="92" y="496" type="line"/>
      <point x="159" y="496" type="line"/>
      <point x="192" y="593"/>
      <point x="249" y="658"/>
      <point x="365" y="658" type="curve" smooth="yes"/>
      <point x="465" y="658"/>
      <point x="501" y="608"/>
      <point x="501" y="529" type="curve" smooth="yes"/>
      <point x="501" y="452"/>
      <point x="462" y="392"/>
      <point x="356" y="396" type="curve" smooth="yes"/>
      <point x="328.694" y="396.999"/>
      <point x="301.306" y="398.001"/>
      <point x="274" y="399" type="curve"/>
      <point x="274" y="328" type="line"/>
      <point x="300.973" y="328.999"/>
      <point x="328.027" y="330.001"/>
      <point x="355" y="331" type="curve" smooth="yes"/>
      <point x="482" y="336"/>
      <point x="520" y="284"/>
      <point x="520" y="200" type="curve" smooth="yes"/>
      <point x="520" y="108"/>
      <point x="471" y="52"/>
      <point x="357" y="52" type="curve" smooth="yes"/>
      <point x="249" y="52"/>
      <point x="182" y="117"/>
      <point x="149" y="214" type="curve"/>
      <point x="82" y="214" type="line"/>
      <point x="82" y="0" type="line"/>
      <point x="142" y="0" type="line"/>
      <point x="158" y="158" type="line"/>
      <point x="124" y="158" type="line"/>
      <point x="157" y="56"/>
      <point x="237.4545454545" y="-10"/>
    </contour>
  </outline>
</glyph>
<glyph name="Elcyr" format="2">
  <advance width="793"/>
  <unicode hex="041B"/>
  <anchor x="439.0" y="741.0" name="top"/>
  <outline>
    <contour>
      <point x="248" y="710" type="line"/>
      <point x="248" y="652" type="line"/>
      <point x="611" y="652" type="line"/>
      <point x="611" y="710" type="line"/>
    </contour>
    <contour>
      <point x="463" y="0" type="line"/>
      <point x="748" y="0" type="line"/>
      <point x="748" y="47" type="line"/>
      <point x="737" y="47" type="line" smooth="yes"/>
      <point x="688" y="47"/>
      <point x="652" y="54"/>
      <point x="652" y="83" type="curve" smooth="yes"/>
      <point x="652" y="627" type="line"/>
      <point x="652" y="656"/>
      <point x="688" y="663"/>
      <point x="737" y="663" type="curve" smooth="yes"/>
      <point x="748" y="663" type="line"/>
      <point x="748" y="710" type="line"/>
      <point x="559" y="710" type="line"/>
      <point x="559" y="57" type="line" smooth="yes"/>
      <point x="559" y="50"/>
      <point x="510" y="47"/>
      <point x="472" y="47" type="curve" smooth="yes"/>
      <point x="463" y="47" type="line"/>
    </contour>
    <contour>
      <point x="191" y="267" type="line" smooth="yes"/>
      <point x="179.4342760435" y="128.2113125216"/>
      <point x="148" y="71"/>
      <point x="75" y="71" type="curve" smooth="yes"/>
      <point x="40" y="71"/>
      <point x="16" y="82"/>
      <point x="8" y="86" type="curve"/>
      <point x="8" y="0" type="line"/>
      <point x="21" y="-7"/>
      <point x="43" y="-15"/>
      <point x="77" y="-15" type="curve" smooth="yes"/>
      <point x="190.4262295082" y="-15"/>
      <point x="247.5033093812" y="68.0397125741"/>
      <point x="264" y="266" type="curve" smooth="yes"/>
      <point x="301" y="710" type="line"/>
      <point x="125" y="710" type="line"/>
      <point x="125" y="663" type="line"/>
      <point x="136" y="663" type="line" smooth="yes"/>
      <point x="185" y="663"/>
      <point x="223" y="656"/>
      <point x="221" y="627" type="curve" smooth="yes"/>
    </contour>
  </outline>
</glyph>
<glyph name="Pecyr" format="2">
  <advance width="823"/>
  <unicode hex="041F"/>
  <anchor x="414" y="741" name="top"/>
  <outline>
    <contour>
      <point x="188" y="710" type="line"/>
      <point x="188" y="652" type="line"/>
      <point x="641" y="652" type="line"/>
      <point x="641" y="710" type="line"/>
    </contour>
    <contour>
      <point x="45" y="0" type="line"/>
      <point x="330" y="0" type="line"/>
      <point x="330" y="47" type="line"/>
      <point x="321" y="47" type="line" smooth="yes"/>
      <point x="283" y="47"/>
      <point x="234" y="50"/>
      <point x="234" y="57" type="curve" smooth="yes"/>
      <point x="234" y="710" type="line"/>
      <point x="45" y="710" type="line"/>
      <point x="45" y="663" type="line"/>
      <point x="56" y="663" type="line" smooth="yes"/>
      <point x="105" y="663"/>
      <point x="141" y="656"/>
      <point x="141" y="627" type="curve" smooth="yes"/>
      <point x="141" y="83" type="line" smooth="yes"/>
      <point x="141" y="54"/>
      <point x="105" y="47"/>
      <point x="56" y="47" type="curve" smooth="yes"/>
      <point x="45" y="47" type="line"/>
    </contour>
    <contour>
      <point x="493" y="0" type="line"/>
      <point x="778" y="0" type="line"/>
      <point x="778" y="47" type="line"/>
      <point x="767" y="47" type="line" smooth="yes"/>
      <point x="718" y="47"/>
      <point x="682" y="54"/>
      <point x="682" y="83" type="curve" smooth="yes"/>
      <point x="682" y="627" type="line"/>
      <point x="682" y="656"/>
      <point x="718" y="663"/>
      <point x="767" y="663" type="curve" smooth="yes"/>
      <point x="778" y="663" type="line"/>
      <point x="778" y="710" type="line"/>
      <point x="589" y="710" type="line"/>
      <point x="589" y="57" type="line" smooth="yes"/>
      <point x="589" y="50"/>
      <point x="540" y="47"/>
      <point x="502" y="47" type="curve" smooth="yes"/>
      <point x="493" y="47" type="line"/>
    </contour>
  </outline>
</glyph>
<glyph name="Shchacyr" format="2">
  <advance width="1145"/>
  <unicode hex="0429"/>
  <anchor x="572.0" y="741.0" name="top"/>
  <outline>
    <contour>
      <point x="957" y="0" type="line"/>
      <point x="957" y="58" type="line"/>
      <point x="182" y="58" type="line"/>
      <point x="182" y="0" type="line"/>
    </contour>
    <contour>
      <point x="330" y="710" type="line"/>
      <point x="45" y="710" type="line"/>
      <point x="45" y="663" type="line"/>
      <point x="56" y="663" type="line" smooth="yes"/>
      <point x="105" y="663"/>
      <point x="141" y="656"/>
      <point x="141" y="627" type="curve" smooth="yes"/>
      <point x="141" y="83" type="line"/>
      <point x="141" y="54"/>
      <point x="105" y="47"/>
      <point x="56" y="47" type="curve" smooth="yes"/>
      <point x="45" y="47" type="line"/>
      <point x="45" y="0" type="line"/>
      <point x="234" y="0" type="line"/>
      <point x="234" y="653" type="line" smooth="yes"/>
      <point x="234" y="660"/>
      <point x="283" y="663"/>
      <point x="321" y="663" type="curve" smooth="yes"/>
      <point x="330" y="663" type="line"/>
    </contour>
    <contour>
      <point x="815" y="710" type="line"/>
      <point x="815" y="663" type="line"/>
      <point x="824" y="663" type="line" smooth="yes"/>
      <point x="862" y="663"/>
      <point x="911" y="660"/>
      <point x="911" y="653" type="curve" smooth="yes"/>
      <point x="911" y="0" type="line"/>
      <point x="1004" y="0" type="line"/>
      <point x="1004" y="627" type="line" smooth="yes"/>
      <point x="1004" y="656"/>
      <point x="1040" y="663"/>
      <point x="1089" y="663" type="curve" smooth="yes"/>
      <point x="1100" y="663" type="line"/>
      <point x="1100" y="710" type="line"/>
    </contour>
    <contour>
      <point x="943" y="0" type="line" smooth="yes"/>
      <point x="1011" y="0"/>
      <point x="1035" y="-7"/>
      <point x="1040" y="-50" type="curve" smooth="yes"/>
      <point x="1051" y="-155" type="line"/>
      <point x="1110" y="-155" type="line"/>
      <point x="1110" y="58" type="line"/>
      <point x="911" y="58" type="line"/>
      <point x="911" y="0" type="line"/>
    </contour>
    <contour>
      <point x="430" y="710" type="line"/>
      <point x="430" y="663" type="line"/>
      <point x="439" y="663" type="line" smooth="yes"/>
      <point x="477" y="663"/>
      <point x="526" y="660"/>
      <point x="526" y="653" type="curve" smooth="yes"/>
      <point x="526" y="0" type="line"/>
      <point x="619" y="0" type="line"/>
      <point x="619" y="653" type="line" smooth="yes"/>
      <point x="619" y="660"/>
      <point x="668" y="663"/>
      <point x="706" y="663" type="curve" smooth="yes"/>
      <point x="715" y="663" type="line"/>
      <point x="715" y="710" type="line"/>
    </contour>
  </outline>
</glyph>
<glyph name="Hardcyr" format="2">
  <advance width="750"/>
  <unicode hex="042A"/>
  <anchor x="265.0" y="741.0" name="top"/>
  <outline>
    <contour>
      <point x="444" y="0" type="line" smooth="yes"/>
      <point x="610" y="0"/>
      <point x="712" y="92"/>
      <point x="712" y="220" type="curve" smooth="yes"/>
      <point x="712" y="347"/>
      <point x="615" y="429"/>
      <point x="449" y="429" type="curve" smooth="yes"/>
      <point x="310" y="429" type="line"/>
      <point x="310" y="370" type="line"/>
      <point x="447" y="370" type="line" smooth="yes"/>
      <point x="558" y="370"/>
      <point x="612" y="314"/>
      <point x="612" y="219" type="curve" smooth="yes"/>
      <point x="612" y="123"/>
      <point x="558" y="59"/>
      <point x="442" y="59" type="curve" smooth="yes"/>
      <point x="340" y="59" type="line"/>
      <point x="340" y="653" type="line" smooth="yes"/>
      <point x="340" y="660"/>
      <point x="383" y="663"/>
      <point x="417" y="663" type="curve" smooth="yes"/>
      <point x="444" y="663" type="line"/>
      <point x="444" y="710" type="line"/>
      <point x="40" y="710" type="line"/>
      <point x="40" y="513" type="line"/>
      <point x="96" y="513" type="line"/>
      <point x="105" y="611" type="line" smooth="yes"/>
      <point x="108" y="647"/>
      <point x="144" y="654"/>
      <point x="230" y="654" type="curve" smooth="yes"/>
      <point x="248" y="654" type="line"/>
      <point x="248" y="83" type="line" smooth="yes"/>
      <point x="248" y="54"/>
      <point x="212" y="47"/>
      <point x="163" y="47" type="curve" smooth="yes"/>
      <point x="152" y="47" type="line"/>
      <point x="152" y="0" type="line"/>
    </contour>
  </outline>
</glyph>
<glyph name="Ylongcyr" format="2">
  <advance width="965"/>
  <unicode hex="042B"/>
  <anchor x="481.0" y="741.0" name="top"/>
  <anchor x="481.0" y="0" name="bottom"/>
  <outline>
    <contour>
      <point x="731" y="57" type="line" smooth="yes"/>
      <point x="731" y="50"/>
      <point x="682" y="47"/>
      <point x="644" y="47" type="curve" smooth="yes"/>
      <point x="635" y="47" type="line"/>
      <point x="635" y="0" type="line"/>
      <point x="920" y="0" type="line"/>
      <point x="920" y="47" type="line"/>
      <point x="909" y="47" type="line" smooth="yes"/>
      <point x="860" y="47"/>
      <point x="824" y="54"/>
      <point x="824" y="83" type="curve" smooth="yes"/>
      <point x="824" y="627" type="line"/>
      <point x="824" y="656"/>
      <point x="860" y="663"/>
      <point x="909" y="663" type="curve" smooth="yes"/>
      <point x="920" y="663" type="line"/>
      <point x="920" y="710" type="line"/>
      <point x="635" y="710" type="line"/>
      <point x="635" y="663" type="line"/>
      <point x="644" y="663" type="line" smooth="yes"/>
      <point x="682" y="663"/>
      <point x="731" y="660"/>
      <point x="731" y="653" type="curve"/>
    </contour>
    <component base="Softcyr"/>
  </outline>
</glyph>
<glyph name="Softcyr" format="2">
  <advance width="643"/>
  <unicode hex="042C"/>
  <anchor x="192.0" y="741.0" name="top"/>
  <outline>
    <contour>
      <point x="337" y="0" type="line" smooth="yes"/>
      <point x="503" y="0"/>
      <point x="605" y="92"/>
      <point x="605" y="220" type="curve" smooth="yes"/>
      <point x="605" y="347"/>
      <point x="508" y="429"/>
      <point x="342" y="429" type="curve" smooth="yes"/>
      <point x="203" y="429" type="line"/>
      <point x="203" y="370" type="line"/>
      <point x="340" y="370" type="line" smooth="yes"/>
      <point x="451" y="370"/>
      <point x="505" y="314"/>
      <point x="505" y="219" type="curve" smooth="yes"/>
      <point x="505" y="123"/>
      <point x="451" y="59"/>
      <point x="335" y="59" type="curve" smooth="yes"/>
      <point x="233" y="59" type="line"/>
      <point x="233" y="653" type="line" smooth="yes"/>
      <point x="233" y="660"/>
      <point x="276" y="663"/>
      <point x="310" y="663" type="curve" smooth="yes"/>
      <point x="337" y="663" type="line"/>
      <point x="337" y="710" type="line"/>
      <point x="45" y="710" type="line"/>
      <point x="45" y="663" type="line"/>
      <point x="56" y="663" type="line" smooth="yes"/>
      <point x="105" y="663"/>
      <point x="141" y="656"/>
      <point x="141" y="627" type="curve" smooth="yes"/>
      <point x="141" y="83" type="line" smooth="yes"/>
      <point x="141" y="54"/>
      <point x="105" y="47"/>
      <point x="56" y="47" type="curve" smooth="yes"/>
      <point x="45" y="47" type="line"/>
      <point x="45" y="0" type="line"/>
    </contour>
  </outline>
</glyph>
<glyph name="Ereversedcyr" format="2">
  <advance width="747"/>
  <unicode hex="042D"/>
  <guideline x="1147" y="753" angle="90" identifier="Ovo68woMtl"/>
  <guideline x="211" y="787" angle="90" identifier="vAARoAR0gU"/>
  <anchor x="365.0" y="741.0" name="top"/>
  <anchor x="365.0" y="0" name="bottom"/>
  <outline>
    <contour>
      <point x="644" y="390" type="line"/>
      <point x="524" y="394"/>
      <point x="405" y="394"/>
      <point x="285" y="398" type="curve"/>
      <point x="285" y="328" type="line"/>
      <point x="405" y="332"/>
      <point x="524" y="333"/>
      <point x="644" y="337" type="curve"/>
    </contour>
    <contour>
      <point x="368" y="-10" type="curve"/>
      <point x="550" y="-10"/>
      <point x="700" y="141"/>
      <point x="700" y="355" type="curve" smooth="yes"/>
      <point x="700" y="572"/>
      <point x="567" y="720"/>
      <point x="368" y="720" type="curve" smooth="yes"/>
      <point x="231" y="720"/>
      <point x="154" y="656"/>
      <point x="121" y="552" type="curve"/>
      <point x="158" y="552" type="line"/>
      <point x="142" y="710" type="line"/>
      <point x="82" y="710" type="line"/>
      <point x="82" y="496" type="line"/>
      <point x="149" y="496" type="line"/>
      <point x="182" y="593"/>
      <point x="249" y="658"/>
      <point x="363" y="658" type="curve" smooth="yes"/>
      <point x="519" y="658"/>
      <point x="600" y="538"/>
      <point x="600" y="355" type="curve" smooth="yes"/>
      <point x="600" y="172"/>
      <point x="496" y="52"/>
      <point x="367" y="52" type="curve" smooth="yes"/>
      <point x="249" y="52"/>
      <point x="182" y="117"/>
      <point x="149" y="214" type="curve"/>
      <point x="82" y="214" type="line"/>
      <point x="82" y="0" type="line"/>
      <point x="142" y="0" type="line"/>
      <point x="158" y="158" type="line"/>
      <point x="121" y="158" type="line"/>
      <point x="154" y="54"/>
      <point x="231" y="-10"/>
    </contour>
  </outline>
</glyph>
<glyph name="Yucyr" format="2">
  <advance width="1104"/>
  <unicode hex="042E"/>
  <guideline x="732" y="785" angle="90" identifier="6nH5tb4DEh"/>
  <anchor x="578.0" y="741.0" name="top"/>
  <anchor x="578.0" y="0" name="bottom"/>
  <outline>
    <contour>
      <point x="202" y="395" type="line"/>
      <point x="202" y="337" type="line"/>
      <point x="431" y="337" type="line"/>
      <point x="431" y="395" type="line"/>
    </contour>
    <contour>
      <point x="45" y="0" type="line"/>
      <point x="330" y="0" type="line"/>
      <point x="330" y="47" type="line"/>
      <point x="321" y="47" type="line" smooth="yes"/>
      <point x="283" y="47"/>
      <point x="234" y="50"/>
      <point x="234" y="57" type="curve" smooth="yes"/>
      <point x="234" y="653" type="line" smooth="yes"/>
      <point x="234" y="660"/>
      <point x="283" y="663"/>
      <point x="321" y="663" type="curve" smooth="yes"/>
      <point x="330" y="663" type="line"/>
      <point x="330" y="710" type="line"/>
      <point x="45" y="710" type="line"/>
      <point x="45" y="663" type="line"/>
      <point x="56" y="663" type="line" smooth="yes"/>
      <point x="105" y="663"/>
      <point x="141" y="656"/>
      <point x="141" y="627" type="curve" smooth="yes"/>
      <point x="141" y="83" type="line" smooth="yes"/>
      <point x="141" y="54"/>
      <point x="105" y="47"/>
      <point x="56" y="47" type="curve" smooth="yes"/>
      <point x="45" y="47" type="line"/>
    </contour>
    <contour>
      <point x="717" y="-10" type="curve" smooth="yes"/>
      <point x="908" y="-10"/>
      <point x="1057" y="138"/>
      <point x="1057" y="355" type="curve" smooth="yes"/>
      <point x="1057" y="572"/>
      <point x="908" y="720"/>
      <point x="717" y="720" type="curve" smooth="yes"/>
      <point x="526" y="720"/>
      <point x="377" y="572"/>
      <point x="377" y="355" type="curve" smooth="yes"/>
      <point x="377" y="138"/>
      <point x="526" y="-10"/>
    </contour>
    <contour>
      <point x="717" y="50" type="curve" smooth="yes"/>
      <point x="578" y="50"/>
      <point x="477" y="168"/>
      <point x="477" y="355" type="curve" smooth="yes"/>
      <point x="477" y="542"/>
      <point x="578" y="660"/>
      <point x="717" y="660" type="curve" smooth="yes"/>
      <point x="856" y="660"/>
      <point x="957" y="542"/>
      <point x="957" y="355" type="curve" smooth="yes"/>
      <point x="957" y="168"/>
      <point x="856" y="50"/>
    </contour>
  </outline>
</glyph>
<glyph name="Yacyr" format="2">
  <advance width="695"/>
  <unicode hex="042F"/>
  <anchor x="388.0" y="741.0" name="top"/>
  <anchor x="348.0" y="0" name="bottom"/>
  <outline>
    <contour>
      <point x="332" y="321" type="line"/>
      <point x="248" y="336" type="line"/>
      <point x="101" y="75" type="line" smooth="yes"/>
      <point x="88" y="52"/>
      <point x="65" y="47"/>
      <point x="32" y="47" type="curve" smooth="yes"/>
      <point x="23" y="47" type="line"/>
      <point x="23" y="0" type="line"/>
      <point x="164" y="0" type="line"/>
    </contour>
    <contour>
      <point x="462" y="57" type="line" smooth="yes"/>
      <point x="462" y="50"/>
      <point x="419" y="47"/>
      <point x="385" y="47" type="curve" smooth="yes"/>
      <point x="372" y="47" type="line"/>
      <point x="372" y="0" type="line"/>
      <point x="650" y="0" type="line"/>
      <point x="650" y="47" type="line"/>
      <point x="639" y="47" type="line" smooth="yes"/>
      <point x="590" y="47"/>
      <point x="554" y="54"/>
      <point x="554" y="83" type="curve" smooth="yes"/>
      <point x="554" y="627" type="line" smooth="yes"/>
      <point x="554" y="656"/>
      <point x="590" y="663"/>
      <point x="639" y="663" type="curve" smooth="yes"/>
      <point x="650" y="663" type="line"/>
      <point x="650" y="710" type="line"/>
      <point x="362" y="710" type="line" smooth="yes"/>
      <point x="201" y="710"/>
      <point x="104" y="628"/>
      <point x="104" y="506" type="curve" smooth="yes"/>
      <point x="104" y="408"/>
      <point x="168" y="337"/>
      <point x="275" y="311" type="curve"/>
      <point x="300" y="301" type="line"/>
      <point x="482" y="301" type="line"/>
      <point x="482" y="357" type="line"/>
      <point x="368" y="357" type="line" smooth="yes"/>
      <point x="255" y="357"/>
      <point x="204" y="414"/>
      <point x="204" y="506" type="curve" smooth="yes"/>
      <point x="204" y="595"/>
      <point x="258" y="651"/>
      <point x="364" y="651" type="curve" smooth="yes"/>
      <point x="462" y="651" type="line"/>
    </contour>
  </outline>
</glyph>
<glyph name="becyr" format="2">
  <advance width="608"/>
  <unicode hex="0431"/>
  <anchor x="321" y="731" name="top"/>
  <outline>
    <contour>
      <point x="375" y="728" type="line" smooth="yes"/>
      <point x="133" y="709"/>
      <point x="50" y="534"/>
      <point x="50" y="306" type="curve" smooth="yes"/>
      <point x="50" y="94"/>
      <point x="148" y="-10"/>
      <point x="306" y="-10" type="curve" smooth="yes"/>
      <point x="451" y="-10"/>
      <point x="562" y="96.9356060606"/>
      <point x="562" y="249" type="curve" smooth="yes"/>
      <point x="562" y="401"/>
      <point x="468" y="503"/>
      <point x="325" y="503" type="curve" smooth="yes"/>
      <point x="241" y="503"/>
      <point x="175" y="466"/>
      <point x="133" y="391" type="curve"/>
      <point x="133" y="306" type="line"/>
      <point x="173" y="397"/>
      <point x="239" y="446"/>
      <point x="319" y="446" type="curve" smooth="yes"/>
      <point x="417" y="446"/>
      <point x="468" y="369"/>
      <point x="468" y="249" type="curve" smooth="yes"/>
      <point x="468" y="127.0193236715"/>
      <point x="402" y="47"/>
      <point x="305" y="47" type="curve" smooth="yes"/>
      <point x="199" y="47"/>
      <point x="144" y="128"/>
      <point x="144" y="270" type="curve" smooth="yes"/>
      <point x="144" y="300"/>
      <point x="144" y="324"/>
      <point x="144" y="360" type="curve"/>
      <point x="135" y="360" type="line"/>
      <point x="143.9681887438" y="583.208253178"/>
      <point x="157.9926061638" y="624.9798122481"/>
      <point x="375" y="642" type="curve" smooth="yes"/>
      <point x="528" y="654" type="line"/>
      <point x="528" y="740" type="line"/>
    </contour>
  </outline>
</glyph>
<glyph name="vecyr" format="2">
  <advance width="575"/>
  <unicode hex="0432"/>
  <anchor x="270" y="508" name="top"/>
  <outline>
    <contour>
      <point x="38" y="508" type="line"/>
      <point x="38" y="463" type="line"/>
      <point x="40" y="463" type="line" smooth="yes"/>
      <point x="88" y="463"/>
      <point x="122" y="456"/>
      <point x="122" y="427" type="curve" smooth="yes"/>
      <point x="122" y="81" type="line" smooth="yes"/>
      <point x="122" y="52"/>
      <point x="88" y="45"/>
      <point x="40" y="45" type="curve" smooth="yes"/>
      <point x="38" y="45" type="line"/>
      <point x="38" y="0" type="line"/>
      <point x="338" y="0" type="line" smooth="yes"/>
      <point x="455" y="0"/>
      <point x="525" y="52"/>
      <point x="525" y="148" type="curve" smooth="yes"/>
      <point x="525" y="232"/>
      <point x="450" y="276"/>
      <point x="328" y="276" type="curve"/>
      <point x="359" y="251" type="line"/>
      <point x="359" y="285" type="line"/>
      <point x="322" y="259" type="line"/>
      <point x="440.6363636364" y="259"/>
      <point x="502" y="307.5950413223"/>
      <point x="502" y="379" type="curve" smooth="yes"/>
      <point x="502" y="458"/>
      <point x="441" y="508"/>
      <point x="327" y="508" type="curve" smooth="yes"/>
    </contour>
    <contour>
      <point x="211" y="57" type="line"/>
      <point x="211" y="451" type="line"/>
      <point x="316" y="451" type="line" smooth="yes"/>
      <point x="385" y="451"/>
      <point x="415" y="425"/>
      <point x="415" y="378" type="curve" smooth="yes"/>
      <point x="415" y="327"/>
      <point x="386.9090909091" y="293"/>
      <point x="312" y="293" type="curve" smooth="yes"/>
      <point x="197" y="293" type="line"/>
      <point x="197" y="239" type="line"/>
      <point x="313" y="239" type="line" smooth="yes"/>
      <point x="396.7226890756" y="239"/>
      <point x="436" y="207"/>
      <point x="436" y="149" type="curve" smooth="yes"/>
      <point x="436" y="93"/>
      <point x="403" y="57"/>
      <point x="328" y="57" type="curve" smooth="yes"/>
    </contour>
  </outline>
</glyph>
<glyph name="decyr" format="2">
  <advance width="632"/>
  <unicode hex="0434"/>
  <anchor x="323" y="508" name="top"/>
  <outline>
    <contour>
      <point x="416" y="0" type="line"/>
      <point x="505" y="0" type="line"/>
      <point x="505" y="427" type="line" smooth="yes"/>
      <point x="505" y="456"/>
      <point x="539" y="463"/>
      <point x="587" y="463" type="curve" smooth="yes"/>
      <point x="589" y="463" type="line"/>
      <point x="589" y="508" type="line"/>
      <point x="416" y="508" type="line"/>
    </contour>
    <contour>
      <point x="195" y="451" type="line"/>
      <point x="464" y="451" type="line"/>
      <point x="464" y="508" type="line"/>
      <point x="195" y="508" type="line"/>
    </contour>
    <contour>
      <point x="537" y="-43" type="curve" smooth="yes"/>
      <point x="549" y="-140" type="line"/>
      <point x="602" y="-140" type="line"/>
      <point x="602" y="57" type="line"/>
      <point x="15" y="57" type="line"/>
      <point x="15" y="-140" type="line"/>
      <point x="68" y="-140" type="line"/>
      <point x="80" y="-43" type="line" smooth="yes"/>
      <point x="84.4342209786" y="-7.1567137567"/>
      <point x="107.0561797753" y="0"/>
      <point x="166" y="0" type="curve" smooth="yes"/>
      <point x="451" y="0" type="line" smooth="yes"/>
      <point x="509.9438202247" y="0"/>
      <point x="532.5657790214" y="-7.1567137567"/>
    </contour>
    <contour>
      <point x="143" y="276" type="line" smooth="yes"/>
      <point x="138" y="149"/>
      <point x="118" y="93"/>
      <point x="70" y="33" type="curve"/>
      <point x="146" y="33" type="line"/>
      <point x="185" y="78"/>
      <point x="202" y="149"/>
      <point x="207" y="273" type="curve" smooth="yes"/>
      <point x="217" y="508" type="line"/>
      <point x="65" y="508" type="line"/>
      <point x="65" y="463" type="line"/>
      <point x="71" y="463" type="line" smooth="yes"/>
      <point x="118" y="463"/>
      <point x="150" y="454"/>
      <point x="149" y="425" type="curve" smooth="yes"/>
    </contour>
  </outline>
</glyph>
<glyph name="zecyr" format="2">
  <advance width="525"/>
  <unicode hex="0437"/>
  <anchor x="260" y="508" name="top"/>
  <anchor x="258" y="0" name="bottom"/>
  <outline>
    <contour>
      <point x="258" y="47" type="curve" smooth="yes"/>
      <point x="191" y="47"/>
      <point x="122.2657551716" y="76.3767090532"/>
      <point x="99" y="120" type="curve"/>
      <point x="93" y="88"/>
      <point x="115" y="69"/>
      <point x="144" y="64" type="curve"/>
      <point x="144" y="158" type="line"/>
      <point x="56" y="158" type="line"/>
      <point x="56" y="53" type="line"/>
      <point x="81.4391082141" y="28.5393190249"/>
      <point x="155" y="-10"/>
      <point x="258" y="-10" type="curve" smooth="yes"/>
      <point x="394" y="-10"/>
      <point x="475" y="46"/>
      <point x="475" y="148" type="curve" smooth="yes"/>
      <point x="475" y="232"/>
      <point x="400" y="276"/>
      <point x="278" y="276" type="curve"/>
      <point x="309" y="251" type="line"/>
      <point x="309" y="285" type="line"/>
      <point x="272" y="259" type="line"/>
      <point x="392.3222222222" y="259"/>
      <point x="454" y="308"/>
      <point x="454" y="379" type="curve" smooth="yes"/>
      <point x="454" y="464"/>
      <point x="391" y="518"/>
      <point x="271" y="518" type="curve" smooth="yes"/>
      <point x="165" y="518"/>
      <point x="91" y="480"/>
      <point x="65" y="455" type="curve"/>
      <point x="65" y="350" type="line"/>
      <point x="153" y="350" type="line"/>
      <point x="153" y="444" type="line"/>
      <point x="124" y="439"/>
      <point x="102" y="421"/>
      <point x="108" y="389" type="curve"/>
      <point x="136" y="433"/>
      <point x="196" y="461"/>
      <point x="267" y="461" type="curve" smooth="yes"/>
      <point x="338" y="461"/>
      <point x="367" y="431"/>
      <point x="367" y="379" type="curve" smooth="yes"/>
      <point x="367" y="327"/>
      <point x="339.46" y="293"/>
      <point x="265" y="293" type="curve" smooth="yes"/>
      <point x="200" y="293" type="line"/>
      <point x="200" y="236" type="line"/>
      <point x="266" y="236" type="line" smooth="yes"/>
      <point x="348" y="236"/>
      <point x="386" y="205"/>
      <point x="386" y="149" type="curve" smooth="yes"/>
      <point x="386" y="86"/>
      <point x="347" y="47"/>
    </contour>
  </outline>
</glyph>
<glyph name="elcyr" format="2">
  <advance width="642"/>
  <unicode hex="043B"/>
  <anchor x="335" y="508" name="top"/>
  <outline>
    <contour>
      <point x="165" y="241" type="line" smooth="yes"/>
      <point x="160" y="119"/>
      <point x="139" y="76"/>
      <point x="77" y="76" type="curve" smooth="yes"/>
      <point x="50" y="76"/>
      <point x="27.0609477932" y="82.4695261034"/>
      <point x="20" y="86" type="curve"/>
      <point x="20" y="0" type="line"/>
      <point x="30.7291438773" y="-6.2586672618"/>
      <point x="55" y="-10"/>
      <point x="79" y="-10" type="curve" smooth="yes"/>
      <point x="173.6477987421" y="-10"/>
      <point x="220" y="61"/>
      <point x="228" y="238" type="curve" smooth="yes"/>
      <point x="240" y="508" type="line"/>
      <point x="89" y="508" type="line"/>
      <point x="89" y="463" type="line"/>
      <point x="95" y="463" type="line" smooth="yes"/>
      <point x="142" y="463"/>
      <point x="174" y="454"/>
      <point x="173" y="425" type="curve" smooth="yes"/>
    </contour>
    <contour>
      <point x="426" y="55" type="line" smooth="yes"/>
      <point x="426" y="48"/>
      <point x="381" y="45"/>
      <point x="353" y="45" type="curve" smooth="yes"/>
      <point x="351" y="45" type="line"/>
      <point x="351" y="0" type="line"/>
      <point x="599" y="0" type="line"/>
      <point x="599" y="45" type="line"/>
      <point x="597" y="45" type="line" smooth="yes"/>
      <point x="549" y="45"/>
      <point x="515" y="52"/>
      <point x="515" y="81" type="curve" smooth="yes"/>
      <point x="515" y="427" type="line" smooth="yes"/>
      <point x="515" y="456"/>
      <point x="549" y="463"/>
      <point x="597" y="463" type="curve" smooth="yes"/>
      <point x="599" y="463" type="line"/>
      <point x="599" y="508" type="line"/>
      <point x="426" y="508" type="line"/>
    </contour>
    <contour>
      <point x="206" y="451" type="line"/>
      <point x="474" y="451" type="line"/>
      <point x="474" y="508" type="line"/>
      <point x="206" y="508" type="line"/>
    </contour>
  </outline>
</glyph>
<glyph name="encyr" format="2">
  <advance width="650"/>
  <unicode hex="043D"/>
  <anchor x="325" y="508" name="top"/>
  <outline>
    <contour>
      <point x="122" y="81" type="line" smooth="yes"/>
      <point x="122" y="52"/>
      <point x="88" y="45"/>
      <point x="40" y="45" type="curve" smooth="yes"/>
      <point x="38" y="45" type="line"/>
      <point x="38" y="0" type="line"/>
      <point x="286" y="0" type="line"/>
      <point x="286" y="45" type="line"/>
      <point x="283" y="45" type="line" smooth="yes"/>
      <point x="255" y="45"/>
      <point x="211" y="48"/>
      <point x="211" y="55" type="curve" smooth="yes"/>
      <point x="211" y="453" type="line" smooth="yes"/>
      <point x="211" y="460"/>
      <point x="255" y="463"/>
      <point x="283" y="463" type="curve" smooth="yes"/>
      <point x="286" y="463" type="line"/>
      <point x="286" y="508" type="line"/>
      <point x="38" y="508" type="line"/>
      <point x="38" y="463" type="line"/>
      <point x="40" y="463" type="line" smooth="yes"/>
      <point x="88" y="463"/>
      <point x="122" y="456"/>
      <point x="122" y="427" type="curve" smooth="yes"/>
    </contour>
    <contour>
      <point x="439" y="55" type="line" smooth="yes"/>
      <point x="439" y="48"/>
      <point x="394" y="45"/>
      <point x="366" y="45" type="curve" smooth="yes"/>
      <point x="364" y="45" type="line"/>
      <point x="364" y="0" type="line"/>
      <point x="612" y="0" type="line"/>
      <point x="612" y="45" type="line"/>
      <point x="610" y="45" type="line" smooth="yes"/>
      <point x="562" y="45"/>
      <point x="528" y="52"/>
      <point x="528" y="81" type="curve" smooth="yes"/>
      <point x="528" y="427" type="line" smooth="yes"/>
      <point x="528" y="456"/>
      <point x="562" y="463"/>
      <point x="610" y="463" type="curve" smooth="yes"/>
      <point x="612" y="463" type="line"/>
      <point x="612" y="508" type="line"/>
      <point x="364" y="508" type="line"/>
      <point x="364" y="463" type="line"/>
      <point x="366" y="463" type="line" smooth="yes"/>
      <point x="394" y="463"/>
      <point x="439" y="460"/>
      <point x="439" y="453" type="curve" smooth="yes"/>
    </contour>
    <contour>
      <point x="186" y="236" type="line"/>
      <point x="477" y="236" type="line"/>
      <point x="477" y="293" type="line"/>
      <point x="186" y="293" type="line"/>
    </contour>
  </outline>
</glyph>
<glyph name="pecyr" format="2">
  <advance width="640"/>
  <unicode hex="043F"/>
  <anchor x="320" y="508" name="top"/>
  <outline>
    <contour>
      <point x="122" y="81" type="line" smooth="yes"/>
      <point x="122" y="52"/>
      <point x="88" y="45"/>
      <point x="40" y="45" type="curve" smooth="yes"/>
      <point x="38" y="45" type="line"/>
      <point x="38" y="0" type="line"/>
      <point x="286" y="0" type="line"/>
      <point x="286" y="45" type="line"/>
      <point x="283" y="45" type="line" smooth="yes"/>
      <point x="255" y="45"/>
      <point x="211" y="48"/>
      <point x="211" y="55" type="curve" smooth="yes"/>
      <point x="211" y="508" type="line"/>
      <point x="38" y="508" type="line"/>
      <point x="38" y="463" type="line"/>
      <point x="40" y="463" type="line" smooth="yes"/>
      <point x="88" y="463"/>
      <point x="122" y="456"/>
      <point x="122" y="427" type="curve" smooth="yes"/>
    </contour>
    <contour>
      <point x="429" y="55" type="line" smooth="yes"/>
      <point x="429" y="48"/>
      <point x="384" y="45"/>
      <point x="356" y="45" type="curve" smooth="yes"/>
      <point x="354" y="45" type="line"/>
      <point x="354" y="0" type="line"/>
      <point x="602" y="0" type="line"/>
      <point x="602" y="45" type="line"/>
      <point x="600" y="45" type="line" smooth="yes"/>
      <point x="552" y="45"/>
      <point x="518" y="52"/>
      <point x="518" y="81" type="curve" smooth="yes"/>
      <point x="518" y="427" type="line" smooth="yes"/>
      <point x="518" y="456"/>
      <point x="552" y="463"/>
      <point x="600" y="463" type="curve" smooth="yes"/>
      <point x="602" y="463" type="line"/>
      <point x="602" y="508" type="line"/>
      <point x="429" y="508" type="line"/>
    </contour>
    <contour>
      <point x="186" y="451" type="line"/>
      <point x="477" y="451" type="line"/>
      <point x="477" y="508" type="line"/>
      <point x="186" y="508" type="line"/>
    </contour>
  </outline>
</glyph>
<glyph name="tecyr" format="2">
  <advance width="567"/>
  <unicode hex="0442"/>
  <anchor x="283" y="508" name="top"/>
  <outline>
    <contour>
      <point x="283" y="451" type="line"/>
      <point x="376" y="451" type="line" smooth="yes"/>
      <point x="437" y="451"/>
      <point x="461" y="444"/>
      <point x="465" y="408" type="curve" smooth="yes"/>
      <point x="474" y="331" type="line"/>
      <point x="527" y="331" type="line"/>
      <point x="527" y="508" type="line"/>
      <point x="283" y="508" type="line"/>
    </contour>
    <contour>
      <point x="284" y="451" type="line"/>
      <point x="284" y="508" type="line"/>
      <point x="40" y="508" type="line"/>
      <point x="40" y="331" type="line"/>
      <point x="93" y="331" type="line"/>
      <point x="102" y="408" type="line" smooth="yes"/>
      <point x="106" y="444"/>
      <point x="130" y="451"/>
      <point x="191" y="451" type="curve" smooth="yes"/>
    </contour>
    <contour>
      <point x="328" y="81" type="curve" smooth="yes"/>
      <point x="328" y="508" type="line"/>
      <point x="239" y="508" type="line"/>
      <point x="239" y="81" type="line" smooth="yes"/>
      <point x="239" y="52"/>
      <point x="205" y="45"/>
      <point x="157" y="45" type="curve" smooth="yes"/>
      <point x="145" y="45" type="line"/>
      <point x="145" y="0" type="line"/>
      <point x="422" y="0" type="line"/>
      <point x="422" y="45" type="line"/>
      <point x="410" y="45" type="line" smooth="yes"/>
      <point x="362" y="45"/>
      <point x="328" y="52"/>
    </contour>
  </outline>
</glyph>
